<svg xmlns="http://www.w3.org/2000/svg" width="370.3203125" height="261.3852233886719" viewBox="-86.64869689941406 -29.509309768676758 370.3203125 261.3852233886719"><title>Neo4j Graph Visualization</title><desc>Created using Neo4j (http://www.neo4j.com/)</desc><g class="layer relationships"><g class="relationship" transform="translate(180.63196124195272 128.96709439208647) rotate(482.8298836209409)"><path class="outline" fill="#A5ABB6" stroke="none" d="M 24.018736134675446,6.953439040707552 L 24.277555179777966,5.987513214418485 A 31.700618540881763 31.700618540881763 0 0 0 31.74022680169737,7.058999380142275 L 31.71681867175713,8.058725372328489 A 32.70061854088176 32.70061854088176 0 0 1 24.018736134675446,6.953439040707552 Z M 31.71681867175713,8.058725372328489 L 31.74022680169737,7.058999380142275 A 31.700618540881763 31.700618540881763 0 0 0 39.24486945261691,6.337966078596632 L 38.60488915278073,3.407023360660713 L 46.190399177773415,5.333169165301524 L 40.09817651906515,10.24588970251119 L 39.45819621922897,7.314946984575271 A 32.70061854088176 32.70061854088176 0 0 1 31.71681867175713,8.058725372328489"/><text text-anchor="middle" pointer-events="none" font-size="8px" fill="#000000" x="31.72852273672725" y="10.558862376235382" transform="rotate(180 31.72852273672725 7.558862376235382)" font-family="sans-serif"/></g><g class="relationship" transform="translate(180.63196124195272 128.96709439208647) rotate(430.1807588868119)"><path class="outline" fill="#A5ABB6" stroke="none" d="M 24.018736134675446,6.953439040707552 L 24.277555179777966,5.987513214418485 A 48.15797954254604 48.15797954254604 0 0 0 25.165305128098396,6.216351128912656 L 24.924920202465863,7.187028772380685 A 49.15797954254604 49.15797954254604 0 0 1 24.018736134675446,6.953439040707552 Z M 46.52246589894189,7.645623063486383 L 46.323501081207056,6.665616430190596 A 48.15797954254604 48.15797954254604 0 0 0 47.22016461545462,6.474668091094401 L 46.567412532252035,3.546543312695317 L 54.16124777891958,5.439600693354881 L 48.0905007263914,10.37883446229318 L 47.43774864318881,7.450709683894095 A 49.15797954254604 49.15797954254604 0 0 1 46.52246589894189,7.645623063486383"/><text text-anchor="middle" pointer-events="none" font-size="8px" fill="#000000" x="35.7088047678427" y="11.117491143215716" font-family="sans-serif">SI…</text></g><g class="relationship" transform="translate(180.63196124195272 128.96709439208647) rotate(379.1265688784688)"><path class="outline" fill="#A5ABB6" stroke="none" d="M 24.018736134675446,-6.953439040707552 L 24.277555179777966,-5.987513214418485 A 47.75349033337314 47.75349033337314 0 0 1 25.069518637127274,-6.192465068453608 L 24.827284001914386,-7.162682766448896 A 48.75349033337314 48.75349033337314 0 0 0 24.018736134675446,-6.953439040707552 Z M 46.4236646625445,-7.622311570418148 L 46.22292833274636,-6.642666264249037 A 47.75349033337314 47.75349033337314 0 0 1 47.02289457019322,-6.47159493645209 L 46.37042959541247,-3.543406169196067 L 53.9640791895874,-5.43720812317299 L 47.8928478699009,-10.375846626126787 L 47.24038289512014,-7.447657858870763 A 48.75349033337314 48.75349033337314 0 0 0 46.4236646625445,-7.622311570418148"/><text text-anchor="middle" pointer-events="none" font-size="8px" fill="#000000" x="35.61033698072501" y="-5.103749384266067" font-family="sans-serif">SI…</text></g><g class="relationship" transform="translate(180.63196124195272 128.96709439208647) rotate(328.13290377164134)"><path class="outline" fill="#A5ABB6" stroke="none" d="M 24.018736134675446,-6.953439040707552 L 24.277555179777966,-5.987513214418485 A 47.11767133909838 47.11767133909838 0 0 1 24.919127296276024,-6.15459323143056 L 24.67392463114867,-7.124065073731536 A 48.11767133909838 48.11767133909838 0 0 0 24.018736134675446,-6.953439040707552 Z M 46.26838174699564,-7.5853270983590875 L 46.06480007749332,-6.606269130799127 A 47.11767133909838 47.11767133909838 0 0 1 46.71292148729025,-6.466737231523766 L 46.060910342870116,-3.5384473777777354 L 53.65426633676768,-5.4334262035011225 L 47.58226967985043,-10.37112370318514 L 46.93025853543029,-7.4428338494391095 A 48.11767133909838 48.11767133909838 0 0 0 46.26838174699564,-7.5853270983590875"/><text text-anchor="middle" pointer-events="none" font-size="8px" fill="#000000" x="35.45561463163612" y="-5.082149668346183" font-family="sans-serif">SI…</text></g><g class="relationship" transform="translate(180.63196124195272 128.96709439208647) rotate(276.2589453106583)"><path class="outline" fill="#A5ABB6" stroke="none" d="M 24.018736134675446,6.953439040707552 L 24.277555179777966,5.987513214418485 A 32.49195496654063 32.49195496654063 0 0 0 31.930225421914813,7.085833324334551 L 31.906931455251474,8.085561983080062 A 33.49195496654063 33.49195496654063 0 0 1 24.018736134675446,6.953439040707552 Z M 31.906931455251474,8.085561983080062 L 31.930225421914813,7.085833324334551 A 32.49195496654063 32.49195496654063 0 0 0 39.625745430285775,6.345130482774623 L 38.98509575257027,3.4143340056300526 L 46.571045489909025,5.3387473142958735 L 40.47994500057312,10.252859118967383 L 39.83929532285761,7.3220626418228125 A 33.49195496654063 33.49195496654063 0 0 1 31.906931455251474,8.085561983080062"/><text text-anchor="middle" pointer-events="none" font-size="8px" fill="#000000" x="31.918578438583143" y="10.585697653707307" font-family="sans-serif"/></g><g class="relationship" transform="translate(180.63196124195272 128.96709439208647) rotate(198.21847221115115)"><path class="outline" fill="#A5ABB6" stroke="none" d="M 25 0.5 L 25.655679564773465 0.5 L 25.655679564773465 -0.5 L 25 -0.5 Z M 53.878335814773465 0.5 L 54.53401537954693 0.5 L 54.53401537954693 3.5 L 61.53401537954693 0 L 54.53401537954693 -3.5 L 54.53401537954693 -0.5 L 53.878335814773465 -0.5 Z"/><text text-anchor="middle" pointer-events="none" font-size="8px" fill="#000000" x="39.767007689773465" y="3" transform="rotate(180 39.767007689773465 0)" font-family="sans-serif">SIM…</text></g><g class="relationship" transform="translate(207.2688087666021 202.87589891984712) rotate(250.18075888681187)"><path class="outline" fill="#A5ABB6" stroke="none" d="M 24.018736134675446,6.953439040707552 L 24.277555179777966,5.987513214418485 A 48.15797954254604 48.15797954254604 0 0 0 25.165305128098396,6.216351128912656 L 24.924920202465863,7.187028772380685 A 49.15797954254604 49.15797954254604 0 0 1 24.018736134675446,6.953439040707552 Z M 46.52246589894189,7.645623063486383 L 46.323501081207056,6.665616430190596 A 48.15797954254604 48.15797954254604 0 0 0 47.22016461545462,6.474668091094401 L 46.567412532252035,3.546543312695317 L 54.16124777891958,5.439600693354881 L 48.0905007263914,10.37883446229318 L 47.43774864318881,7.450709683894095 A 49.15797954254604 49.15797954254604 0 0 1 46.52246589894189,7.645623063486383"/><text text-anchor="middle" pointer-events="none" font-size="8px" fill="#000000" x="35.7088047678427" y="11.117491143215716" transform="rotate(180 35.7088047678427 8.117491143215716)" font-family="sans-serif">SI…</text></g><g class="relationship" transform="translate(254.6716002613774 154.6440744802846) rotate(199.1265688784688)"><path class="outline" fill="#A5ABB6" stroke="none" d="M 24.018736134675446,-6.953439040707552 L 24.277555179777966,-5.987513214418485 A 47.75349033337314 47.75349033337314 0 0 1 25.069518637127274,-6.192465068453608 L 24.827284001914386,-7.162682766448896 A 48.75349033337314 48.75349033337314 0 0 0 24.018736134675446,-6.953439040707552 Z M 46.4236646625445,-7.622311570418148 L 46.22292833274636,-6.642666264249037 A 47.75349033337314 47.75349033337314 0 0 1 47.02289457019322,-6.47159493645209 L 46.37042959541247,-3.543406169196067 L 53.9640791895874,-5.43720812317299 L 47.8928478699009,-10.375846626126787 L 47.24038289512014,-7.447657858870763 A 48.75349033337314 48.75349033337314 0 0 0 46.4236646625445,-7.622311570418148"/><text text-anchor="middle" pointer-events="none" font-size="8px" fill="#000000" x="35.61033698072501" y="-5.103749384266067" transform="rotate(180 35.61033698072501 -8.103749384266067)" font-family="sans-serif">SI…</text></g><g class="relationship" transform="translate(188.37191222826422 58.3959188680371) rotate(456.2589453106583)"><path class="outline" fill="#A5ABB6" stroke="none" d="M 24.018736134675446,6.953439040707552 L 24.277555179777966,5.987513214418485 A 32.49195496654063 32.49195496654063 0 0 0 31.930225421914813,7.085833324334551 L 31.906931455251474,8.085561983080062 A 33.49195496654063 33.49195496654063 0 0 1 24.018736134675446,6.953439040707552 Z M 31.906931455251474,8.085561983080062 L 31.930225421914813,7.085833324334551 A 32.49195496654063 32.49195496654063 0 0 0 39.625745430285775,6.345130482774623 L 38.98509575257027,3.4143340056300526 L 46.571045489909025,5.3387473142958735 L 40.47994500057312,10.252859118967383 L 39.83929532285761,7.3220626418228125 A 33.49195496654063 33.49195496654063 0 0 1 31.906931455251474,8.085561983080062"/><text text-anchor="middle" pointer-events="none" font-size="8px" fill="#000000" x="31.918578438583143" y="10.585697653707307" transform="rotate(180 31.918578438583143 7.585697653707307)" font-family="sans-serif"/></g><g class="relationship" transform="translate(246.92355112715785 87.75701453627842) rotate(508.13290377164134)"><path class="outline" fill="#A5ABB6" stroke="none" d="M 24.018736134675446,-6.953439040707552 L 24.277555179777966,-5.987513214418485 A 47.11767133909838 47.11767133909838 0 0 1 24.919127296276024,-6.15459323143056 L 24.67392463114867,-7.124065073731536 A 48.11767133909838 48.11767133909838 0 0 0 24.018736134675446,-6.953439040707552 Z M 46.26838174699564,-7.5853270983590875 L 46.06480007749332,-6.606269130799127 A 47.11767133909838 47.11767133909838 0 0 1 46.71292148729025,-6.466737231523766 L 46.060910342870116,-3.5384473777777354 L 53.65426633676768,-5.4334262035011225 L 47.58226967985043,-10.37112370318514 L 46.93025853543029,-7.4428338494391095 A 48.11767133909838 48.11767133909838 0 0 0 46.26838174699564,-7.5853270983590875"/><text text-anchor="middle" pointer-events="none" font-size="8px" fill="#000000" x="35.45561463163612" y="-5.082149668346183" transform="rotate(180 35.45561463163612 -8.082149668346183)" font-family="sans-serif">SI…</text></g><g class="relationship" transform="translate(142.3483250746553 188.30367995678785) rotate(302.8298836209409)"><path class="outline" fill="#A5ABB6" stroke="none" d="M 24.018736134675446,6.953439040707552 L 24.277555179777966,5.987513214418485 A 31.700618540881763 31.700618540881763 0 0 0 31.74022680169737,7.058999380142275 L 31.71681867175713,8.058725372328489 A 32.70061854088176 32.70061854088176 0 0 1 24.018736134675446,6.953439040707552 Z M 31.71681867175713,8.058725372328489 L 31.74022680169737,7.058999380142275 A 31.700618540881763 31.700618540881763 0 0 0 39.24486945261691,6.337966078596632 L 38.60488915278073,3.407023360660713 L 46.190399177773415,5.333169165301524 L 40.09817651906515,10.24588970251119 L 39.45819621922897,7.314946984575271 A 32.70061854088176 32.70061854088176 0 0 1 31.71681867175713,8.058725372328489"/><text text-anchor="middle" pointer-events="none" font-size="8px" fill="#000000" x="31.72852273672725" y="10.558862376235382" font-family="sans-serif"/></g><g class="relationship" transform="translate(246.92355112715785 87.75701453627842) rotate(469.00717755307636)"><path class="outline" fill="#A5ABB6" stroke="none" d="M 24.018736134675446,6.953439040707552 L 24.277555179777966,5.987513214418485 A 135.08520268755038 135.08520268755038 0 0 0 38.484723679084446,8.986398470481703 L 38.331076541908566,9.974524250551042 A 136.08520268755038 136.08520268755038 0 0 1 24.018736134675446,6.953439040707552 Z M 76.35049078028905,10.51048486049666 L 76.22475842955932,9.518420660971259 A 135.08520268755038 135.08520268755038 0 0 0 90.51081529862064,6.9212050979758475 L 89.81635055349014,4.002691997479152 L 97.43642332396801,5.7872062094208045 L 91.43676829212797,10.812555898638108 L 90.74230354699746,7.894042798141412 A 136.08520268755038 136.08520268755038 0 0 1 76.35049078028905,10.51048486049666"/><text text-anchor="middle" pointer-events="none" font-size="8px" fill="#000000" x="57.32902032621748" y="14.076959725136533" transform="rotate(180 57.32902032621748 11.076959725136533)" font-family="sans-serif">SIMILAR</text></g><g class="relationship" transform="translate(246.92355112715785 87.75701453627842) rotate(496.12513515476996)"><path class="outline" fill="#A5ABB6" stroke="none" d="M 24.018736134675446,6.953439040707552 L 24.277555179777966,5.987513214418485 A 181.14116011778998 181.14116011778998 0 0 0 50.09515956208844,10.930728612659237 L 49.97886805940379,11.92394373860293 A 182.14116011778998 182.14116011778998 0 0 1 24.018736134675446,6.953439040707552 Z M 88.01910382928573,12.377856755025732 L 87.92654503286565,11.382149534400469 A 181.14116011778998 181.14116011778998 0 0 0 113.85475096951524,7.056388165393703 L 113.14766020662857,4.140908333009273 L 120.77538570556003,5.8924230240555495 L 114.79753865336413,10.943694608572944 L 114.09044789047746,8.028214776188513 A 182.14116011778998 182.14116011778998 0 0 1 88.01910382928573,12.377856755025732"/><text text-anchor="middle" pointer-events="none" font-size="8px" fill="#000000" x="68.99306842566116" y="15.646818622696912" transform="rotate(180 68.99306842566116 12.646818622696912)" font-family="sans-serif">SIMILAR</text></g><g class="relationship" transform="translate(246.92355112715785 87.75701453627842) rotate(206.63176999894188)"><path class="outline" fill="#A5ABB6" stroke="none" d="M 24.018736134675446,6.953439040707552 L 24.277555179777966,5.987513214418485 A 20.968847338286686 20.968847338286686 0 0 0 29.179134905150534,6.695422115701515 L 29.15407118509265,7.6951079713266 A 21.968847338286686 21.968847338286686 0 0 1 24.018736134675446,6.953439040707552 Z M 29.15407118509265,7.6951079713266 L 29.179134905150534,6.695422115701515 A 20.968847338286686 20.968847338286686 0 0 0 34.11003089660443,6.234029074831845 L 33.47976182161523,3.300982724514098 L 41.05885055984404,5.252242291576669 L 34.9503896632567,10.144757541922175 L 34.3201205882675,7.211711191604428 A 21.968847338286686 21.968847338286686 0 0 1 29.15407118509265,7.6951079713266"/><text text-anchor="middle" pointer-events="none" font-size="8px" fill="#000000" x="29.16660304512159" y="10.195265043514059" transform="rotate(180 29.16660304512159 7.195265043514059)" font-family="sans-serif"/></g><g class="relationship" transform="translate(246.92355112715785 87.75701453627842) rotate(534.554203043628)"><path class="outline" fill="#A5ABB6" stroke="none" d="M 25 0.5 L 52.07660246772001 0.5 L 52.07660246772001 -0.5 L 25 -0.5 Z M 90.08441496772001 0.5 L 117.16101743544002 0.5 L 117.16101743544002 3.5 L 124.16101743544002 0 L 117.16101743544002 -3.5 L 117.16101743544002 -0.5 L 90.08441496772001 -0.5 Z"/><text text-anchor="middle" pointer-events="none" font-size="8px" fill="#000000" x="71.08050871772001" y="3" transform="rotate(180 71.08050871772001 0)" font-family="sans-serif">SIMILAR</text></g><g class="relationship" transform="translate(246.92355112715785 87.75701453627842) rotate(443.3924328803299)"><path class="outline" fill="#A5ABB6" stroke="none" d="M 24.018736134675446,6.953439040707552 L 24.277555179777966,5.987513214418485 A 24.83116563586572 24.83116563586572 0 0 0 30.097362707058323,6.826195181061525 L 30.072918786048824,7.82589638378446 A 25.83116563586572 25.83116563586572 0 0 1 24.018736134675446,6.953439040707552 Z M 30.072918786048824,7.82589638378446 L 30.097362707058323,6.826195181061525 A 24.83116563586572 24.83116563586572 0 0 0 35.95120460334977,6.2729482660370826 L 35.31729910066132,3.3406856901988773 L 42.89880153075366,5.28254585573707 L 36.79641194026771,10.182631700488024 L 36.16250643757926,7.250369124649818 A 25.83116563586572 25.83116563586572 0 0 1 30.072918786048824,7.82589638378446"/><text text-anchor="middle" pointer-events="none" font-size="8px" fill="#000000" x="30.085140746553574" y="10.326045782422995" font-family="sans-serif"/></g><g class="relationship" transform="translate(188.37191222826422 58.3959188680371) rotate(386.6317699989419)"><path class="outline" fill="#A5ABB6" stroke="none" d="M 24.018736134675446,6.953439040707552 L 24.277555179777966,5.987513214418485 A 20.968847338286686 20.968847338286686 0 0 0 29.179134905150534,6.695422115701515 L 29.15407118509265,7.6951079713266 A 21.968847338286686 21.968847338286686 0 0 1 24.018736134675446,6.953439040707552 Z M 29.15407118509265,7.6951079713266 L 29.179134905150534,6.695422115701515 A 20.968847338286686 20.968847338286686 0 0 0 34.11003089660443,6.234029074831845 L 33.47976182161523,3.300982724514098 L 41.05885055984404,5.252242291576669 L 34.9503896632567,10.144757541922175 L 34.3201205882675,7.211711191604428 A 21.968847338286686 21.968847338286686 0 0 1 29.15407118509265,7.6951079713266"/><text text-anchor="middle" pointer-events="none" font-size="8px" fill="#000000" x="29.16660304512159" y="10.195265043514059" font-family="sans-serif"/></g><g class="relationship" transform="translate(142.3483250746553 188.30367995678785) rotate(316.12513515476996)"><path class="outline" fill="#A5ABB6" stroke="none" d="M 24.018736134675446,6.953439040707552 L 24.277555179777966,5.987513214418485 A 181.14116011778998 181.14116011778998 0 0 0 50.09515956208844,10.930728612659237 L 49.97886805940379,11.92394373860293 A 182.14116011778998 182.14116011778998 0 0 1 24.018736134675446,6.953439040707552 Z M 88.01910382928573,12.377856755025732 L 87.92654503286565,11.382149534400469 A 181.14116011778998 181.14116011778998 0 0 0 113.85475096951524,7.056388165393703 L 113.14766020662857,4.140908333009273 L 120.77538570556003,5.8924230240555495 L 114.79753865336413,10.943694608572944 L 114.09044789047746,8.028214776188513 A 182.14116011778998 182.14116011778998 0 0 1 88.01910382928573,12.377856755025732"/><text text-anchor="middle" pointer-events="none" font-size="8px" fill="#000000" x="68.99306842566116" y="15.646818622696912" font-family="sans-serif">SIMILAR</text></g><g class="relationship" transform="translate(254.6716002613774 154.6440744802846) rotate(263.3924328803299)"><path class="outline" fill="#A5ABB6" stroke="none" d="M 24.018736134675446,6.953439040707552 L 24.277555179777966,5.987513214418485 A 24.83116563586572 24.83116563586572 0 0 0 30.097362707058323,6.826195181061525 L 30.072918786048824,7.82589638378446 A 25.83116563586572 25.83116563586572 0 0 1 24.018736134675446,6.953439040707552 Z M 30.072918786048824,7.82589638378446 L 30.097362707058323,6.826195181061525 A 24.83116563586572 24.83116563586572 0 0 0 35.95120460334977,6.2729482660370826 L 35.31729910066132,3.3406856901988773 L 42.89880153075366,5.28254585573707 L 36.79641194026771,10.182631700488024 L 36.16250643757926,7.250369124649818 A 25.83116563586572 25.83116563586572 0 0 1 30.072918786048824,7.82589638378446"/><text text-anchor="middle" pointer-events="none" font-size="8px" fill="#000000" x="30.085140746553574" y="10.326045782422995" transform="rotate(180 30.085140746553574 7.3260457824229945)" font-family="sans-serif"/></g><g class="relationship" transform="translate(207.2688087666021 202.87589891984712) rotate(289.00717755307636)"><path class="outline" fill="#A5ABB6" stroke="none" d="M 24.018736134675446,6.953439040707552 L 24.277555179777966,5.987513214418485 A 135.08520268755038 135.08520268755038 0 0 0 38.484723679084446,8.986398470481703 L 38.331076541908566,9.974524250551042 A 136.08520268755038 136.08520268755038 0 0 1 24.018736134675446,6.953439040707552 Z M 76.35049078028905,10.51048486049666 L 76.22475842955932,9.518420660971259 A 135.08520268755038 135.08520268755038 0 0 0 90.51081529862064,6.9212050979758475 L 89.81635055349014,4.002691997479152 L 97.43642332396801,5.7872062094208045 L 91.43676829212797,10.812555898638108 L 90.74230354699746,7.894042798141412 A 136.08520268755038 136.08520268755038 0 0 1 76.35049078028905,10.51048486049666"/><text text-anchor="middle" pointer-events="none" font-size="8px" fill="#000000" x="57.32902032621748" y="14.076959725136533" font-family="sans-serif">SIMILAR</text></g><g class="relationship" transform="translate(188.37191222826422 58.3959188680371) rotate(514.1792157872317)"><path class="outline" fill="#A5ABB6" stroke="none" d="M 24.018736134675446,-6.953439040707552 L 24.277555179777966,-5.987513214418485 A 91.49736373869337 91.49736373869337 0 0 1 27.674294240410344,-6.828392206643528 L 27.45259909617051,-7.803508232058192 A 92.49736373869337 92.49736373869337 0 0 0 24.018736134675446,-6.953439040707552 Z M 65.39031397450597,-8.447844115954624 L 65.2018599713008,-7.465762098668918 A 91.49736373869337 91.49736373869337 0 0 1 68.62519478286036,-6.740715552883263 L 67.94758905369892,-3.8182422038503616 L 75.55723355213071,-5.646714409678709 L 69.52866908840895,-10.637346684927133 L 68.8510633592475,-7.714873335894231 A 92.49736373869337 92.49736373869337 0 0 0 65.39031397450597,-8.447844115954624"/><text text-anchor="middle" pointer-events="none" font-size="8px" fill="#000000" x="46.39655336754077" y="-6.591944471458419" transform="rotate(180 46.39655336754077 -9.591944471458419)" font-family="sans-serif">SIMILAR</text></g><g class="relationship" transform="translate(188.37191222826422 58.3959188680371) rotate(442.5484406106075)"><path class="outline" fill="#A5ABB6" stroke="none" d="M 24.018736134675446,-6.953439040707552 L 24.277555179777966,-5.987513214418485 A 182.39984903588024 182.39984903588024 0 0 1 50.41406590212665,-10.981357384947842 L 50.29853924931777,-11.974661765533568 A 183.39984903588024 183.39984903588024 0 0 0 24.018736134675446,-6.953439040707552 Z M 88.3390316223419,-12.42667409824844 L 88.24713993444331,-11.430905090046679 A 182.39984903588024 182.39984903588024 0 0 1 114.49493214692241,-7.059512141626246 L 113.78754961716427,-4.144103086863435 L 121.41545036299532,-5.8948544146510775 L 115.43810885326658,-10.946724214643327 L 114.73072632350845,-8.031315159880515 A 183.39984903588024 183.39984903588024 0 0 0 88.3390316223419,-12.42667409824844"/><text text-anchor="middle" pointer-events="none" font-size="8px" fill="#000000" x="69.31297424317924" y="-9.689726777643443" font-family="sans-serif">SIMILAR</text></g><g class="relationship" transform="translate(188.37191222826422 58.3959188680371) rotate(415.4393312074988)"><path class="outline" fill="#A5ABB6" stroke="none" d="M 24.018736134675446,-6.953439040707552 L 24.277555179777966,-5.987513214418485 A 125.3852525969289 125.3852525969289 0 0 1 36.05876537416242,-8.544284873396279 L 35.89390642365138,-9.530602026464393 A 126.3852525969289 126.3852525969289 0 0 0 24.018736134675446,-6.953439040707552 Z M 73.90382828082763,-10.087596347138785 L 73.76794073539742,-9.09687207924334 A 125.3852525969289 125.3852525969289 0 0 1 85.6190096470972,-6.886405926920948 L 84.92779526928405,-3.967121308404902 L 92.54587615327017,-5.760119815109599 L 86.54062881751474,-10.778785418275676 L 85.84941443970159,-7.859500799759631 A 126.3852525969289 126.3852525969289 0 0 0 73.90382828082763,-10.087596347138785"/><text text-anchor="middle" pointer-events="none" font-size="8px" fill="#000000" x="54.88513224924434" y="-7.746398136123702" font-family="sans-serif">SIMILAR</text></g><g class="relationship" transform="translate(188.37191222826422 58.3959188680371) rotate(469.50816540986045)"><path class="outline" fill="#A5ABB6" stroke="none" d="M 24.018736134675446,-6.953439040707552 L 24.277555179777966,-5.987513214418485 A 166.8525461794152 166.8525461794152 0 0 1 46.48003374153822,-10.348339533207223 L 46.354281161827764,-11.340401168740101 A 167.8525461794152 167.8525461794152 0 0 0 24.018736134675446,-6.953439040707552 Z M 84.39078725309939,-11.81703395532466 L 84.2899331654876,-10.8221327275578 A 166.8525461794152 166.8525461794152 0 0 1 106.59471342718835,-7.0190237434096385 L 105.89111238899531,-4.102699759512502 L 113.51673622931385,-5.863341984942054 L 107.53284814477908,-10.907455721939154 L 106.82924710658604,-7.991131738042018 A 167.8525461794152 167.8525461794152 0 0 0 84.39078725309939,-11.81703395532466"/><text text-anchor="middle" pointer-events="none" font-size="8px" fill="#000000" x="65.36525347859944" y="-9.15973820430446" transform="rotate(180 65.36525347859944 -12.15973820430446)" font-family="sans-serif">SIMILAR</text></g><g class="relationship" transform="translate(142.3483250746553 188.30367995678785) rotate(289.50816540986045)"><path class="outline" fill="#A5ABB6" stroke="none" d="M 24.018736134675446,-6.953439040707552 L 24.277555179777966,-5.987513214418485 A 166.8525461794152 166.8525461794152 0 0 1 46.48003374153822,-10.348339533207223 L 46.354281161827764,-11.340401168740101 A 167.8525461794152 167.8525461794152 0 0 0 24.018736134675446,-6.953439040707552 Z M 84.39078725309939,-11.81703395532466 L 84.2899331654876,-10.8221327275578 A 166.8525461794152 166.8525461794152 0 0 1 106.59471342718835,-7.0190237434096385 L 105.89111238899531,-4.102699759512502 L 113.51673622931385,-5.863341984942054 L 107.53284814477908,-10.907455721939154 L 106.82924710658604,-7.991131738042018 A 167.8525461794152 167.8525461794152 0 0 0 84.39078725309939,-11.81703395532466"/><text text-anchor="middle" pointer-events="none" font-size="8px" fill="#000000" x="65.36525347859944" y="-9.15973820430446" font-family="sans-serif">SIMILAR</text></g><g class="relationship" transform="translate(98.43578311827724 101.91299822221458) rotate(334.17921578723167)"><path class="outline" fill="#A5ABB6" stroke="none" d="M 24.018736134675446,-6.953439040707552 L 24.277555179777966,-5.987513214418485 A 91.49736373869337 91.49736373869337 0 0 1 27.674294240410344,-6.828392206643528 L 27.45259909617051,-7.803508232058192 A 92.49736373869337 92.49736373869337 0 0 0 24.018736134675446,-6.953439040707552 Z M 65.39031397450597,-8.447844115954624 L 65.2018599713008,-7.465762098668918 A 91.49736373869337 91.49736373869337 0 0 1 68.62519478286036,-6.740715552883263 L 67.94758905369892,-3.8182422038503616 L 75.55723355213071,-5.646714409678709 L 69.52866908840895,-10.637346684927133 L 68.8510633592475,-7.714873335894231 A 92.49736373869337 92.49736373869337 0 0 0 65.39031397450597,-8.447844115954624"/><text text-anchor="middle" pointer-events="none" font-size="8px" fill="#000000" x="46.39655336754077" y="-6.591944471458419" font-family="sans-serif">SIMILAR</text></g><g class="relationship" transform="translate(207.2688087666021 202.87589891984712) rotate(262.5484406106075)"><path class="outline" fill="#A5ABB6" stroke="none" d="M 24.018736134675446,-6.953439040707552 L 24.277555179777966,-5.987513214418485 A 182.39984903588024 182.39984903588024 0 0 1 50.41406590212665,-10.981357384947842 L 50.29853924931777,-11.974661765533568 A 183.39984903588024 183.39984903588024 0 0 0 24.018736134675446,-6.953439040707552 Z M 88.3390316223419,-12.42667409824844 L 88.24713993444331,-11.430905090046679 A 182.39984903588024 182.39984903588024 0 0 1 114.49493214692241,-7.059512141626246 L 113.78754961716427,-4.144103086863435 L 121.41545036299532,-5.8948544146510775 L 115.43810885326658,-10.946724214643327 L 114.73072632350845,-8.031315159880515 A 183.39984903588024 183.39984903588024 0 0 0 88.3390316223419,-12.42667409824844"/><text text-anchor="middle" pointer-events="none" font-size="8px" fill="#000000" x="69.31297424317924" y="-9.689726777643443" transform="rotate(180 69.31297424317924 -12.689726777643443)" font-family="sans-serif">SIMILAR</text></g><g class="relationship" transform="translate(254.6716002613774 154.6440744802846) rotate(235.4393312074988)"><path class="outline" fill="#A5ABB6" stroke="none" d="M 24.018736134675446,-6.953439040707552 L 24.277555179777966,-5.987513214418485 A 125.3852525969289 125.3852525969289 0 0 1 36.05876537416242,-8.544284873396279 L 35.89390642365138,-9.530602026464393 A 126.3852525969289 126.3852525969289 0 0 0 24.018736134675446,-6.953439040707552 Z M 73.90382828082763,-10.087596347138785 L 73.76794073539742,-9.09687207924334 A 125.3852525969289 125.3852525969289 0 0 1 85.6190096470972,-6.886405926920948 L 84.92779526928405,-3.967121308404902 L 92.54587615327017,-5.760119815109599 L 86.54062881751474,-10.778785418275676 L 85.84941443970159,-7.859500799759631 A 126.3852525969289 126.3852525969289 0 0 0 73.90382828082763,-10.087596347138785"/><text text-anchor="middle" pointer-events="none" font-size="8px" fill="#000000" x="54.88513224924434" y="-7.746398136123702" transform="rotate(180 54.88513224924434 -10.746398136123702)" font-family="sans-serif">SIMILAR</text></g><g class="relationship" transform="translate(53.97790810820194 11.25453845512604) rotate(190.13138151439006)"><path class="outline" fill="#A5ABB6" stroke="none" d="M 24.018736134675446,-6.953439040707552 L 24.277555179777966,-5.987513214418485 A 23.8668742346114 23.8668742346114 0 0 1 29.867726259342604,-6.793536828678111 L 29.8431302224402,-7.79323430040078 A 24.8668742346114 24.8668742346114 0 0 0 24.018736134675446,-6.953439040707552 Z M 29.8431302224402,-7.79323430040078 L 29.867726259342604,-6.793536828678111 A 23.8668742346114 23.8668742346114 0 0 1 35.49077160074596,-6.263397362059143 L 34.857758483173896,-3.3309420098019777 L 42.43866960894135,-5.275109313100524 L 36.33478909084204,-10.173337831735363 L 35.701775973269974,-7.2408824794781985 A 24.8668742346114 24.8668742346114 0 0 0 29.8431302224402,-7.79323430040078"/><text text-anchor="middle" pointer-events="none" font-size="8px" fill="#000000" x="29.855428240891403" y="-4.293385564539445" transform="rotate(180 29.855428240891403 -7.293385564539445)" font-family="sans-serif"/></g><g class="relationship" transform="translate(53.97790810820194 11.25453845512604) rotate(520.9917293024471)"><path class="outline" fill="#A5ABB6" stroke="none" d="M 24.018736134675446,-6.953439040707552 L 24.277555179777966,-5.987513214418485 A 127.75305986314146 127.75305986314146 0 0 1 36.650135510872104,-8.653671415444393 L 36.48816408996229,-9.640466864769365 A 128.75305986314146 128.75305986314146 0 0 0 24.018736134675446,-6.953439040707552 Z M 74.50067670909839,-10.192183356410865 L 74.36741233010144,-9.201102832290573 A 127.75305986314146 127.75305986314146 0 0 1 86.81215832773847,-6.895145188149623 L 86.1201276660034,-3.9760539660021372 L 93.73870962303846,-5.766922181125681 L 87.73486587671859,-10.787266817679605 L 87.04283521498351,-7.868175595532119 A 128.75305986314146 128.75305986314146 0 0 0 74.50067670909839,-10.192183356410865"/><text text-anchor="middle" pointer-events="none" font-size="8px" fill="#000000" x="55.481201539489916" y="-7.827086510166765" transform="rotate(180 55.481201539489916 -10.827086510166765)" font-family="sans-serif">SIMILAR</text></g><g class="relationship" transform="translate(53.97790810820194 11.25453845512604) rotate(423.87719451591397)"><path class="outline" fill="#A5ABB6" stroke="none" d="M 24.018736134675446,-6.953439040707552 L 24.277555179777966,-5.987513214418485 A 93.62890331726535 93.62890331726535 0 0 1 28.19601447764364,-6.947478288079424 L 27.979046390514938,-7.9236569854333965 A 94.62890331726535 94.62890331726535 0 0 0 24.018736134675446,-6.953439040707552 Z M 65.92434003045432,-8.561772372834426 L 65.74031759238672,-7.578850330001089 A 93.62890331726535 93.62890331726535 0 0 1 69.68883901990344,-6.75118207029785 L 69.01025559942512,-3.8289355814725248 L 76.62051139724225,-5.654861837319325 L 70.59361691387453,-10.64751072206495 L 69.91503349339621,-7.725264233239625 A 94.62890331726535 94.62890331726535 0 0 0 65.92434003045432,-8.561772372834426"/><text text-anchor="middle" pointer-events="none" font-size="8px" fill="#000000" x="46.927782878995735" y="-6.664533628006879" font-family="sans-serif">SIMILAR</text></g><g class="relationship" transform="translate(53.97790810820194 11.25453845512604) rotate(494.1932833788318)"><path class="outline" fill="#A5ABB6" stroke="none" d="M 24.018736134675446,-6.953439040707552 L 24.277555179777966,-5.987513214418485 A 184.48905408435738 184.48905408435738 0 0 1 50.94354367262629,-11.065173492405876 L 50.82926430563744,-12.058622145472867 A 185.48905408435738 185.48905408435738 0 0 0 24.018736134675446,-6.953439040707552 Z M 88.87016080989463,-12.50751369963703 L 88.77935585699171,-11.51164500320749 A 184.48905408435738 184.48905408435738 0 0 1 115.55773763674952,-7.064640904164537 L 114.84987610214998,-4.149348114780532 L 122.4780644010788,-5.898846121662921 L 116.50155301621558,-10.951697956676544 L 115.79369148161604,-8.03640516729254 A 185.48905408435738 185.48905408435738 0 0 0 88.87016080989463,-12.50751369963703"/><text text-anchor="middle" pointer-events="none" font-size="8px" fill="#000000" x="69.84407346974169" y="-9.760947182973752" transform="rotate(180 69.84407346974169 -12.760947182973752)" font-family="sans-serif">SIMILAR</text></g><g class="relationship" transform="translate(53.97790810820194 11.25453845512604) rotate(481.47488370804473)"><path class="outline" fill="#A5ABB6" stroke="none" d="M 24.018736134675446,-6.953439040707552 L 24.277555179777966,-5.987513214418485 A 29.99300214148431 29.99300214148431 0 0 1 31.330740468080037,-7.001105238157368 L 31.30708245337489,-8.00082534815827 A 30.99300214148431 30.99300214148431 0 0 0 24.018736134675446,-6.953439040707552 Z M 31.30708245337489,-8.00082534815827 L 31.330740468080037,-7.001105238157368 A 29.99300214148431 29.99300214148431 0 0 1 38.4239761240756,-6.32228314790027 L 37.78546110578892,-3.391020864954174 L 45.37000728733094,-5.320958485722358 L 39.27532948179118,-10.230632858495063 L 38.6368144635045,-7.299370575548968 A 30.99300214148431 30.99300214148431 0 0 0 31.30708245337489,-8.00082534815827"/><text text-anchor="middle" pointer-events="none" font-size="8px" fill="#000000" x="31.318911460727463" y="-4.500965293157819" transform="rotate(180 31.318911460727463 -7.500965293157819)" font-family="sans-serif"/></g><g class="relationship" transform="translate(53.97790810820194 11.25453845512604) rotate(467.88908147499757)"><path class="outline" fill="#A5ABB6" stroke="none" d="M 24.018736134675446,-6.953439040707552 L 24.277555179777966,-5.987513214418485 A 166.72928222385926 166.72928222385926 0 0 1 46.44889065156465,-10.343248737030166 L 46.323049660323235,-11.335299161617229 A 167.72928222385926 167.72928222385926 0 0 0 24.018736134675446,-6.953439040707552 Z M 84.35951602547574,-11.81213755611634 L 84.25858405339889,-10.817244226652008 A 166.72928222385926 166.72928222385926 0 0 1 106.53214460008786,-7.018685405410898 L 105.82857516196117,-4.102353797768499 L 113.45417992427457,-5.863078651055704 L 107.47023718425677,-10.907127548934097 L 106.76666774613008,-7.990795941291698 A 167.72928222385926 167.72928222385926 0 0 0 84.35951602547574,-11.81213755611634"/><text text-anchor="middle" pointer-events="none" font-size="8px" fill="#000000" x="65.33398896911761" y="-9.155536408706496" transform="rotate(180 65.33398896911761 -12.155536408706496)" font-family="sans-serif">SIMILAR</text></g><g class="relationship" transform="translate(-11.855093925955423 -0.5093104206705847) rotate(370.13138151439006)"><path class="outline" fill="#A5ABB6" stroke="none" d="M 24.018736134675446,-6.953439040707552 L 24.277555179777966,-5.987513214418485 A 23.8668742346114 23.8668742346114 0 0 1 29.867726259342604,-6.793536828678111 L 29.8431302224402,-7.79323430040078 A 24.8668742346114 24.8668742346114 0 0 0 24.018736134675446,-6.953439040707552 Z M 29.8431302224402,-7.79323430040078 L 29.867726259342604,-6.793536828678111 A 23.8668742346114 23.8668742346114 0 0 1 35.49077160074596,-6.263397362059143 L 34.857758483173896,-3.3309420098019777 L 42.43866960894135,-5.275109313100524 L 36.33478909084204,-10.173337831735363 L 35.701775973269974,-7.2408824794781985 A 24.8668742346114 24.8668742346114 0 0 0 29.8431302224402,-7.79323430040078"/><text text-anchor="middle" pointer-events="none" font-size="8px" fill="#000000" x="29.855428240891403" y="-4.293385564539445" font-family="sans-serif"/></g><g class="relationship" transform="translate(11.66238152075294 142.35134102045663) rotate(287.88908147499757)"><path class="outline" fill="#A5ABB6" stroke="none" d="M 24.018736134675446,-6.953439040707552 L 24.277555179777966,-5.987513214418485 A 166.72928222385926 166.72928222385926 0 0 1 46.44889065156465,-10.343248737030166 L 46.323049660323235,-11.335299161617229 A 167.72928222385926 167.72928222385926 0 0 0 24.018736134675446,-6.953439040707552 Z M 84.35951602547574,-11.81213755611634 L 84.25858405339889,-10.817244226652008 A 166.72928222385926 166.72928222385926 0 0 1 106.53214460008786,-7.018685405410898 L 105.82857516196117,-4.102353797768499 L 113.45417992427457,-5.863078651055704 L 107.47023718425677,-10.907127548934097 L 106.76666774613008,-7.990795941291698 A 167.72928222385926 167.72928222385926 0 0 0 84.35951602547574,-11.81213755611634"/><text text-anchor="middle" pointer-events="none" font-size="8px" fill="#000000" x="65.33398896911761" y="-9.155536408706496" font-family="sans-serif">SIMILAR</text></g><g class="relationship" transform="translate(-48.33419192840902 116.48905921741762) rotate(314.1932833788318)"><path class="outline" fill="#A5ABB6" stroke="none" d="M 24.018736134675446,-6.953439040707552 L 24.277555179777966,-5.987513214418485 A 184.48905408435738 184.48905408435738 0 0 1 50.94354367262629,-11.065173492405876 L 50.82926430563744,-12.058622145472867 A 185.48905408435738 185.48905408435738 0 0 0 24.018736134675446,-6.953439040707552 Z M 88.87016080989463,-12.50751369963703 L 88.77935585699171,-11.51164500320749 A 184.48905408435738 184.48905408435738 0 0 1 115.55773763674952,-7.064640904164537 L 114.84987610214998,-4.149348114780532 L 122.4780644010788,-5.898846121662921 L 116.50155301621558,-10.951697956676544 L 115.79369148161604,-8.03640516729254 A 185.48905408435738 185.48905408435738 0 0 0 88.87016080989463,-12.50751369963703"/><text text-anchor="middle" pointer-events="none" font-size="8px" fill="#000000" x="69.84407346974169" y="-9.760947182973752" font-family="sans-serif">SIMILAR</text></g><g class="relationship" transform="translate(98.43578311827724 101.91299822221458) rotate(243.87719451591397)"><path class="outline" fill="#A5ABB6" stroke="none" d="M 24.018736134675446,-6.953439040707552 L 24.277555179777966,-5.987513214418485 A 93.62890331726535 93.62890331726535 0 0 1 28.19601447764364,-6.947478288079424 L 27.979046390514938,-7.9236569854333965 A 94.62890331726535 94.62890331726535 0 0 0 24.018736134675446,-6.953439040707552 Z M 65.92434003045432,-8.561772372834426 L 65.74031759238672,-7.578850330001089 A 93.62890331726535 93.62890331726535 0 0 1 69.68883901990344,-6.75118207029785 L 69.01025559942512,-3.8289355814725248 L 76.62051139724225,-5.654861837319325 L 70.59361691387453,-10.64751072206495 L 69.91503349339621,-7.725264233239625 A 94.62890331726535 94.62890331726535 0 0 0 65.92434003045432,-8.561772372834426"/><text text-anchor="middle" pointer-events="none" font-size="8px" fill="#000000" x="46.927782878995735" y="-6.664533628006879" transform="rotate(180 46.927782878995735 -9.664533628006879)" font-family="sans-serif">SIMILAR</text></g><g class="relationship" transform="translate(17.535066209430507 70.78240942348735) rotate(301.47488370804473)"><path class="outline" fill="#A5ABB6" stroke="none" d="M 24.018736134675446,-6.953439040707552 L 24.277555179777966,-5.987513214418485 A 29.99300214148431 29.99300214148431 0 0 1 31.330740468080037,-7.001105238157368 L 31.30708245337489,-8.00082534815827 A 30.99300214148431 30.99300214148431 0 0 0 24.018736134675446,-6.953439040707552 Z M 31.30708245337489,-8.00082534815827 L 31.330740468080037,-7.001105238157368 A 29.99300214148431 29.99300214148431 0 0 1 38.4239761240756,-6.32228314790027 L 37.78546110578892,-3.391020864954174 L 45.37000728733094,-5.320958485722358 L 39.27532948179118,-10.230632858495063 L 38.6368144635045,-7.299370575548968 A 30.99300214148431 30.99300214148431 0 0 0 31.30708245337489,-8.00082534815827"/><text text-anchor="middle" pointer-events="none" font-size="8px" fill="#000000" x="31.318911460727463" y="-4.500965293157819" font-family="sans-serif"/></g><g class="relationship" transform="translate(-57.648691485547914 49.70868379846373) rotate(340.9917293024471)"><path class="outline" fill="#A5ABB6" stroke="none" d="M 24.018736134675446,-6.953439040707552 L 24.277555179777966,-5.987513214418485 A 127.75305986314146 127.75305986314146 0 0 1 36.650135510872104,-8.653671415444393 L 36.48816408996229,-9.640466864769365 A 128.75305986314146 128.75305986314146 0 0 0 24.018736134675446,-6.953439040707552 Z M 74.50067670909839,-10.192183356410865 L 74.36741233010144,-9.201102832290573 A 127.75305986314146 127.75305986314146 0 0 1 86.81215832773847,-6.895145188149623 L 86.1201276660034,-3.9760539660021372 L 93.73870962303846,-5.766922181125681 L 87.73486587671859,-10.787266817679605 L 87.04283521498351,-7.868175595532119 A 128.75305986314146 128.75305986314146 0 0 0 74.50067670909839,-10.192183356410865"/><text text-anchor="middle" pointer-events="none" font-size="8px" fill="#000000" x="55.481201539489916" y="-7.827086510166765" font-family="sans-serif">SIMILAR</text></g><g class="relationship" transform="translate(254.6716002613774 154.6440744802846) rotate(198.65002863096623)"><path class="outline" fill="#A5ABB6" stroke="none" d="M 24.018736134675446,6.953439040707552 L 24.277555179777966,5.987513214418485 A 220.0758896534608 220.0758896534608 0 0 0 59.987027518909855,12.45805545989586 L 59.890468285163145,13.453382699741269 A 221.0758896534608 221.0758896534608 0 0 1 24.018736134675446,6.953439040707552 Z M 97.93520764812887,13.8549237381863 L 97.85967783398075,12.857780194269594 A 220.0758896534608 220.0758896534608 0 0 0 133.69776598219536,7.1423826078792425 L 132.9826438585294,4.228862340531947 L 140.61516695995007,5.959351030549836 L 134.65126214708334,11.027076297675636 L 133.93614002341738,8.113556030328342 A 221.0758896534608 221.0758896534608 0 0 1 97.93520764812887,13.8549237381863"/><text text-anchor="middle" pointer-events="none" font-size="8px" fill="#000000" x="78.90946076173714" y="16.974132668713082" transform="rotate(180 78.90946076173714 13.974132668713082)" font-family="sans-serif">SIMILAR</text></g><g class="relationship" transform="translate(254.6716002613774 154.6440744802846) rotate(494.50332943182934)"><path class="outline" fill="#A5ABB6" stroke="none" d="M 24.018736134675446,6.953439040707552 L 24.277555179777966,5.987513214418485 A 25.444911717112294 25.444911717112294 0 0 0 30.243650409071634,6.846984251518492 L 30.219302416398875,7.846687795201721 A 26.444911717112294 26.444911717112294 0 0 1 24.018736134675446,6.953439040707552 Z M 30.219302416398875,7.846687795201721 L 30.243650409071634,6.846984251518492 A 25.444911717112294 25.444911717112294 0 0 0 36.244512322077064,6.278971003737135 L 35.6100440894356,3.346830137105928 L 43.19191904965679,5.287235272012243 L 37.09046996559902,10.188492159245413 L 36.45600173295755,7.256351292614205 A 26.444911717112294 26.444911717112294 0 0 1 30.219302416398875,7.846687795201721"/><text text-anchor="middle" pointer-events="none" font-size="8px" fill="#000000" x="30.231476412735255" y="10.346836023360108" transform="rotate(180 30.231476412735255 7.346836023360108)" font-family="sans-serif"/></g><g class="relationship" transform="translate(254.6716002613774 154.6440744802846) rotate(523.3182490563457)"><path class="outline" fill="#A5ABB6" stroke="none" d="M 24.018736134675446,6.953439040707552 L 24.277555179777966,5.987513214418485 A 126.15058924973417 126.15058924973417 0 0 0 36.249850460336205,8.579751897958147 L 36.08593620602192,9.566226488220153 A 127.15058924973417 127.15058924973417 0 0 1 24.018736134675446,6.953439040707552 Z M 74.09671686908955,10.121504434191777 L 73.96168810719483,9.130662754880092 A 126.15058924973417 126.15058924973417 0 0 0 86.00459548251241,6.889248552454113 L 85.31311559105264,3.970026813752723 L 92.93135952139228,5.7623324288315185 L 86.92656867112545,10.781544204055967 L 86.23508877966567,7.862322465354577 A 127.15058924973417 127.15058924973417 0 0 1 74.09671686908955,10.121504434191777"/><text text-anchor="middle" pointer-events="none" font-size="8px" fill="#000000" x="55.07776095682991" y="13.772478450929754" transform="rotate(180 55.07776095682991 10.772478450929754)" font-family="sans-serif">SIMILAR</text></g><g class="relationship" transform="translate(98.43578311827724 101.91299822221458) rotate(378.65002863096623)"><path class="outline" fill="#A5ABB6" stroke="none" d="M 24.018736134675446,6.953439040707552 L 24.277555179777966,5.987513214418485 A 220.0758896534608 220.0758896534608 0 0 0 59.987027518909855,12.45805545989586 L 59.890468285163145,13.453382699741269 A 221.0758896534608 221.0758896534608 0 0 1 24.018736134675446,6.953439040707552 Z M 97.93520764812887,13.8549237381863 L 97.85967783398075,12.857780194269594 A 220.0758896534608 220.0758896534608 0 0 0 133.69776598219536,7.1423826078792425 L 132.9826438585294,4.228862340531947 L 140.61516695995007,5.959351030549836 L 134.65126214708334,11.027076297675636 L 133.93614002341738,8.113556030328342 A 221.0758896534608 221.0758896534608 0 0 1 97.93520764812887,13.8549237381863"/><text text-anchor="middle" pointer-events="none" font-size="8px" fill="#000000" x="78.90946076173714" y="16.974132668713082" font-family="sans-serif">SIMILAR</text></g><g class="relationship" transform="translate(142.3483250746553 188.30367995678785) rotate(343.31824905634573)"><path class="outline" fill="#A5ABB6" stroke="none" d="M 24.018736134675446,6.953439040707552 L 24.277555179777966,5.987513214418485 A 126.15058924973417 126.15058924973417 0 0 0 36.249850460336205,8.579751897958147 L 36.08593620602192,9.566226488220153 A 127.15058924973417 127.15058924973417 0 0 1 24.018736134675446,6.953439040707552 Z M 74.09671686908955,10.121504434191777 L 73.96168810719483,9.130662754880092 A 126.15058924973417 126.15058924973417 0 0 0 86.00459548251241,6.889248552454113 L 85.31311559105264,3.970026813752723 L 92.93135952139228,5.7623324288315185 L 86.92656867112545,10.781544204055967 L 86.23508877966567,7.862322465354577 A 127.15058924973417 127.15058924973417 0 0 1 74.09671686908955,10.121504434191777"/><text text-anchor="middle" pointer-events="none" font-size="8px" fill="#000000" x="55.07776095682991" y="13.772478450929754" font-family="sans-serif">SIMILAR</text></g><g class="relationship" transform="translate(207.2688087666021 202.87589891984712) rotate(314.50332943182934)"><path class="outline" fill="#A5ABB6" stroke="none" d="M 24.018736134675446,6.953439040707552 L 24.277555179777966,5.987513214418485 A 25.444911717112294 25.444911717112294 0 0 0 30.243650409071634,6.846984251518492 L 30.219302416398875,7.846687795201721 A 26.444911717112294 26.444911717112294 0 0 1 24.018736134675446,6.953439040707552 Z M 30.219302416398875,7.846687795201721 L 30.243650409071634,6.846984251518492 A 25.444911717112294 25.444911717112294 0 0 0 36.244512322077064,6.278971003737135 L 35.6100440894356,3.346830137105928 L 43.19191904965679,5.287235272012243 L 37.09046996559902,10.188492159245413 L 36.45600173295755,7.256351292614205 A 26.444911717112294 26.444911717112294 0 0 1 30.219302416398875,7.846687795201721"/><text text-anchor="middle" pointer-events="none" font-size="8px" fill="#000000" x="30.231476412735255" y="10.346836023360108" font-family="sans-serif"/></g><g class="relationship" transform="translate(17.535066209430507 70.78240942348735) rotate(195.65798531455903)"><path class="outline" fill="#A5ABB6" stroke="none" d="M 24.018736134675446,6.953439040707552 L 24.277555179777966,5.987513214418485 A 47.16847435038907 47.16847435038907 0 0 0 24.931135764383313,6.157634158390145 L 24.686173020414266,7.127166650917935 A 48.16847435038907 48.16847435038907 0 0 1 24.018736134675446,6.953439040707552 Z M 46.280788109243204,7.588297862471492 L 46.077436569231736,6.609192070856018 A 47.16847435038907 47.16847435038907 0 0 0 46.737683579891325,6.467126589243147 L 46.08563605974177,3.5388448351308788 L 53.67901559284488,5.433729334579576 L 47.60708027342406,10.371502261392838 L 46.95503275327451,7.44322050728057 A 48.16847435038907 48.16847435038907 0 0 1 46.280788109243204,7.588297862471492"/><text text-anchor="middle" pointer-events="none" font-size="8px" fill="#000000" x="35.46797450923583" y="11.083875475122" transform="rotate(180 35.46797450923583 8.083875475122)" font-family="sans-serif">SI…</text></g><g class="relationship" transform="translate(17.535066209430507 70.78240942348735) rotate(505.24323593116105)"><path class="outline" fill="#A5ABB6" stroke="none" d="M 24.018736134675446,6.953439040707552 L 24.277555179777966,5.987513214418485 A 51.468635133153995 51.468635133153995 0 0 0 25.952328560497694,6.4062940390459175 L 25.72604920439969,7.380356487251305 A 52.468635133153995 52.468635133153995 0 0 1 24.018736134675446,6.953439040707552 Z M 47.331634104337624,7.83061678243331 L 47.146132501294844,6.847972820833505 A 51.468635133153995 51.468635133153995 0 0 0 48.83689899093432,6.499329832441145 L 48.18184290964196,3.571719624376913 L 55.77716548996626,5.458800677436342 L 49.71030709932414,10.402810109860122 L 49.055251018031775,7.4751999017958894 A 52.468635133153995 52.468635133153995 0 0 1 47.331634104337624,7.83061678243331"/><text text-anchor="middle" pointer-events="none" font-size="8px" fill="#000000" x="36.515827153396835" y="11.229982973262317" transform="rotate(180 36.515827153396835 8.229982973262317)" font-family="sans-serif">SI…</text></g><g class="relationship" transform="translate(17.535066209430507 70.78240942348735) rotate(454.6909723995284)"><path class="outline" fill="#A5ABB6" stroke="none" d="M 24.018736134675446,6.953439040707552 L 24.277555179777966,5.987513214418485 A 34.189896121334954 34.189896121334954 0 0 0 32.338391062579376,7.14341995848568 L 32.315338626834034,8.143154215779191 A 35.189896121334954 35.189896121334954 0 0 1 24.018736134675446,6.953439040707552 Z M 32.315338626834034,8.143154215779191 L 32.338391062579376,7.14341995848568 A 34.189896121334954 34.189896121334954 0 0 0 40.44393842018632,6.3602867871606525 L 39.801872681101145,3.4298002086735555 L 47.38875139317041,5.350547825709767 L 41.300026072299886,10.267602225143449 L 40.65796033321471,7.337115646656351 A 35.189896121334954 35.189896121334954 0 0 1 32.315338626834034,8.143154215779191"/><text text-anchor="middle" pointer-events="none" font-size="8px" fill="#000000" x="32.326864844706705" y="10.643287087132435" transform="rotate(180 32.326864844706705 7.643287087132435)" font-family="sans-serif"/></g><g class="relationship" transform="translate(17.535066209430507 70.78240942348735) rotate(247.5959925535788)"><path class="outline" fill="#A5ABB6" stroke="none" d="M 24.018736134675446,6.953439040707552 L 24.277555179777966,5.987513214418485 A 45.172114852317904 45.172114852317904 0 0 0 24.460355497509727,6.036084456237369 L 24.205583203778698,7.003085530873285 A 46.172114852317904 46.172114852317904 0 0 1 24.018736134675446,6.953439040707552 Z M 45.79338129838072,7.469397898968879 L 45.58060303343254,6.492297387268245 A 45.172114852317904 45.172114852317904 0 0 0 45.765330215144736,6.451665010629363 L 45.114727198036334,3.523061979467673 L 52.70717112404009,5.421691809236703 L 46.63280090462261,10.356469052178284 L 45.98219788751421,7.427866021016594 A 46.172114852317904 46.172114852317904 0 0 1 45.79338129838072,7.469397898968879"/><text text-anchor="middle" pointer-events="none" font-size="8px" fill="#000000" x="34.98263750758433" y="11.016064311132212" transform="rotate(180 34.98263750758433 8.016064311132212)" font-family="sans-serif">SI…</text></g><g class="relationship" transform="translate(17.535066209430507 70.78240942348735) rotate(381.04672067438605)"><path class="outline" fill="#A5ABB6" stroke="none" d="M 24.018736134675446,6.953439040707552 L 24.277555179777966,5.987513214418485 A 64.76629372301457 64.76629372301457 0 0 0 24.85219925956677,6.138666809187434 L 24.60225279380693,7.106926466642065 A 65.76629372301457 65.76629372301457 0 0 1 24.018736134675446,6.953439040707552 Z M 54.997692924690746,7.696240047474305 L 54.78546586036086,6.719019666410794 A 64.76629372301457 64.76629372301457 0 0 0 55.365537078269234,6.590253949691898 L 54.701986760095906,3.6645572847500127 L 62.302754349495856,5.52958598477777 L 56.250270835833675,10.491182836281078 L 55.586720517660346,7.5654861713391925 A 65.76629372301457 65.76629372301457 0 0 1 54.997692924690746,7.696240047474305"/><text text-anchor="middle" pointer-events="none" font-size="8px" fill="#000000" x="39.775145765198495" y="11.68210771021144" font-family="sans-serif">SIMI…</text></g><g class="relationship" transform="translate(-48.33419192840902 116.48905921741762) rotate(325.24323593116105)"><path class="outline" fill="#A5ABB6" stroke="none" d="M 24.018736134675446,6.953439040707552 L 24.277555179777966,5.987513214418485 A 51.468635133153995 51.468635133153995 0 0 0 25.952328560497694,6.4062940390459175 L 25.72604920439969,7.380356487251305 A 52.468635133153995 52.468635133153995 0 0 1 24.018736134675446,6.953439040707552 Z M 47.331634104337624,7.83061678243331 L 47.146132501294844,6.847972820833505 A 51.468635133153995 51.468635133153995 0 0 0 48.83689899093432,6.499329832441145 L 48.18184290964196,3.571719624376913 L 55.77716548996626,5.458800677436342 L 49.71030709932414,10.402810109860122 L 49.055251018031775,7.4751999017958894 A 52.468635133153995 52.468635133153995 0 0 1 47.331634104337624,7.83061678243331"/><text text-anchor="middle" pointer-events="none" font-size="8px" fill="#000000" x="36.515827153396835" y="11.229982973262317" font-family="sans-serif">SI…</text></g><g class="relationship" transform="translate(98.43578311827724 101.91299822221458) rotate(201.04672067438605)"><path class="outline" fill="#A5ABB6" stroke="none" d="M 24.018736134675446,6.953439040707552 L 24.277555179777966,5.987513214418485 A 64.76629372301457 64.76629372301457 0 0 0 24.85219925956677,6.138666809187434 L 24.60225279380693,7.106926466642065 A 65.76629372301457 65.76629372301457 0 0 1 24.018736134675446,6.953439040707552 Z M 54.997692924690746,7.696240047474305 L 54.78546586036086,6.719019666410794 A 64.76629372301457 64.76629372301457 0 0 0 55.365537078269234,6.590253949691898 L 54.701986760095906,3.6645572847500127 L 62.302754349495856,5.52958598477777 L 56.250270835833675,10.491182836281078 L 55.586720517660346,7.5654861713391925 A 65.76629372301457 65.76629372301457 0 0 1 54.997692924690746,7.696240047474305"/><text text-anchor="middle" pointer-events="none" font-size="8px" fill="#000000" x="39.775145765198495" y="11.68210771021144" transform="rotate(180 39.775145765198495 8.68210771021144)" font-family="sans-serif">SIMI…</text></g><g class="relationship" transform="translate(11.66238152075294 142.35134102045663) rotate(274.6909723995284)"><path class="outline" fill="#A5ABB6" stroke="none" d="M 24.018736134675446,6.953439040707552 L 24.277555179777966,5.987513214418485 A 34.189896121334954 34.189896121334954 0 0 0 32.338391062579376,7.14341995848568 L 32.315338626834034,8.143154215779191 A 35.189896121334954 35.189896121334954 0 0 1 24.018736134675446,6.953439040707552 Z M 32.315338626834034,8.143154215779191 L 32.338391062579376,7.14341995848568 A 34.189896121334954 34.189896121334954 0 0 0 40.44393842018632,6.3602867871606525 L 39.801872681101145,3.4298002086735555 L 47.38875139317041,5.350547825709767 L 41.300026072299886,10.267602225143449 L 40.65796033321471,7.337115646656351 A 35.189896121334954 35.189896121334954 0 0 1 32.315338626834034,8.143154215779191"/><text text-anchor="middle" pointer-events="none" font-size="8px" fill="#000000" x="32.326864844706705" y="10.643287087132435" font-family="sans-serif"/></g><g class="relationship" transform="translate(-57.648691485547914 49.70868379846373) rotate(375.657985314559)"><path class="outline" fill="#A5ABB6" stroke="none" d="M 24.018736134675446,6.953439040707552 L 24.277555179777966,5.987513214418485 A 47.16847435038907 47.16847435038907 0 0 0 24.931135764383313,6.157634158390145 L 24.686173020414266,7.127166650917935 A 48.16847435038907 48.16847435038907 0 0 1 24.018736134675446,6.953439040707552 Z M 46.280788109243204,7.588297862471492 L 46.077436569231736,6.609192070856018 A 47.16847435038907 47.16847435038907 0 0 0 46.737683579891325,6.467126589243147 L 46.08563605974177,3.5388448351308788 L 53.67901559284488,5.433729334579576 L 47.60708027342406,10.371502261392838 L 46.95503275327451,7.44322050728057 A 48.16847435038907 48.16847435038907 0 0 1 46.280788109243204,7.588297862471492"/><text text-anchor="middle" pointer-events="none" font-size="8px" fill="#000000" x="35.46797450923583" y="11.083875475122" font-family="sans-serif">SI…</text></g><g class="relationship" transform="translate(-11.855093925955423 -0.5093104206705847) rotate(427.5959925535788)"><path class="outline" fill="#A5ABB6" stroke="none" d="M 24.018736134675446,6.953439040707552 L 24.277555179777966,5.987513214418485 A 45.172114852317904 45.172114852317904 0 0 0 24.460355497509727,6.036084456237369 L 24.205583203778698,7.003085530873285 A 46.172114852317904 46.172114852317904 0 0 1 24.018736134675446,6.953439040707552 Z M 45.79338129838072,7.469397898968879 L 45.58060303343254,6.492297387268245 A 45.172114852317904 45.172114852317904 0 0 0 45.765330215144736,6.451665010629363 L 45.114727198036334,3.523061979467673 L 52.70717112404009,5.421691809236703 L 46.63280090462261,10.356469052178284 L 45.98219788751421,7.427866021016594 A 46.172114852317904 46.172114852317904 0 0 1 45.79338129838072,7.469397898968879"/><text text-anchor="middle" pointer-events="none" font-size="8px" fill="#000000" x="34.98263750758433" y="11.016064311132212" font-family="sans-serif">SI…</text></g><g class="relationship" transform="translate(142.3483250746553 188.30367995678785) rotate(243.05568577711193)"><path class="outline" fill="#A5ABB6" stroke="none" d="M 24.018736134675446,-6.953439040707552 L 24.277555179777966,-5.987513214418485 A 85.46178653242461 85.46178653242461 0 0 1 26.202780067694288,-6.479459772578608 L 25.96648834112829,-7.451141932524166 A 86.46178653242461 86.46178653242461 0 0 0 24.018736134675446,-6.953439040707552 Z M 63.87894844181608,-8.113685573301552 L 63.6767521192545,-7.134340564051712 A 85.46178653242461 85.46178653242461 0 0 1 65.61799033966483,-6.709962835187257 L 64.94325729381924,-3.7868249121935538 L 72.55110100095773,-5.622775382046518 L 66.51763440079228,-10.607480065845529 L 65.84290135494669,-7.6843421428518255 A 86.46178653242461 86.46178653242461 0 0 0 63.87894844181608,-8.113685573301552"/><text text-anchor="middle" pointer-events="none" font-size="8px" fill="#000000" x="44.89468722213249" y="-6.386429735799609" transform="rotate(180 44.89468722213249 -9.38642973579961)" font-family="sans-serif">SIMILAR</text></g><g class="relationship" transform="translate(207.2688087666021 202.87589891984712) rotate(192.6510716960447)"><path class="outline" fill="#A5ABB6" stroke="none" d="M 24.018736134675446,6.953439040707552 L 24.277555179777966,5.987513214418485 A 23.151248075898128 23.151248075898128 0 0 0 29.697470754351762,6.769303866930041 L 29.672760710924027,7.768998527190764 A 24.151248075898128 24.151248075898128 0 0 1 24.018736134675446,6.953439040707552 Z M 29.672760710924027,7.768998527190764 L 29.697470754351762,6.769303866930041 A 23.151248075898128 23.151248075898128 0 0 0 35.14939204190903,6.2562388280298045 L 34.51704778217008,3.323639172915729 L 42.09751528046504,5.269535497824597 L 35.99251772156097,10.166371701515239 L 35.36017346182202,7.233772046401164 A 24.151248075898128 24.151248075898128 0 0 1 29.672760710924027,7.768998527190764"/><text text-anchor="middle" pointer-events="none" font-size="8px" fill="#000000" x="29.685115732637893" y="10.269151197060403" transform="rotate(180 29.685115732637893 7.269151197060403)" font-family="sans-serif"/></g><g class="relationship" transform="translate(142.3483250746553 188.30367995678785) rotate(372.6510716960447)"><path class="outline" fill="#A5ABB6" stroke="none" d="M 24.018736134675446,6.953439040707552 L 24.277555179777966,5.987513214418485 A 23.151248075898128 23.151248075898128 0 0 0 29.697470754351762,6.769303866930041 L 29.672760710924027,7.768998527190764 A 24.151248075898128 24.151248075898128 0 0 1 24.018736134675446,6.953439040707552 Z M 29.672760710924027,7.768998527190764 L 29.697470754351762,6.769303866930041 A 23.151248075898128 23.151248075898128 0 0 0 35.14939204190903,6.2562388280298045 L 34.51704778217008,3.323639172915729 L 42.09751528046504,5.269535497824597 L 35.99251772156097,10.166371701515239 L 35.36017346182202,7.233772046401164 A 24.151248075898128 24.151248075898128 0 0 1 29.672760710924027,7.768998527190764"/><text text-anchor="middle" pointer-events="none" font-size="8px" fill="#000000" x="29.685115732637893" y="10.269151197060403" font-family="sans-serif"/></g><g class="relationship" transform="translate(98.43578311827724 101.91299822221458) rotate(423.05568577711193)"><path class="outline" fill="#A5ABB6" stroke="none" d="M 24.018736134675446,-6.953439040707552 L 24.277555179777966,-5.987513214418485 A 85.46178653242461 85.46178653242461 0 0 1 26.202780067694288,-6.479459772578608 L 25.96648834112829,-7.451141932524166 A 86.46178653242461 86.46178653242461 0 0 0 24.018736134675446,-6.953439040707552 Z M 63.87894844181608,-8.113685573301552 L 63.6767521192545,-7.134340564051712 A 85.46178653242461 85.46178653242461 0 0 1 65.61799033966483,-6.709962835187257 L 64.94325729381924,-3.7868249121935538 L 72.55110100095773,-5.622775382046518 L 66.51763440079228,-10.607480065845529 L 65.84290135494669,-7.6843421428518255 A 86.46178653242461 86.46178653242461 0 0 0 63.87894844181608,-8.113685573301552"/><text text-anchor="middle" pointer-events="none" font-size="8px" fill="#000000" x="44.89468722213249" y="-6.386429735799609" font-family="sans-serif">SIMILAR</text></g><g class="relationship" transform="translate(207.2688087666021 202.87589891984712) rotate(222.85165703723766)"><path class="outline" fill="#A5ABB6" stroke="none" d="M 24.018736134675446,-6.953439040707552 L 24.277555179777966,-5.987513214418485 A 187.7945786907498 187.7945786907498 0 0 1 51.78164810158056,-11.197247643913585 L 51.66928745327284,-12.190915135940912 A 188.7945786907498 188.7945786907498 0 0 0 24.018736134675446,-6.953439040707552 Z M 89.7107710324012,-12.63495398951602 L 89.62163498603188,-11.63893452924546 A 187.7945786907498 187.7945786907498 0 0 1 117.23983880913515,-7.072614581788729 L 116.53123256917176,-4.157502714864075 L 124.15986753861992,-5.905051999694925 L 118.18464712908634,-10.959430404354935 L 117.47604088912296,-8.04431853743028 A 188.7945786907498 188.7945786907498 0 0 0 89.7107710324012,-12.63495398951602"/><text text-anchor="middle" pointer-events="none" font-size="8px" fill="#000000" x="70.68465175252204" y="-9.873632332454434" transform="rotate(180 70.68465175252204 -12.873632332454434)" font-family="sans-serif">SIMILAR</text></g><g class="relationship" transform="translate(98.43578311827724 101.91299822221458) rotate(402.85165703723766)"><path class="outline" fill="#A5ABB6" stroke="none" d="M 24.018736134675446,-6.953439040707552 L 24.277555179777966,-5.987513214418485 A 187.7945786907498 187.7945786907498 0 0 1 51.78164810158056,-11.197247643913585 L 51.66928745327284,-12.190915135940912 A 188.7945786907498 188.7945786907498 0 0 0 24.018736134675446,-6.953439040707552 Z M 89.7107710324012,-12.63495398951602 L 89.62163498603188,-11.63893452924546 A 187.7945786907498 187.7945786907498 0 0 1 117.23983880913515,-7.072614581788729 L 116.53123256917176,-4.157502714864075 L 124.15986753861992,-5.905051999694925 L 118.18464712908634,-10.959430404354935 L 117.47604088912296,-8.04431853743028 A 188.7945786907498 188.7945786907498 0 0 0 89.7107710324012,-12.63495398951602"/><text text-anchor="middle" pointer-events="none" font-size="8px" fill="#000000" x="70.68465175252204" y="-9.873632332454434" font-family="sans-serif">SIMILAR</text></g><g class="relationship" transform="translate(11.66238152075294 142.35134102045663) rotate(260.6519072138775)"><path class="outline" fill="#A5ABB6" stroke="none" d="M 24.018736134675446,-6.953439040707552 L 24.277555179777966,-5.987513214418485 A 180.5749351369285 180.5749351369285 0 0 1 49.95172090654596,-10.907920104090465 L 49.83508198022515,-11.901094490020085 A 181.5749351369285 181.5749351369285 0 0 0 24.018736134675446,-6.953439040707552 Z M 87.87519898266206,-12.35586762347441 L 87.78233698324249,-11.360188634510706 A 180.5749351369285 180.5749351369285 0 0 1 113.56679586799137,-7.0549743836082515 L 112.85983714682075,-4.139462530337751 L 120.48748331248431,-5.891322676421872 L 114.50940749621887,-10.942323521302253 L 113.80244877504825,-8.026811668031751 A 181.5749351369285 181.5749351369285 0 0 0 87.87519898266206,-12.35586762347441"/><text text-anchor="middle" pointer-events="none" font-size="8px" fill="#000000" x="68.84917446862445" y="-9.627516309676167" transform="rotate(180 68.84917446862445 -12.627516309676167)" font-family="sans-serif">SIMILAR</text></g><g class="relationship" transform="translate(11.66238152075294 142.35134102045663) rotate(233.19781485055591)"><path class="outline" fill="#A5ABB6" stroke="none" d="M 24.018736134675446,-6.953439040707552 L 24.277555179777966,-5.987513214418485 A 123.05352460173937 123.05352460173937 0 0 1 35.47696267888488,-8.435554367210315 L 35.30915612233442,-9.421374309988238 A 124.05352460173937 124.05352460173937 0 0 0 24.018736134675446,-6.953439040707552 Z M 73.31632817395027,-9.983660354914406 L 73.1777575261961,-8.993307803758512 A 123.05352460173937 123.05352460173937 0 0 1 84.44468151503322,-6.877638253336895 L 83.75428607874679,-3.95815985102684 L 91.37186369313775,-5.7532953023869045 L 85.36520876341513,-10.770276123083635 L 84.67481332712869,-7.85079772077358 A 124.05352460173937 124.05352460173937 0 0 0 73.31632817395027,-9.983660354914406"/><text text-anchor="middle" pointer-events="none" font-size="8px" fill="#000000" x="54.29847425383569" y="-7.666941611909579" transform="rotate(180 54.29847425383569 -10.666941611909579)" font-family="sans-serif">SIMILAR</text></g><g class="relationship" transform="translate(-57.648691485547914 49.70868379846373) rotate(413.1978148505559)"><path class="outline" fill="#A5ABB6" stroke="none" d="M 24.018736134675446,-6.953439040707552 L 24.277555179777966,-5.987513214418485 A 123.05352460173937 123.05352460173937 0 0 1 35.47696267888488,-8.435554367210315 L 35.30915612233442,-9.421374309988238 A 124.05352460173937 124.05352460173937 0 0 0 24.018736134675446,-6.953439040707552 Z M 73.31632817395027,-9.983660354914406 L 73.1777575261961,-8.993307803758512 A 123.05352460173937 123.05352460173937 0 0 1 84.44468151503322,-6.877638253336895 L 83.75428607874679,-3.95815985102684 L 91.37186369313775,-5.7532953023869045 L 85.36520876341513,-10.770276123083635 L 84.67481332712869,-7.85079772077358 A 124.05352460173937 124.05352460173937 0 0 0 73.31632817395027,-9.983660354914406"/><text text-anchor="middle" pointer-events="none" font-size="8px" fill="#000000" x="54.29847425383569" y="-7.666941611909579" font-family="sans-serif">SIMILAR</text></g><g class="relationship" transform="translate(11.66238152075294 142.35134102045663) rotate(335.01342969270456)"><path class="outline" fill="#A5ABB6" stroke="none" d="M 24.018736134675446,-6.953439040707552 L 24.277555179777966,-5.987513214418485 A 83.08982696376488 83.08982696376488 0 0 1 25.62708000675753,-6.337010404345449 L 25.38450271923585,-7.307142487918938 A 84.08982696376488 84.08982696376488 0 0 0 24.018736134675446,-6.953439040707552 Z M 63.285216931083475,-7.977088048999491 L 63.07707722250312,-6.998988942716238 A 83.08982696376488 83.08982696376488 0 0 1 64.43811078414704,-6.697404479456047 L 63.76455085700906,-3.7739960193612436 L 71.37165717889125,-5.612999392816548 L 65.3361906869977,-10.595282426249119 L 64.66263075985971,-7.671873966154315 A 84.08982696376488 84.08982696376488 0 0 0 63.285216931083475,-7.977088048999491"/><text text-anchor="middle" pointer-events="none" font-size="8px" fill="#000000" x="44.30545420122484" y="-6.3056745391217675" font-family="sans-serif">SIMILAR</text></g><g class="relationship" transform="translate(-11.855093925955423 -0.5093104206705847) rotate(440.6519072138775)"><path class="outline" fill="#A5ABB6" stroke="none" d="M 24.018736134675446,-6.953439040707552 L 24.277555179777966,-5.987513214418485 A 180.5749351369285 180.5749351369285 0 0 1 49.95172090654596,-10.907920104090465 L 49.83508198022515,-11.901094490020085 A 181.5749351369285 181.5749351369285 0 0 0 24.018736134675446,-6.953439040707552 Z M 87.87519898266206,-12.35586762347441 L 87.78233698324249,-11.360188634510706 A 180.5749351369285 180.5749351369285 0 0 1 113.56679586799137,-7.0549743836082515 L 112.85983714682075,-4.139462530337751 L 120.48748331248431,-5.891322676421872 L 114.50940749621887,-10.942323521302253 L 113.80244877504825,-8.026811668031751 A 181.5749351369285 181.5749351369285 0 0 0 87.87519898266206,-12.35586762347441"/><text text-anchor="middle" pointer-events="none" font-size="8px" fill="#000000" x="68.84917446862445" y="-9.627516309676167" font-family="sans-serif">SIMILAR</text></g><g class="relationship" transform="translate(98.43578311827724 101.91299822221458) rotate(515.0134296927046)"><path class="outline" fill="#A5ABB6" stroke="none" d="M 24.018736134675446,-6.953439040707552 L 24.277555179777966,-5.987513214418485 A 83.08982696376488 83.08982696376488 0 0 1 25.62708000675753,-6.337010404345449 L 25.38450271923585,-7.307142487918938 A 84.08982696376488 84.08982696376488 0 0 0 24.018736134675446,-6.953439040707552 Z M 63.285216931083475,-7.977088048999491 L 63.07707722250312,-6.998988942716238 A 83.08982696376488 83.08982696376488 0 0 1 64.43811078414704,-6.697404479456047 L 63.76455085700906,-3.7739960193612436 L 71.37165717889125,-5.612999392816548 L 65.3361906869977,-10.595282426249119 L 64.66263075985971,-7.671873966154315 A 84.08982696376488 84.08982696376488 0 0 0 63.285216931083475,-7.977088048999491"/><text text-anchor="middle" pointer-events="none" font-size="8px" fill="#000000" x="44.30545420122484" y="-6.3056745391217675" transform="rotate(180 44.30545420122484 -9.305674539121767)" font-family="sans-serif">SIMILAR</text></g><g class="relationship" transform="translate(-48.33419192840902 116.48905921741762) rotate(383.3190692634013)"><path class="outline" fill="#A5ABB6" stroke="none" d="M 24.018736134675446,6.953439040707552 L 24.277555179777966,5.987513214418485 A 20.6149761116002 20.6149761116002 0 0 0 29.09521554942157,6.683445290020824 L 29.070093615757013,7.683129684441862 A 21.6149761116002 21.6149761116002 0 0 1 24.018736134675446,6.953439040707552 Z M 29.070093615757013,7.683129684441862 L 29.09521554942157,6.683445290020824 A 20.6149761116002 20.6149761116002 0 0 0 33.9417502401599,6.230373129590869 L 33.311822763416835,3.2972533955799785 L 40.89068419897582,5.249395639525534 L 34.78165354248399,10.141199441605389 L 34.151726065740924,7.208079707594499 A 21.6149761116002 21.6149761116002 0 0 1 29.070093615757013,7.683129684441862"/><text text-anchor="middle" pointer-events="none" font-size="8px" fill="#000000" x="29.082654582589292" y="10.183287487231343" font-family="sans-serif"/></g><g class="relationship" transform="translate(11.66238152075294 142.35134102045663) rotate(203.31906926340127)"><path class="outline" fill="#A5ABB6" stroke="none" d="M 24.018736134675446,6.953439040707552 L 24.277555179777966,5.987513214418485 A 20.6149761116002 20.6149761116002 0 0 0 29.09521554942157,6.683445290020824 L 29.070093615757013,7.683129684441862 A 21.6149761116002 21.6149761116002 0 0 1 24.018736134675446,6.953439040707552 Z M 29.070093615757013,7.683129684441862 L 29.09521554942157,6.683445290020824 A 20.6149761116002 20.6149761116002 0 0 0 33.9417502401599,6.230373129590869 L 33.311822763416835,3.2972533955799785 L 40.89068419897582,5.249395639525534 L 34.78165354248399,10.141199441605389 L 34.151726065740924,7.208079707594499 A 21.6149761116002 21.6149761116002 0 0 1 29.070093615757013,7.683129684441862"/><text text-anchor="middle" pointer-events="none" font-size="8px" fill="#000000" x="29.082654582589292" y="10.183287487231343" transform="rotate(180 29.082654582589292 7.183287487231343)" font-family="sans-serif"/></g><g class="relationship" transform="translate(-57.648691485547914 49.70868379846373) rotate(312.36156811553604)"><path class="outline" fill="#A5ABB6" stroke="none" d="M 24.018736134675446,6.953439040707552 L 24.277555179777966,5.987513214418485 A 26.150505808780782 26.150505808780782 0 0 0 30.411953692947787,6.870887154653676 L 30.38771513963484,7.870593357762015 A 27.150505808780782 27.150505808780782 0 0 1 24.018736134675446,6.953439040707552 Z M 30.38771513963484,7.870593357762015 L 30.411953692947787,6.870887154653676 A 26.150505808780782 26.150505808780782 0 0 0 36.58195502756291,6.285841714098776 L 35.94684483743235,3.353839830335344 L 43.52914445469935,5.2925849177546995 L 37.428768614403666,10.195177559116686 L 36.793658424273104,7.263175675353255 A 27.150505808780782 27.150505808780782 0 0 1 30.38771513963484,7.870593357762015"/><text text-anchor="middle" pointer-events="none" font-size="8px" fill="#000000" x="30.399834416291313" y="10.370740256207846" font-family="sans-serif"/></g><g class="relationship" transform="translate(-11.855093925955423 -0.5093104206705847) rotate(467.3170350644728)"><path class="outline" fill="#A5ABB6" stroke="none" d="M 24.018736134675446,-6.953439040707552 L 24.277555179777966,-5.987513214418485 A 136.66420161876158 136.66420161876158 0 0 1 38.8804276930907,-9.05695942394317 L 38.72846086195749,-10.045345017846358 A 137.66420161876158 137.66420161876158 0 0 0 24.018736134675446,-6.953439040707552 Z M 76.74916664186391,-10.578024344479388 L 76.62494906679107,-9.585769339935183 A 136.66420161876158 136.66420161876158 0 0 1 91.30808049540475,-6.92662716184705 L 90.61310931543305,-4.008234614740212 L 98.23349163531599,-5.791426499764213 L 92.23470873536702,-10.817817224656167 L 91.53973755539532,-7.899424677549329 A 137.66420161876158 137.66420161876158 0 0 0 76.74916664186391,-10.578024344479388"/><text text-anchor="middle" pointer-events="none" font-size="8px" fill="#000000" x="57.72733812310489" y="-8.130773173338468" transform="rotate(180 57.72733812310489 -11.130773173338468)" font-family="sans-serif">SIMILAR</text></g><g class="relationship" transform="translate(-11.855093925955423 -0.5093104206705847) rotate(492.36156811553604)"><path class="outline" fill="#A5ABB6" stroke="none" d="M 24.018736134675446,6.953439040707552 L 24.277555179777966,5.987513214418485 A 26.150505808780782 26.150505808780782 0 0 0 30.411953692947787,6.870887154653676 L 30.38771513963484,7.870593357762015 A 27.150505808780782 27.150505808780782 0 0 1 24.018736134675446,6.953439040707552 Z M 30.38771513963484,7.870593357762015 L 30.411953692947787,6.870887154653676 A 26.150505808780782 26.150505808780782 0 0 0 36.58195502756291,6.285841714098776 L 35.94684483743235,3.353839830335344 L 43.52914445469935,5.2925849177546995 L 37.428768614403666,10.195177559116686 L 36.793658424273104,7.263175675353255 A 27.150505808780782 27.150505808780782 0 0 1 30.38771513963484,7.870593357762015"/><text text-anchor="middle" pointer-events="none" font-size="8px" fill="#000000" x="30.399834416291313" y="10.370740256207846" transform="rotate(180 30.399834416291313 7.370740256207846)" font-family="sans-serif"/></g><g class="relationship" transform="translate(-48.33419192840902 116.48905921741762) rotate(287.3170350644728)"><path class="outline" fill="#A5ABB6" stroke="none" d="M 24.018736134675446,-6.953439040707552 L 24.277555179777966,-5.987513214418485 A 136.66420161876158 136.66420161876158 0 0 1 38.8804276930907,-9.05695942394317 L 38.72846086195749,-10.045345017846358 A 137.66420161876158 137.66420161876158 0 0 0 24.018736134675446,-6.953439040707552 Z M 76.74916664186391,-10.578024344479388 L 76.62494906679107,-9.585769339935183 A 136.66420161876158 136.66420161876158 0 0 1 91.30808049540475,-6.92662716184705 L 90.61310931543305,-4.008234614740212 L 98.23349163531599,-5.791426499764213 L 92.23470873536702,-10.817817224656167 L 91.53973755539532,-7.899424677549329 A 137.66420161876158 137.66420161876158 0 0 0 76.74916664186391,-10.578024344479388"/><text text-anchor="middle" pointer-events="none" font-size="8px" fill="#000000" x="57.72733812310489" y="-8.130773173338468" font-family="sans-serif">SIMILAR</text></g><g class="relationship" transform="translate(98.43578311827724 101.91299822221458) rotate(222.88151218203222)"><path class="outline" fill="#A5ABB6" stroke="none" d="M 24.018736134675446,6.953439040707552 L 24.277555179777966,5.987513214418485 A 191.84789822677618 191.84789822677618 0 0 0 52.809946790064,11.358341220248747 L 52.69985176995215,12.352262286806138 A 192.84789822677618 192.84789822677618 0 0 1 24.018736134675446,6.953439040707552 Z M 90.74197471569252,12.79048866930151 L 90.654804827576,11.79429520887038 A 191.84789822677618 191.84789822677618 0 0 0 119.30334713485728,7.082163192592148 L 118.59384910203337,4.167268247415048 L 126.22301834574117,5.912483606865885 L 120.24934451195583,10.968689786161613 L 119.53984647913192,8.053794840984514 A 192.84789822677618 192.84789822677618 0 0 1 90.74197471569252,12.79048866930151"/><text text-anchor="middle" pointer-events="none" font-size="8px" fill="#000000" x="71.71583964515092" y="16.011810910749404" transform="rotate(180 71.71583964515092 13.011810910749404)" font-family="sans-serif">SIMILAR</text></g><g class="relationship" transform="translate(-11.855093925955423 -0.5093104206705847) rotate(402.8815121820322)"><path class="outline" fill="#A5ABB6" stroke="none" d="M 24.018736134675446,6.953439040707552 L 24.277555179777966,5.987513214418485 A 191.84789822677618 191.84789822677618 0 0 0 52.809946790064,11.358341220248747 L 52.69985176995215,12.352262286806138 A 192.84789822677618 192.84789822677618 0 0 1 24.018736134675446,6.953439040707552 Z M 90.74197471569252,12.79048866930151 L 90.654804827576,11.79429520887038 A 191.84789822677618 191.84789822677618 0 0 0 119.30334713485728,7.082163192592148 L 118.59384910203337,4.167268247415048 L 126.22301834574117,5.912483606865885 L 120.24934451195583,10.968689786161613 L 119.53984647913192,8.053794840984514 A 192.84789822677618 192.84789822677618 0 0 1 90.74197471569252,12.79048866930151"/><text text-anchor="middle" pointer-events="none" font-size="8px" fill="#000000" x="71.71583964515092" y="16.011810910749404" font-family="sans-serif">SIMILAR</text></g><g class="relationship" transform="translate(-48.33419192840902 116.48905921741762) rotate(262.0596356588508)"><path class="outline" fill="#A5ABB6" stroke="none" d="M 24.018736134675446,6.953439040707552 L 24.277555179777966,5.987513214418485 A 25.025597148682653 25.025597148682653 0 0 0 30.143694997013927,6.832780808101237 L 30.11928154001322,7.832482755242122 A 26.025597148682653 26.025597148682653 0 0 1 24.018736134675446,6.953439040707552 Z M 30.11928154001322,7.832482755242122 L 30.143694997013927,6.832780808101237 A 25.025597148682653 25.025597148682653 0 0 0 36.04410168443941,6.274860936366976 L 35.410017472650985,3.3426370001096086 L 42.99163823767134,5.284035098236879 L 36.88954730015731,10.1844928513768 L 36.255463088368884,7.252268915119433 A 26.025597148682653 26.025597148682653 0 0 1 30.11928154001322,7.832482755242122"/><text text-anchor="middle" pointer-events="none" font-size="8px" fill="#000000" x="30.13148826851357" y="10.33263178167168" transform="rotate(180 30.13148826851357 7.3326317816716795)" font-family="sans-serif"/></g><g class="relationship" transform="translate(98.43578311827724 101.91299822221458) rotate(198.49312648388843)"><path class="outline" fill="#A5ABB6" stroke="none" d="M 24.018736134675446,6.953439040707552 L 24.277555179777966,5.987513214418485 A 219.4658001649079 219.4658001649079 0 0 0 59.83164970745388,12.434640586880732 L 59.73483355528939,13.42994286894384 A 220.4658001649079 220.4658001649079 0 0 1 24.018736134675446,6.953439040707552 Z M 97.7795422869303,13.8322129407685 L 97.70379331242577,12.835086021634595 A 219.4658001649079 219.4658001649079 0 0 0 133.38626237332932,7.141186588265196 L 132.6712519481573,4.2276389068473454 L 140.30370870083297,5.958420209766798 L 134.339609606892,11.025916830155662 L 133.62459918172,8.112369148737812 A 220.4658001649079 220.4658001649079 0 0 1 97.7795422869303,13.8322129407685"/><text text-anchor="middle" pointer-events="none" font-size="8px" fill="#000000" x="78.75378051149293" y="16.953333810737206" transform="rotate(180 78.75378051149293 13.953333810737206)" font-family="sans-serif">SIMILAR</text></g><g class="relationship" transform="translate(-57.648691485547914 49.70868379846373) rotate(442.0596356588508)"><path class="outline" fill="#A5ABB6" stroke="none" d="M 24.018736134675446,6.953439040707552 L 24.277555179777966,5.987513214418485 A 25.025597148682653 25.025597148682653 0 0 0 30.143694997013927,6.832780808101237 L 30.11928154001322,7.832482755242122 A 26.025597148682653 26.025597148682653 0 0 1 24.018736134675446,6.953439040707552 Z M 30.11928154001322,7.832482755242122 L 30.143694997013927,6.832780808101237 A 25.025597148682653 25.025597148682653 0 0 0 36.04410168443941,6.274860936366976 L 35.410017472650985,3.3426370001096086 L 42.99163823767134,5.284035098236879 L 36.88954730015731,10.1844928513768 L 36.255463088368884,7.252268915119433 A 26.025597148682653 26.025597148682653 0 0 1 30.11928154001322,7.832482755242122"/><text text-anchor="middle" pointer-events="none" font-size="8px" fill="#000000" x="30.13148826851357" y="10.33263178167168" font-family="sans-serif"/></g><g class="relationship" transform="translate(-57.648691485547914 49.70868379846373) rotate(378.49312648388843)"><path class="outline" fill="#A5ABB6" stroke="none" d="M 24.018736134675446,6.953439040707552 L 24.277555179777966,5.987513214418485 A 219.4658001649079 219.4658001649079 0 0 0 59.83164970745388,12.434640586880732 L 59.73483355528939,13.42994286894384 A 220.4658001649079 220.4658001649079 0 0 1 24.018736134675446,6.953439040707552 Z M 97.7795422869303,13.8322129407685 L 97.70379331242577,12.835086021634595 A 219.4658001649079 219.4658001649079 0 0 0 133.38626237332932,7.141186588265196 L 132.6712519481573,4.2276389068473454 L 140.30370870083297,5.958420209766798 L 134.339609606892,11.025916830155662 L 133.62459918172,8.112369148737812 A 220.4658001649079 220.4658001649079 0 0 1 97.7795422869303,13.8322129407685"/><text text-anchor="middle" pointer-events="none" font-size="8px" fill="#000000" x="78.75378051149293" y="16.953333810737206" font-family="sans-serif">SIMILAR</text></g><g class="relationship" transform="translate(98.43578311827724 101.91299822221458) rotate(534.3284227801355)"><path class="outline" fill="#A5ABB6" stroke="none" d="M 24.018736134675446,-6.953439040707552 L 24.277555179777966,-5.987513214418485 A 185.90526829495005 185.90526829495005 0 0 1 51.30256540699902,-11.121838577261826 L 51.18911615413038,-12.115382369464044 A 186.90526829495005 186.90526829495005 0 0 0 24.018736134675446,-6.953439040707552 Z M 89.23027179279393,-12.562182228589876 L 89.14018929941648,-11.566247921325129 A 185.90526829495005 185.90526829495005 0 0 1 116.27833482544513,-7.068078057810702 L 115.57015227588316,-4.152863232708459 L 123.19853317561069,-5.901521246349801 L 117.2225782248611,-10.955031157947026 L 116.51439567529913,-8.039816332844783 A 186.90526829495005 186.90526829495005 0 0 0 89.23027179279393,-12.562182228589876"/><text text-anchor="middle" pointer-events="none" font-size="8px" fill="#000000" x="70.20416853506896" y="-9.809225737166486" transform="rotate(180 70.20416853506896 -12.809225737166486)" font-family="sans-serif">SIMILAR</text></g><g class="relationship" transform="translate(-48.33419192840902 116.48905921741762) rotate(354.3284227801355)"><path class="outline" fill="#A5ABB6" stroke="none" d="M 24.018736134675446,-6.953439040707552 L 24.277555179777966,-5.987513214418485 A 185.90526829495005 185.90526829495005 0 0 1 51.30256540699902,-11.121838577261826 L 51.18911615413038,-12.115382369464044 A 186.90526829495005 186.90526829495005 0 0 0 24.018736134675446,-6.953439040707552 Z M 89.23027179279393,-12.562182228589876 L 89.14018929941648,-11.566247921325129 A 185.90526829495005 185.90526829495005 0 0 1 116.27833482544513,-7.068078057810702 L 115.57015227588316,-4.152863232708459 L 123.19853317561069,-5.901521246349801 L 117.2225782248611,-10.955031157947026 L 116.51439567529913,-8.039816332844783 A 186.90526829495005 186.90526829495005 0 0 0 89.23027179279393,-12.562182228589876"/><text text-anchor="middle" pointer-events="none" font-size="8px" fill="#000000" x="70.20416853506896" y="-9.809225737166486" font-family="sans-serif">SIMILAR</text></g></g><g class="layer nodes"><g class="node" transform="translate(180.63196124195272,128.96709439208647)"><circle class="outline" cx="0" cy="0" r="25" fill="#FFC454" stroke="#d7a013" stroke-width="2px"/><text text-anchor="middle" pointer-events="none" font-family="sans-serif" dy="1.5625" font-size="25" fill="#604A0E"/><text text-anchor="middle" pointer-events="none" font-family="sans-serif" dy="1.5625" font-size="25" fill="#604A0E"/><text text-anchor="middle" pointer-events="none" y="0" font-size="10px" fill="#604A0E" font-family="sans-serif"> Arianna</text><text text-anchor="middle" pointer-events="none" y="10" font-size="10px" fill="#604A0E" font-family="sans-serif"> Wallace</text></g><g class="node" transform="translate(142.3483250746553,188.30367995678785)"><circle class="outline" cx="0" cy="0" r="25" fill="#FFC454" stroke="#d7a013" stroke-width="2px"/><text text-anchor="middle" pointer-events="none" font-family="sans-serif" dy="1.5625" font-size="25" fill="#604A0E"/><text text-anchor="middle" pointer-events="none" font-family="sans-serif" dy="1.5625" font-size="25" fill="#604A0E"/><text text-anchor="middle" pointer-events="none" y="0" font-size="10px" fill="#604A0E" font-family="sans-serif"> Adrian</text><text text-anchor="middle" pointer-events="none" y="10" font-size="10px" fill="#604A0E" font-family="sans-serif"> Wallace</text></g><g class="node" transform="translate(207.2688087666021,202.87589891984712)"><circle class="outline" cx="0" cy="0" r="25" fill="#FFC454" stroke="#d7a013" stroke-width="2px"/><text text-anchor="middle" pointer-events="none" font-family="sans-serif" dy="1.5625" font-size="25" fill="#604A0E"/><text text-anchor="middle" pointer-events="none" font-family="sans-serif" dy="1.5625" font-size="25" fill="#604A0E"/><text text-anchor="middle" pointer-events="none" y="0" font-size="10px" fill="#604A0E" font-family="sans-serif"> Natalie</text><text text-anchor="middle" pointer-events="none" y="10" font-size="10px" fill="#604A0E" font-family="sans-serif"> Wallace</text></g><g class="node" transform="translate(254.6716002613774,154.6440744802846)"><circle class="outline" cx="0" cy="0" r="25" fill="#FFC454" stroke="#d7a013" stroke-width="2px"/><text text-anchor="middle" pointer-events="none" font-family="sans-serif" dy="1.5625" font-size="25" fill="#604A0E"/><text text-anchor="middle" pointer-events="none" font-family="sans-serif" dy="1.5625" font-size="25" fill="#604A0E"/><text text-anchor="middle" pointer-events="none" y="0" font-size="10px" fill="#604A0E" font-family="sans-serif"> Ryan</text><text text-anchor="middle" pointer-events="none" y="10" font-size="10px" fill="#604A0E" font-family="sans-serif"> Wallace</text></g><g class="node" transform="translate(246.92355112715785,87.75701453627842)"><circle class="outline" cx="0" cy="0" r="25" fill="#FFC454" stroke="#d7a013" stroke-width="2px"/><text text-anchor="middle" pointer-events="none" font-family="sans-serif" dy="1.5625" font-size="25" fill="#604A0E"/><text text-anchor="middle" pointer-events="none" font-family="sans-serif" dy="1.5625" font-size="25" fill="#604A0E"/><text text-anchor="middle" pointer-events="none" y="0" font-size="10px" fill="#604A0E" font-family="sans-serif"> James</text><text text-anchor="middle" pointer-events="none" y="10" font-size="10px" fill="#604A0E" font-family="sans-serif"> Wallace</text></g><g class="node" transform="translate(188.37191222826422,58.3959188680371)"><circle class="outline" cx="0" cy="0" r="25" fill="#FFC454" stroke="#d7a013" stroke-width="2px"/><text text-anchor="middle" pointer-events="none" font-family="sans-serif" dy="1.5625" font-size="25" fill="#604A0E"/><text text-anchor="middle" pointer-events="none" y="5" font-size="10px" fill="#604A0E" font-family="sans-serif"> Sebastian</text></g><g class="node" transform="translate(98.43578311827724,101.91299822221458)"><circle class="outline" cx="0" cy="0" r="25" fill="#FFE081" stroke="#9AA1AC" stroke-width="2px"/><text text-anchor="middle" pointer-events="none" font-family="sans-serif" dy="1.5625" font-size="25" fill="#FFFFFF"/><text text-anchor="middle" pointer-events="none" font-family="sans-serif" dy="1.5625" font-size="25" fill="#FFFFFF"/><text text-anchor="middle" pointer-events="none" y="0" font-size="10px" fill="#FFFFFF" font-family="sans-serif"> Hunter</text><text text-anchor="middle" pointer-events="none" y="10" font-size="10px" fill="#FFFFFF" font-family="sans-serif"> Wallace</text></g><g class="node" transform="translate(53.97790810820194,11.25453845512604)"><circle class="outline" cx="0" cy="0" r="25" fill="#FFC454" stroke="#d7a013" stroke-width="2px"/><text text-anchor="middle" pointer-events="none" font-family="sans-serif" dy="1.5625" font-size="25" fill="#604A0E"/><text text-anchor="middle" pointer-events="none" font-family="sans-serif" dy="1.5625" font-size="25" fill="#604A0E"/><text text-anchor="middle" pointer-events="none" y="0" font-size="10px" fill="#604A0E" font-family="sans-serif"> Serenity</text><text text-anchor="middle" pointer-events="none" y="10" font-size="10px" fill="#604A0E" font-family="sans-serif"> Dodson</text></g><g class="node" transform="translate(-11.855093925955423,-0.5093104206705847)"><circle class="outline" cx="0" cy="0" r="25" fill="#FFC454" stroke="#d7a013" stroke-width="2px"/><text text-anchor="middle" pointer-events="none" font-family="sans-serif" dy="1.5625" font-size="25" fill="#604A0E"/><text text-anchor="middle" pointer-events="none" font-family="sans-serif" dy="1.5625" font-size="25" fill="#604A0E"/><text text-anchor="middle" pointer-events="none" y="0" font-size="10px" fill="#604A0E" font-family="sans-serif"> Jacob</text><text text-anchor="middle" pointer-events="none" y="10" font-size="10px" fill="#604A0E" font-family="sans-serif"> Dodson</text></g><g class="node" transform="translate(-57.648691485547914,49.70868379846373)"><circle class="outline" cx="0" cy="0" r="25" fill="#FFE081" stroke="#9AA1AC" stroke-width="2px"/><text text-anchor="middle" pointer-events="none" font-family="sans-serif" dy="1.5625" font-size="25" fill="#FFFFFF"/><text text-anchor="middle" pointer-events="none" font-family="sans-serif" dy="1.5625" font-size="25" fill="#FFFFFF"/><text text-anchor="middle" pointer-events="none" y="0" font-size="10px" fill="#FFFFFF" font-family="sans-serif"> Sydney</text><text text-anchor="middle" pointer-events="none" y="10" font-size="10px" fill="#FFFFFF" font-family="sans-serif"> Dodson</text></g><g class="node" transform="translate(-48.33419192840902,116.48905921741762)"><circle class="outline" cx="0" cy="0" r="25" fill="#FFE081" stroke="#9AA1AC" stroke-width="2px"/><text text-anchor="middle" pointer-events="none" font-family="sans-serif" dy="1.5625" font-size="25" fill="#FFFFFF"/><text text-anchor="middle" pointer-events="none" font-family="sans-serif" dy="1.5625" font-size="25" fill="#FFFFFF"/><text text-anchor="middle" pointer-events="none" y="0" font-size="10px" fill="#FFFFFF" font-family="sans-serif"> Blake</text><text text-anchor="middle" pointer-events="none" y="10" font-size="10px" fill="#FFFFFF" font-family="sans-serif"> Riddle</text></g><g class="node" transform="translate(17.535066209430507,70.78240942348735)"><circle class="outline" cx="0" cy="0" r="25" fill="#FFC454" stroke="#d7a013" stroke-width="2px"/><text text-anchor="middle" pointer-events="none" font-family="sans-serif" dy="1.5625" font-size="25" fill="#604A0E"/><text text-anchor="middle" pointer-events="none" font-family="sans-serif" dy="1.5625" font-size="25" fill="#604A0E"/><text text-anchor="middle" pointer-events="none" y="0" font-size="10px" fill="#604A0E" font-family="sans-serif"> Leah</text><text text-anchor="middle" pointer-events="none" y="10" font-size="10px" fill="#604A0E" font-family="sans-serif"> Dodson</text></g><g class="node" transform="translate(11.66238152075294,142.35134102045663)"><circle class="outline" cx="0" cy="0" r="25" fill="#FFE081" stroke="#9AA1AC" stroke-width="2px"/><text text-anchor="middle" pointer-events="none" font-family="sans-serif" dy="1.5625" font-size="25" fill="#FFFFFF"/><text text-anchor="middle" pointer-events="none" font-family="sans-serif" dy="1.5625" font-size="25" fill="#FFFFFF"/><text text-anchor="middle" pointer-events="none" y="0" font-size="10px" fill="#FFFFFF" font-family="sans-serif"> Liam</text><text text-anchor="middle" pointer-events="none" y="10" font-size="10px" fill="#FFFFFF" font-family="sans-serif"> Dodson</text></g></g></svg>