<svg xmlns="http://www.w3.org/2000/svg" width="465.6001281738281" height="300.2000427246094" viewBox="-167.02981567382812 -41.55767059326172 465.6001281738281 300.2000427246094"><title>Neo4j Graph Visualization</title><desc>Created using Neo4j (http://www.neo4j.com/)</desc><g class="layer relationships"><g class="relationship" transform="translate(133.96725019052013 35.979357482725504) rotate(411.6013862950448)"><path class="outline" fill="#A5ABB6" stroke="none" d="M 24.018736134675446,6.953439040707552 L 24.277555179777966,5.987513214418485 A 170.82447706200782 170.82447706200782 0 0 0 47.48397426851213,10.511734236527559 L 47.36100471926558,11.504144680828745 A 171.82447706200782 171.82447706200782 0 0 1 24.018736134675446,6.953439040707552 Z M 85.3987150362622,11.97424309019388 L 85.30030919727888,10.97909672364571 A 170.82447706200782 170.82447706200782 0 0 0 108.61145065763122,7.029774428074917 L 107.90684553075651,4.1136928765434995 L 115.53307513235032,5.871709390622513 L 109.55092416013083,10.91788316345014 L 108.84631903325612,8.001801611918722 A 171.82447706200782 171.82447706200782 0 0 1 85.3987150362622,11.97424309019388"/><text text-anchor="middle" pointer-events="none" font-size="8px" fill="#000000" x="66.37298915882744" y="15.295133687408452" font-family="sans-serif">SIMILAR</text></g><g class="relationship" transform="translate(133.96725019052013 35.979357482725504) rotate(387.050798627285)"><path class="outline" fill="#A5ABB6" stroke="none" d="M 24.018736134675446,6.953439040707552 L 24.277555179777966,5.987513214418485 A 173.77541003931992 173.77541003931992 0 0 0 48.23035682321907,10.632348124653788 L 48.10937547125173,11.625002904764244 A 174.77541003931992 174.77541003931992 0 0 1 24.018736134675446,6.953439040707552 Z M 86.14789128374196,12.090358249308252 L 86.05123037239585,11.095040878708431 A 173.77541003931992 173.77541003931992 0 0 0 110.11049415792968,7.037575658713115 L 109.40516041801392,4.121670256383257 L 117.03182905335197,5.877781165964658 L 111.05093914448402,10.925449528486258 L 110.34560540456826,8.0095441261564 A 174.77541003931992 174.77541003931992 0 0 1 86.14789128374196,12.090358249308252"/><text text-anchor="middle" pointer-events="none" font-size="8px" fill="#000000" x="67.12205103285689" y="15.395726660756935" font-family="sans-serif">SIMILAR</text></g><g class="relationship" transform="translate(133.96725019052013 35.979357482725504) rotate(383.7110556892524)"><path class="outline" fill="#A5ABB6" stroke="none" d="M 24.018736134675446,6.953439040707552 L 24.277555179777966,5.987513214418485 A 29.180282325366722 29.180282325366722 0 0 0 31.13609970021111,6.973556424534898 L 31.112321030796487,7.973273672000836 A 30.180282325366722 30.180282325366722 0 0 1 24.018736134675446,6.953439040707552 Z M 31.112321030796487,7.973273672000836 L 31.13609970021111,6.973556424534898 A 29.180282325366722 29.180282325366722 0 0 0 38.03376856570126,6.31471018069071 L 37.39596110625215,3.3832938600922393 L 44.98004122367254,5.3150621620758765 L 38.8841785116334,10.223265274822005 L 38.246371052184294,7.291848954223534 A 30.180282325366722 30.180282325366722 0 0 1 31.112321030796487,7.973273672000836"/><text text-anchor="middle" pointer-events="none" font-size="8px" fill="#000000" x="31.1242103655038" y="10.473415048267867" font-family="sans-serif"/></g><g class="relationship" transform="translate(133.96725019052013 35.979357482725504) rotate(362.2657148317845)"><path class="outline" fill="#A5ABB6" stroke="none" d="M 24.018736134675446,6.953439040707552 L 24.277555179777966,5.987513214418485 A 162.68881207114026 162.68881207114026 0 0 0 45.42849937748254,10.175677533989926 L 45.29968892933539,11.167346767377808 A 163.68881207114026 163.68881207114026 0 0 1 24.018736134675446,6.953439040707552 Z M 83.33476828780732,11.651021340851287 L 83.23121661616622,10.656397265483946 A 162.68881207114026 162.68881207114026 0 0 0 104.48182195433237,7.00743390808451 L 103.77930338589917,4.090848976866739 L 111.4042732219127,5.854321403610006 L 105.41851337890998,10.896213816374871 L 104.71599481047677,7.9796288851571 A 163.68881207114026 163.68881207114026 0 0 1 83.33476828780732,11.651021340851287"/><text text-anchor="middle" pointer-events="none" font-size="8px" fill="#000000" x="64.3094890311328" y="15.017806996525621" font-family="sans-serif">SIMILAR</text></g><g class="relationship" transform="translate(133.96725019052013 35.979357482725504) rotate(469.1167972949803)"><path class="outline" fill="#A5ABB6" stroke="none" d="M 24.018736134675446,6.953439040707552 L 24.277555179777966,5.987513214418485 A 8.970728579284831 8.970728579284831 0 0 0 26.355500875099935,6.289868504380138 L 26.328318054074057,7.289498983227734 A 9.970728579284831 9.970728579284831 0 0 1 24.018736134675446,6.953439040707552 Z M 26.328318054074057,7.289498983227734 L 26.355500875099935,6.289868504380138 A 8.970728579284831 8.970728579284831 0 0 0 28.44680742371397,6.100887146042998 L 27.828979064675966,3.1651950438687244 L 35.39972705529361,5.148569658650034 L 29.270578569097975,10.015143282275364 L 28.65275021005997,7.07945118010109 A 9.970728579284831 9.970728579284831 0 0 1 26.328318054074057,7.289498983227734"/><text text-anchor="middle" pointer-events="none" font-size="8px" fill="#000000" x="26.341909464586998" y="9.789683743803936" transform="rotate(180 26.341909464586998 6.789683743803936)" font-family="sans-serif"/></g><g class="relationship" transform="translate(133.96725019052013 35.979357482725504) rotate(338.23468766190354)"><path class="outline" fill="#A5ABB6" stroke="none" d="M 24.018736134675446,6.953439040707552 L 24.277555179777966,5.987513214418485 A 93.49778674153868 93.49778674153868 0 0 0 28.16389378214247,6.940210290991729 L 27.946640839701907,7.916325632025206 A 94.49778674153868 94.49778674153868 0 0 1 24.018736134675446,6.953439040707552 Z M 65.89148602803851,8.55482056238489 L 65.70719681275511,7.57194850299453 A 93.49778674153868 93.49778674153868 0 0 0 69.62338808335838,6.750543983898936 L 68.9448642672259,3.82828365481444 L 76.55508282057761,5.654365134437254 L 70.52808650486834,10.646891089344932 L 69.84956268873586,7.724630760260435 A 94.49778674153868 94.49778674153868 0 0 1 65.89148602803851,8.55482056238489"/><text text-anchor="middle" pointer-events="none" font-size="8px" fill="#000000" x="46.895093564082856" y="12.66006835162058" font-family="sans-serif">SIMILAR</text></g><g class="relationship" transform="translate(133.96725019052013 35.979357482725504) rotate(305.6730972695618)"><path class="outline" fill="#A5ABB6" stroke="none" d="M 24.018736134675446,-6.953439040707552 L 24.277555179777966,-5.987513214418485 A 8.722790978891965 8.722790978891965 0 0 1 26.297658224884074,-6.281500659005259 L 26.270428249151035,-7.281129854468045 A 9.722790978891965 9.722790978891965 0 0 0 24.018736134675446,-6.953439040707552 Z M 26.270428249151035,-7.281129854468045 L 26.297658224884074,-6.281500659005259 A 8.722790978891965 8.722790978891965 0 0 1 28.330770177185553,-6.097923100925549 L 27.71321878682197,-3.162172723209486 L 35.28377962358363,-5.146261586363198 L 29.15417203100366,-10.012256937880299 L 28.536620640640077,-7.076506560164237 A 9.722790978891965 9.722790978891965 0 0 0 26.270428249151035,-7.281129854468045"/><text text-anchor="middle" pointer-events="none" font-size="8px" fill="#000000" x="26.284043237017556" y="-3.7813152567366526" font-family="sans-serif"/></g><g class="relationship" transform="translate(133.96725019052013 35.979357482725504) rotate(430.5100525245464)"><path class="outline" fill="#A5ABB6" stroke="none" d="M 24.018736134675446,-6.953439040707552 L 24.277555179777966,-5.987513214418485 A 78.32457863969543 78.32457863969543 0 0 1 24.475621280840638,-6.04030717821685 L 24.219331021778242,-7.006907045333406 A 79.32457863969543 79.32457863969543 0 0 0 24.018736134675446,-6.953439040707552 Z M 62.09257558534335,-7.692153740972131 L 61.8714193175784,-6.716915357176518 A 78.32457863969543 78.32457863969543 0 0 1 62.071265576401636,-6.671320885603012 L 61.40014223111139,-3.7473521006454105 L 69.00571329885108,-5.592694544085374 L 62.96609670345529,-10.569945932213148 L 62.294973358165045,-7.645977147255546 A 79.32457863969543 79.32457863969543 0 0 0 62.09257558534335,-7.692153740972131"/><text text-anchor="middle" pointer-events="none" font-size="8px" fill="#000000" x="43.123495454788255" y="-6.143459575727974" font-family="sans-serif">SIMILAR</text></g><g class="relationship" transform="translate(-108.71787448404345 103.61209458333889) rotate(469.6228719183327)"><path class="outline" fill="#A5ABB6" stroke="none" d="M 24.018736134675446,-6.953439040707552 L 24.277555179777966,-5.987513214418485 A 65.98483401247644 65.98483401247644 0 0 1 25.1441793447942,-6.21343232359731 L 24.898493986818213,-7.182781953440028 A 66.98483401247644 66.98483401247644 0 0 0 24.018736134675446,-6.953439040707552 Z M 55.29981679879229,-7.768454285339686 L 55.09164833656904,-6.790361298279862 A 65.98483401247644 65.98483401247644 0 0 1 55.966330780110695,-6.597987936708603 L 55.30205796248661,-3.672455229018301 L 62.90328590099208,-5.535606813534104 L 56.85202787027615,-10.498698213629005 L 56.187755052652065,-7.573165505938703 A 66.98483401247644 66.98483401247644 0 0 0 55.29981679879229,-7.768454285339686"/><text text-anchor="middle" pointer-events="none" font-size="8px" fill="#000000" x="40.07511420415889" y="-5.723558131257846" transform="rotate(180 40.07511420415889 -8.723558131257846)" font-family="sans-serif">SIMI…</text></g><g class="relationship" transform="translate(-108.71787448404345 103.61209458333889) rotate(429.7914027737281)"><path class="outline" fill="#A5ABB6" stroke="none" d="M 24.018736134675446,-6.953439040707552 L 24.277555179777966,-5.987513214418485 A 159.90192132066306 159.90192132066306 0 0 1 44.72521418249986,-10.059271728876979 L 44.59427139325368,-11.050661655164532 A 160.90192132066306 160.90192132066306 0 0 0 24.018736134675446,-6.953439040707552 Z M 82.628291414698,-11.539163160424067 L 82.52285405565715,-10.544737213800346 A 159.90192132066306 159.90192132066306 0 0 1 103.06834443098398,-6.999486682595105 L 102.36656812293221,-4.0827230628519455 L 109.99108892839332,-5.848135900431483 L 104.00404617505303,-10.888504842252651 L 103.30226986700126,-7.9717412225094915 A 160.90192132066306 160.90192132066306 0 0 0 82.628291414698,-11.539163160424067"/><text text-anchor="middle" pointer-events="none" font-size="8px" fill="#000000" x="63.6032168041021" y="-8.922810479264598" font-family="sans-serif">SIMILAR</text></g><g class="relationship" transform="translate(-108.71787448404345 103.61209458333889) rotate(380.0237797384047)"><path class="outline" fill="#A5ABB6" stroke="none" d="M 24.018736134675446,-6.953439040707552 L 24.277555179777966,-5.987513214418485 A 97.68065793192056 97.68065793192056 0 0 1 29.19033304977468,-7.168595405040051 L 28.98180827964951,-8.146612490905241 A 98.68065793192056 98.68065793192056 0 0 0 24.018736134675446,-6.953439040707552 Z M 66.93991638474182,-8.77319591021309 L 66.76378514526398,-7.788829217115435 A 97.68065793192056 97.68065793192056 0 0 1 71.71286857145243,-6.770539090697793 L 71.03247700008764,-3.848713067537662 L 78.6438612207202,-5.669929761373293 L 72.62005733327216,-10.666307121577967 L 71.93966576190736,-7.744481098417837 A 98.68065793192056 98.68065793192056 0 0 0 66.93991638474182,-8.77319591021309"/><text text-anchor="middle" pointer-events="none" font-size="8px" fill="#000000" x="47.93869934036119" y="-6.802527088529658" font-family="sans-serif">SIMILAR</text></g><g class="relationship" transform="translate(-62.32629468008067 229.64235702642927) rotate(299.03058245777146)"><path class="outline" fill="#A5ABB6" stroke="none" d="M 24.018736134675446,-6.953439040707552 L 24.277555179777966,-5.987513214418485 A 99.31269884238199 99.31269884238199 0 0 1 29.591739906932897,-7.255864204267638 L 29.386430481336227,-8.234561317659299 A 100.31269884238199 100.31269884238199 0 0 0 24.018736134675446,-6.953439040707552 Z M 67.34917653254217,-8.856605508996978 L 67.17604188785363,-7.871707344307566 A 99.31269884238199 99.31269884238199 0 0 1 72.5289281244538,-6.778143223739159 L 71.84782625148424,-3.856482696121799 L 79.4596530010559,-5.675848941413062 L 73.43706395507988,-10.673690593895639 L 72.75596208211032,-7.752030066278278 A 100.31269884238199 100.31269884238199 0 0 0 67.34917653254217,-8.856605508996978"/><text text-anchor="middle" pointer-events="none" font-size="8px" fill="#000000" x="48.34629683079661" y="-6.858114735340706" font-family="sans-serif">SIMILAR</text></g><g class="relationship" transform="translate(-62.32629468008067 229.64235702642927) rotate(249.79140277372812)"><path class="outline" fill="#A5ABB6" stroke="none" d="M 24.018736134675446,-6.953439040707552 L 24.277555179777966,-5.987513214418485 A 159.90192132066306 159.90192132066306 0 0 1 44.72521418249986,-10.059271728876979 L 44.59427139325368,-11.050661655164532 A 160.90192132066306 160.90192132066306 0 0 0 24.018736134675446,-6.953439040707552 Z M 82.628291414698,-11.539163160424067 L 82.52285405565715,-10.544737213800346 A 159.90192132066306 159.90192132066306 0 0 1 103.06834443098398,-6.999486682595105 L 102.36656812293221,-4.0827230628519455 L 109.99108892839332,-5.848135900431483 L 104.00404617505303,-10.888504842252651 L 103.30226986700126,-7.9717412225094915 A 160.90192132066306 160.90192132066306 0 0 0 82.628291414698,-11.539163160424067"/><text text-anchor="middle" pointer-events="none" font-size="8px" fill="#000000" x="63.6032168041021" y="-8.922810479264598" transform="rotate(180 63.6032168041021 -11.922810479264598)" font-family="sans-serif">SIMILAR</text></g><g class="relationship" transform="translate(-62.32629468008067 229.64235702642927) rotate(210.06192576628138)"><path class="outline" fill="#A5ABB6" stroke="none" d="M 24.018736134675446,-6.953439040707552 L 24.277555179777966,-5.987513214418485 A 66.36458842696825 66.36458842696825 0 0 1 25.23529240366769,-6.236500025050589 L 24.990904808327624,-7.2061776535663284 A 67.36458842696825 67.36458842696825 0 0 0 24.018736134675446,-6.953439040707552 Z M 55.393980365609096,-7.790722594572983 L 55.18704663223293,-6.812367633431066 A 66.36458842696825 66.36458842696825 0 0 1 56.15364680156997,-6.600379108905945 L 55.489150604203566,-3.6748971308917935 L 63.09052078316406,-5.537468311386695 L 57.039641731391846,-10.501021746258147 L 56.37514553402544,-7.575539768243995 A 67.36458842696825 67.36458842696825 0 0 0 55.393980365609096,-7.790722594572983"/><text text-anchor="middle" pointer-events="none" font-size="8px" fill="#000000" x="40.16863966204062" y="-5.736476620058369" transform="rotate(180 40.16863966204062 -8.736476620058369)" font-family="sans-serif">SIMI…</text></g><g class="relationship" transform="translate(220.82202502480533 145.56825769593436) rotate(295.06676055835214)"><path class="outline" fill="#A5ABB6" stroke="none" d="M 24.018736134675446,6.953439040707552 L 24.277555179777966,5.987513214418485 A 121.78003251158488 121.78003251158488 0 0 0 35.15944868417073,8.375726960421375 L 34.98998659915408,9.361263667876656 A 122.78003251158488 122.78003251158488 0 0 1 24.018736134675446,6.953439040707552 Z M 72.99556748672975,9.926480166507346 L 72.85548753864758,8.936339970300125 A 121.78003251158488 121.78003251158488 0 0 0 83.8035875221623,6.872780451287343 L 83.11364582882638,3.9531947855126996 L 90.73094435785912,5.749514111132642 L 84.72350977994353,10.765561338986867 L 84.0335680866076,7.845975673212224 A 122.78003251158488 122.78003251158488 0 0 1 72.99556748672975,9.926480166507346"/><text text-anchor="middle" pointer-events="none" font-size="8px" fill="#000000" x="53.9782073820692" y="13.623546831395231" font-family="sans-serif">SIMILAR</text></g><g class="relationship" transform="translate(220.82202502480533 145.56825769593436) rotate(206.4773448002399)"><path class="outline" fill="#A5ABB6" stroke="none" d="M 24.018736134675446,6.953439040707552 L 24.277555179777966,5.987513214418485 A 129.48231553668322 129.48231553668322 0 0 0 37.08237013380101,8.732936167950939 L 36.9224434733531,9.720065066969681 A 130.48231553668322 130.48231553668322 0 0 1 24.018736134675446,6.953439040707552 Z M 74.93672925343475,10.267986702174653 L 74.80531922489361,9.276658600888908 A 129.48231553668322 129.48231553668322 0 0 0 87.68394111932679,6.901425706880444 L 86.99132383292495,3.982473618445733 L 94.61026554007475,5.771810720015283 L 88.60743083452924,10.793361824793392 L 87.9148135481274,7.874409736358681 A 130.48231553668322 130.48231553668322 0 0 1 74.93672925343475,10.267986702174653"/><text text-anchor="middle" pointer-events="none" font-size="8px" fill="#000000" x="55.91672959629066" y="13.886016248647707" transform="rotate(180 55.91672959629066 10.886016248647707)" font-family="sans-serif">SIMILAR</text></g><g class="relationship" transform="translate(220.82202502480533 145.56825769593436) rotate(272.6713101126509)"><path class="outline" fill="#A5ABB6" stroke="none" d="M 24.018736134675446,6.953439040707552 L 24.277555179777966,5.987513214418485 A 185.26353188176404 185.26353188176404 0 0 0 51.139869813343836,11.096176582728617 L 51.02604592384867,12.089677524942658 A 186.26353188176404 186.26353188176404 0 0 1 24.018736134675446,6.953439040707552 Z M 89.06708558502972,12.53742284362309 L 88.97667712009208,11.54151807434664 A 185.26353188176404 185.26353188176404 0 0 0 115.95179197097252,7.066524480473486 L 115.24375451859672,4.151274411262754 L 122.87204837452687,5.9003121031317285 L 116.8958419074736,10.953524572754462 L 116.18780445509779,8.03827450354373 A 186.26353188176404 186.26353188176404 0 0 1 89.06708558502972,12.53742284362309"/><text text-anchor="middle" pointer-events="none" font-size="8px" fill="#000000" x="70.04098911387197" y="15.787349007281904" font-family="sans-serif">SIMILAR</text></g><g class="relationship" transform="translate(220.82202502480533 145.56825769593436) rotate(254.07484100768454)"><path class="outline" fill="#A5ABB6" stroke="none" d="M 24.018736134675446,-6.953439040707552 L 24.277555179777966,-5.987513214418485 A 61.21113947393174 61.21113947393174 0 0 1 25.069881862927424,-6.194146537766734 L 24.824006976191484,-7.1634481111032215 A 62.21113947393174 62.21113947393174 0 0 0 24.018736134675446,-6.953439040707552 Z M 53.02252738854656,-7.720575219518601 L 52.81513103397737,-6.742318222553379 A 61.21113947393174 61.21113947393174 0 0 1 53.61500124072849,-6.567142437981162 L 52.9536099886468,-3.640956932639812 L 60.552999295205254,-5.511593767347438 L 54.49685624350408,-10.468723111769629 L 53.835464991422384,-7.5425376064282785 A 62.21113947393174 62.21113947393174 0 0 0 53.02252738854656,-7.720575219518601"/><text text-anchor="middle" pointer-events="none" font-size="8px" fill="#000000" x="38.90115519708681" y="-5.561191218629837" transform="rotate(180 38.90115519708681 -8.561191218629837)" font-family="sans-serif">SIM…</text></g><g class="relationship" transform="translate(220.82202502480533 145.56825769593436) rotate(231.6013862950448)"><path class="outline" fill="#A5ABB6" stroke="none" d="M 24.018736134675446,6.953439040707552 L 24.277555179777966,5.987513214418485 A 170.82447706200782 170.82447706200782 0 0 0 47.48397426851213,10.511734236527559 L 47.36100471926558,11.504144680828745 A 171.82447706200782 171.82447706200782 0 0 1 24.018736134675446,6.953439040707552 Z M 85.3987150362622,11.97424309019388 L 85.30030919727888,10.97909672364571 A 170.82447706200782 170.82447706200782 0 0 0 108.61145065763122,7.029774428074917 L 107.90684553075651,4.1136928765434995 L 115.53307513235032,5.871709390622513 L 109.55092416013083,10.91788316345014 L 108.84631903325612,8.001801611918722 A 171.82447706200782 171.82447706200782 0 0 1 85.3987150362622,11.97424309019388"/><text text-anchor="middle" pointer-events="none" font-size="8px" fill="#000000" x="66.37298915882744" y="15.295133687408452" transform="rotate(180 66.37298915882744 12.295133687408452)" font-family="sans-serif">SIMILAR</text></g><g class="relationship" transform="translate(220.82202502480533 145.56825769593436) rotate(201.16568633703457)"><path class="outline" fill="#A5ABB6" stroke="none" d="M 24.018736134675446,-6.953439040707552 L 24.277555179777966,-5.987513214418485 A 8.686423479969203 8.686423479969203 0 0 1 26.289175722555694,-6.280273312053254 L 26.261938817952828,-7.279902318749064 A 9.686423479969203 9.686423479969203 0 0 0 24.018736134675446,-6.953439040707552 Z M 26.261938817952828,-7.279902318749064 L 26.289175722555694,-6.280273312053254 A 8.686423479969203 8.686423479969203 0 0 1 28.313753469258884,-6.097487561933891 L 27.696242776913902,-3.16172862345825 L 35.26677610775954,-5.145922436208201 L 29.137101059052195,-10.011832813234744 L 28.519590366707213,-7.076073874759103 A 9.686423479969203 9.686423479969203 0 0 0 26.261938817952828,-7.279902318749064"/><text text-anchor="middle" pointer-events="none" font-size="8px" fill="#000000" x="26.27555727025426" y="-3.78008781540116" transform="rotate(180 26.27555727025426 -6.78008781540116)" font-family="sans-serif"/></g><g class="relationship" transform="translate(220.82202502480533 145.56825769593436) rotate(310.728110516775)"><path class="outline" fill="#A5ABB6" stroke="none" d="M 24.018736134675446,6.953439040707552 L 24.277555179777966,5.987513214418485 A 8.825270517076591 8.825270517076591 0 0 0 26.32156352874832,6.284959252765228 L 26.294353060971027,7.28458897943573 A 9.825270517076591 9.825270517076591 0 0 1 24.018736134675446,6.953439040707552 Z M 26.294353060971027,7.28458897943573 L 26.32156352874832,6.284959252765228 A 8.825270517076591 8.825270517076591 0 0 0 28.378726369049186,6.099149336792051 L 27.76106039572152,3.1634230645736774 L 35.33169866644667,5.147216444397223 L 29.20228100015274,10.013451033083214 L 28.584615026825073,7.077724760864841 A 9.825270517076591 9.825270517076591 0 0 1 26.294353060971027,7.28458897943573"/><text text-anchor="middle" pointer-events="none" font-size="8px" fill="#000000" x="26.307958294859674" y="9.784774116100479" font-family="sans-serif"/></g><g class="relationship" transform="translate(220.82202502480533 145.56825769593436) rotate(251.7925556781306)"><path class="outline" fill="#A5ABB6" stroke="none" d="M 24.018736134675446,-6.953439040707552 L 24.277555179777966,-5.987513214418485 A 223.1448590960126 223.1448590960126 0 0 1 60.76878918342426,-12.575635822625912 L 60.673501730093456,-13.571085621077714 A 224.1448590960126 224.1448590960126 0 0 0 24.018736134675446,-6.953439040707552 Z M 98.7183819690145,-13.968998368282428 L 98.64393597232393,-12.971773321677233 A 223.1448590960126 223.1448590960126 0 0 1 135.2649829341708,-7.148334644413566 L 134.54930493980498,-4.234950871482079 L 142.18215807007192,-5.963983286381889 L 136.2192202599919,-11.03284634165555 L 135.5035422656261,-8.119462568724062 A 224.1448590960126 224.1448590960126 0 0 0 98.7183819690145,-13.968998368282428"/><text text-anchor="middle" pointer-events="none" font-size="8px" fill="#000000" x="79.69271297276423" y="-11.078758495056292" transform="rotate(180 79.69271297276423 -14.078758495056292)" font-family="sans-serif">SIMILAR</text></g><g class="relationship" transform="translate(197.51664252605696 63.89021687863671) rotate(478.32225187899974)"><path class="outline" fill="#A5ABB6" stroke="none" d="M 24.018736134675446,-6.953439040707552 L 24.277555179777966,-5.987513214418485 A 26.82763828619234 26.82763828619234 0 0 1 30.57359077301391,-6.893828566092413 L 30.549456403695032,-7.893537289780259 A 27.82763828619234 27.82763828619234 0 0 0 24.018736134675446,-6.953439040707552 Z M 30.549456403695032,-7.893537289780259 L 30.57359077301391,-6.893828566092413 A 26.82763828619234 26.82763828619234 0 0 1 36.90602584692601,-6.292382190543081 L 36.270304556488846,-3.360512745822716 L 43.85300809967973,-5.297677420309746 L 37.75365423417558,-10.201541450170234 L 37.11793294373841,-7.269672005449869 A 27.82763828619234 27.82763828619234 0 0 0 30.549456403695032,-7.893537289780259"/><text text-anchor="middle" pointer-events="none" font-size="8px" fill="#000000" x="30.56152358835447" y="-4.393682927936336" transform="rotate(180 30.56152358835447 -7.393682927936336)" font-family="sans-serif"/></g><g class="relationship" transform="translate(197.51664252605696 63.89021687863671) rotate(520.9881325286466)"><path class="outline" fill="#A5ABB6" stroke="none" d="M 24.018736134675446,6.953439040707552 L 24.277555179777966,5.987513214418485 A 67.34534984352551 67.34534984352551 0 0 0 25.47085395130125,6.295582143759901 L 25.22975400297818,7.266082434805 A 68.34534984352551 68.34534984352551 0 0 1 24.018736134675446,6.953439040707552 Z M 55.63718886078668,7.847732005660276 L 55.43338019532074,6.868721266249835 A 67.34534984352551 67.34534984352551 0 0 0 56.63758752999773,6.606513107615171 L 55.97251830489257,3.681161346575481 L 63.57425317660787,5.542243542543061 L 57.52434649680462,10.506982122334756 L 56.859277271699455,7.581630361295066 A 68.34534984352551 68.34534984352551 0 0 1 55.63718886078668,7.847732005660276"/><text text-anchor="middle" pointer-events="none" font-size="8px" fill="#000000" x="40.41026978167728" y="11.769841437943015" transform="rotate(180 40.41026978167728 8.769841437943015)" font-family="sans-serif">SIMI…</text></g><g class="relationship" transform="translate(197.51664252605696 63.89021687863671) rotate(249.4186048654425)"><path class="outline" fill="#A5ABB6" stroke="none" d="M 24.018736134675446,-6.953439040707552 L 24.277555179777966,-5.987513214418485 A 54.51436219692894 54.51436219692894 0 0 1 26.68063842598131,-6.573324454216063 L 26.4659010347652,-7.549996278737325 A 55.51436219692894 55.51436219692894 0 0 0 24.018736134675446,-6.953439040707552 Z M 48.07696564615938,-7.992801726419508 L 47.90241522506609,-7.008153489486055 A 54.51436219692894 54.51436219692894 0 0 1 50.327477729393316,-6.521269779589585 L 49.67037195578275,-3.594118946050654 L 57.26701396991925,-5.475881446754745 L 51.20361876087407,-10.424137557641492 L 50.546512987263505,-7.496986724102562 A 55.51436219692894 55.51436219692894 0 0 0 48.07696564615938,-7.992801726419508"/><text text-anchor="middle" pointer-events="none" font-size="8px" fill="#000000" x="37.25991602075192" y="-5.333500353665443" transform="rotate(180 37.25991602075192 -8.333500353665443)" font-family="sans-serif">SI…</text></g><g class="relationship" transform="translate(197.51664252605696 63.89021687863671) rotate(203.71105568925242)"><path class="outline" fill="#A5ABB6" stroke="none" d="M 24.018736134675446,6.953439040707552 L 24.277555179777966,5.987513214418485 A 29.180282325366722 29.180282325366722 0 0 0 31.13609970021111,6.973556424534898 L 31.112321030796487,7.973273672000836 A 30.180282325366722 30.180282325366722 0 0 1 24.018736134675446,6.953439040707552 Z M 31.112321030796487,7.973273672000836 L 31.13609970021111,6.973556424534898 A 29.180282325366722 29.180282325366722 0 0 0 38.03376856570126,6.31471018069071 L 37.39596110625215,3.3832938600922393 L 44.98004122367254,5.3150621620758765 L 38.8841785116334,10.223265274822005 L 38.246371052184294,7.291848954223534 A 30.180282325366722 30.180282325366722 0 0 1 31.112321030796487,7.973273672000836"/><text text-anchor="middle" pointer-events="none" font-size="8px" fill="#000000" x="31.1242103655038" y="10.473415048267867" transform="rotate(180 31.1242103655038 7.473415048267867)" font-family="sans-serif"/></g><g class="relationship" transform="translate(197.51664252605696 63.89021687863671) rotate(434.07484100768454)"><path class="outline" fill="#A5ABB6" stroke="none" d="M 24.018736134675446,-6.953439040707552 L 24.277555179777966,-5.987513214418485 A 61.21113947393174 61.21113947393174 0 0 1 25.069881862927424,-6.194146537766734 L 24.824006976191484,-7.1634481111032215 A 62.21113947393174 62.21113947393174 0 0 0 24.018736134675446,-6.953439040707552 Z M 53.02252738854656,-7.720575219518601 L 52.81513103397737,-6.742318222553379 A 61.21113947393174 61.21113947393174 0 0 1 53.61500124072849,-6.567142437981162 L 52.9536099886468,-3.640956932639812 L 60.552999295205254,-5.511593767347438 L 54.49685624350408,-10.468723111769629 L 53.835464991422384,-7.5425376064282785 A 62.21113947393174 62.21113947393174 0 0 0 53.02252738854656,-7.720575219518601"/><text text-anchor="middle" pointer-events="none" font-size="8px" fill="#000000" x="38.90115519708681" y="-5.561191218629837" font-family="sans-serif">SIM…</text></g><g class="relationship" transform="translate(197.51664252605696 63.89021687863671) rotate(342.62498283305695)"><path class="outline" fill="#A5ABB6" stroke="none" d="M 24.018736134675446,6.953439040707552 L 24.277555179777966,5.987513214418485 A 41.84128139216672 41.84128139216672 0 0 0 24.74077628377608,6.108796362898978 L 24.493028149711307,7.077620837232402 A 42.84128139216672 42.84128139216672 0 0 1 24.018736134675446,6.953439040707552 Z M 43.883038016317926,7.504675120718325 L 43.678185078787486,6.5258823571645905 A 41.84128139216672 41.84128139216672 0 0 0 44.14629680428978,6.425111301092785 L 43.498174603346556,3.495958247282775 L 51.08900763000368,5.401018341193583 L 45.010459738880755,10.330648706172797 L 44.36233753793753,7.4014956523627875 A 42.84128139216672 42.84128139216672 0 0 1 43.883038016317926,7.504675120718325"/><text text-anchor="middle" pointer-events="none" font-size="8px" fill="#000000" x="34.174558377919254" y="10.902954662228773" font-family="sans-serif">S…</text></g><g class="relationship" transform="translate(197.51664252605696 63.89021687863671) rotate(294.78448216168067)"><path class="outline" fill="#A5ABB6" stroke="none" d="M 24.018736134675446,6.953439040707552 L 24.277555179777966,5.987513214418485 A 34.49397574386371 34.49397574386371 0 0 0 32.411558150005796,7.153734399362072 L 32.38854848305751,8.153469641927288 A 35.49397574386371 35.49397574386371 0 0 1 24.018736134675446,6.953439040707552 Z M 32.38854848305751,8.153469641927288 L 32.411558150005796,7.153734399362072 A 34.49397574386371 34.49397574386371 0 0 0 40.59060262243411,6.362970408069027 L 39.94828615242091,3.4325387756384425 L 47.53532917644101,5.352637250109995 L 41.44702458245171,10.27021258464314 L 40.80470811243851,7.339780952212556 A 35.49397574386371 35.49397574386371 0 0 1 32.38854848305751,8.153469641927288"/><text text-anchor="middle" pointer-events="none" font-size="8px" fill="#000000" x="32.400053316531654" y="10.653602020644676" font-family="sans-serif"/></g><g class="relationship" transform="translate(197.51664252605696 63.89021687863671) rotate(390.26333598392796)"><path class="outline" fill="#A5ABB6" stroke="none" d="M 24.018736134675446,6.953439040707552 L 24.277555179777966,5.987513214418485 A 34.90630560002471 34.90630560002471 0 0 0 32.510805623920376,7.167721377832578 L 32.48785371808156,8.167457948144161 A 35.90630560002471 35.90630560002471 0 0 1 24.018736134675446,6.953439040707552 Z M 32.48785371808156,8.167457948144161 L 32.510805623920376,7.167721377832578 A 34.90630560002471 34.90630560002471 0 0 0 40.78954346205521,6.366594675996277 L 40.14688837693929,3.436237284554979 L 47.73415322293756,5.355459042632678 L 41.64641690887643,10.273737864584675 L 41.00376182376051,7.343380473143377 A 35.90630560002471 35.90630560002471 0 0 1 32.48785371808156,8.167457948144161"/><text text-anchor="middle" pointer-events="none" font-size="8px" fill="#000000" x="32.49932967100097" y="10.66758966298837" font-family="sans-serif"/></g><g class="relationship" transform="translate(165.12006132200736 124.00125885989362) rotate(271.54784517901913)"><path class="outline" fill="#A5ABB6" stroke="none" d="M 24.018736134675446,-6.953439040707552 L 24.277555179777966,-5.987513214418485 A 164.4641667950402 164.4641667950402 0 0 1 45.876743919895546,-10.249476803961812 L 45.74925554189838,-11.241316868425656 A 165.4641667950402 165.4641667950402 0 0 0 24.018736134675446,-6.953439040707552 Z M 83.78496508708312,-11.72196441180563 L 83.68258067581168,-10.727219503636405 A 164.4641667950402 164.4641667950402 0 0 1 105.38256977652225,-7.01241656150635 L 104.67958583641634,-4.095943763767069 L 112.30483696126488,-5.85819950088247 L 106.31988169666344,-10.901046958492058 L 105.61689775655753,-7.984574160752778 A 165.4641667950402 165.4641667950402 0 0 0 83.78496508708312,-11.72196441180563"/><text text-anchor="middle" pointer-events="none" font-size="8px" fill="#000000" x="64.75957017884295" y="-9.078324038130177" font-family="sans-serif">SIMILAR</text></g><g class="relationship" transform="translate(165.12006132200736 124.00125885989362) rotate(321.64363857134424)"><path class="outline" fill="#A5ABB6" stroke="none" d="M 24.018736134675446,6.953439040707552 L 24.277555179777966,5.987513214418485 A 157.73272748106876 157.73272748106876 0 0 0 44.178116487245774,9.968175248274378 L 44.04546378457118,10.959337828516936 A 158.73272748106876 158.73272748106876 0 0 1 24.018736134675446,6.953439040707552 Z M 82.07859595160373,11.451661418443905 L 81.97164379918271,10.457397249778182 A 157.73272748106876 157.73272748106876 0 0 0 101.96857591479564,6.993192212019153 L 101.26738750420324,4.076287206220899 L 108.89155233009029,5.843236754936608 L 102.90349379558549,10.882398886416825 L 102.2023053849931,7.96549388061857 A 158.73272748106876 158.73272748106876 0 0 1 82.07859595160373,11.451661418443905"/><text text-anchor="middle" pointer-events="none" font-size="8px" fill="#000000" x="63.0537016936975" y="14.848870292211899" font-family="sans-serif">SIMILAR</text></g><g class="relationship" transform="translate(165.12006132200736 124.00125885989362) rotate(298.32225187899974)"><path class="outline" fill="#A5ABB6" stroke="none" d="M 24.018736134675446,-6.953439040707552 L 24.277555179777966,-5.987513214418485 A 26.82763828619234 26.82763828619234 0 0 1 30.57359077301391,-6.893828566092413 L 30.549456403695032,-7.893537289780259 A 27.82763828619234 27.82763828619234 0 0 0 24.018736134675446,-6.953439040707552 Z M 30.549456403695032,-7.893537289780259 L 30.57359077301391,-6.893828566092413 A 26.82763828619234 26.82763828619234 0 0 1 36.90602584692601,-6.292382190543081 L 36.270304556488846,-3.360512745822716 L 43.85300809967973,-5.297677420309746 L 37.75365423417558,-10.201541450170234 L 37.11793294373841,-7.269672005449869 A 27.82763828619234 27.82763828619234 0 0 0 30.549456403695032,-7.893537289780259"/><text text-anchor="middle" pointer-events="none" font-size="8px" fill="#000000" x="30.56152358835447" y="-4.393682927936336" font-family="sans-serif"/></g><g class="relationship" transform="translate(165.12006132200736 124.00125885989362) rotate(345.92502196568216)"><path class="outline" fill="#A5ABB6" stroke="none" d="M 24.018736134675446,6.953439040707552 L 24.277555179777966,5.987513214418485 A 86.94786126365123 86.94786126365123 0 0 0 26.56424945256075,6.567100894329826 L 26.331730010916548,7.539692642833515 A 87.94786126365123 87.94786126365123 0 0 1 24.018736134675446,6.953439040707552 Z M 64.25098666356831,8.197670371152881 L 64.05235000763582,7.217597170356143 A 86.94786126365123 86.94786126365123 0 0 0 66.35777571459535,6.717692293831965 L 65.68232063757542,3.794721127547906 L 73.29061761542815,5.628792308499461 L 67.25838248395526,10.614987182210712 L 66.58292740693533,7.692016015926652 A 87.94786126365123 87.94786126365123 0 0 1 64.25098666356831,8.197670371152881"/><text text-anchor="middle" pointer-events="none" font-size="8px" fill="#000000" x="45.264144279146834" y="12.437027682057433" font-family="sans-serif">SIMILAR</text></g><g class="relationship" transform="translate(165.12006132200736 124.00125885989362) rotate(381.1656863370346)"><path class="outline" fill="#A5ABB6" stroke="none" d="M 24.018736134675446,-6.953439040707552 L 24.277555179777966,-5.987513214418485 A 8.686423479969203 8.686423479969203 0 0 1 26.289175722555694,-6.280273312053254 L 26.261938817952828,-7.279902318749064 A 9.686423479969203 9.686423479969203 0 0 0 24.018736134675446,-6.953439040707552 Z M 26.261938817952828,-7.279902318749064 L 26.289175722555694,-6.280273312053254 A 8.686423479969203 8.686423479969203 0 0 1 28.313753469258884,-6.097487561933891 L 27.696242776913902,-3.16172862345825 L 35.26677610775954,-5.145922436208201 L 29.137101059052195,-10.011832813234744 L 28.519590366707213,-7.076073874759103 A 9.686423479969203 9.686423479969203 0 0 0 26.261938817952828,-7.279902318749064"/><text text-anchor="middle" pointer-events="none" font-size="8px" fill="#000000" x="26.27555727025426" y="-3.78008781540116" font-family="sans-serif"/></g><g class="relationship" transform="translate(165.12006132200736 124.00125885989362) rotate(296.5070576184464)"><path class="outline" fill="#A5ABB6" stroke="none" d="M 24.018736134675446,6.953439040707552 L 24.277555179777966,5.987513214418485 A 171.49528512634933 171.49528512634933 0 0 0 47.65360518374326,10.539209128192823 L 47.53109338456148,11.53167618510767 A 172.49528512634933 172.49528512634933 0 0 1 24.018736134675446,6.953439040707552 Z M 85.56899319457375,12.000688164620328 L 85.47098940237487,11.00550212336239 A 171.49528512634933 171.49528512634933 0 0 0 108.9521615524274,7.0315615174963995 L 108.24738951615281,4.115520300900625 L 115.87371973052997,5.873100302288306 L 109.89185760079353,10.919616472957431 L 109.18708556451894,8.003575256361657 A 172.49528512634933 172.49528512634933 0 0 1 85.56899319457375,12.000688164620328"/><text text-anchor="middle" pointer-events="none" font-size="8px" fill="#000000" x="66.543239302375" y="15.318000453387043" font-family="sans-serif">SIMILAR</text></g><g class="relationship" transform="translate(165.12006132200736 124.00125885989362) rotate(211.790336810871)"><path class="outline" fill="#A5ABB6" stroke="none" d="M 24.018736134675446,6.953439040707552 L 24.277555179777966,5.987513214418485 A 8.654312808220784 8.654312808220784 0 0 0 26.2816864962086,6.279189636901441 L 26.254443471160137,7.2788184768146404 A 9.654312808220784 9.654312808220784 0 0 1 24.018736134675446,6.953439040707552 Z M 26.254443471160137,7.2788184768146404 L 26.2816864962086,6.279189636901441 A 8.654312808220784 8.654312808220784 0 0 0 28.298729348184732,6.097102838306935 L 27.681254605531855,3.161336338364243 L 35.25176363849316,5.1456228554406644 L 29.12202900505524,10.011458171563856 L 28.504554262402362,7.075691671621165 A 9.654312808220784 9.654312808220784 0 0 1 26.254443471160137,7.2788184768146404"/><text text-anchor="middle" pointer-events="none" font-size="8px" fill="#000000" x="26.26806498368437" y="9.77900405685804" transform="rotate(180 26.26806498368437 6.7790040568580405)" font-family="sans-serif"/></g><g class="relationship" transform="translate(165.12006132200736 124.00125885989362) rotate(250.51005252454638)"><path class="outline" fill="#A5ABB6" stroke="none" d="M 24.018736134675446,-6.953439040707552 L 24.277555179777966,-5.987513214418485 A 78.32457863969543 78.32457863969543 0 0 1 24.475621280840638,-6.04030717821685 L 24.219331021778242,-7.006907045333406 A 79.32457863969543 79.32457863969543 0 0 0 24.018736134675446,-6.953439040707552 Z M 62.09257558534335,-7.692153740972131 L 61.8714193175784,-6.716915357176518 A 78.32457863969543 78.32457863969543 0 0 1 62.071265576401636,-6.671320885603012 L 61.40014223111139,-3.7473521006454105 L 69.00571329885108,-5.592694544085374 L 62.96609670345529,-10.569945932213148 L 62.294973358165045,-7.645977147255546 A 79.32457863969543 79.32457863969543 0 0 0 62.09257558534335,-7.692153740972131"/><text text-anchor="middle" pointer-events="none" font-size="8px" fill="#000000" x="43.123495454788255" y="-6.143459575727974" transform="rotate(180 43.123495454788255 -9.143459575727974)" font-family="sans-serif">SIMILAR</text></g><g class="relationship" transform="translate(259.83719299061516 100.25392925097927) rotate(210.26333598392796)"><path class="outline" fill="#A5ABB6" stroke="none" d="M 24.018736134675446,6.953439040707552 L 24.277555179777966,5.987513214418485 A 34.90630560002471 34.90630560002471 0 0 0 32.510805623920376,7.167721377832578 L 32.48785371808156,8.167457948144161 A 35.90630560002471 35.90630560002471 0 0 1 24.018736134675446,6.953439040707552 Z M 32.48785371808156,8.167457948144161 L 32.510805623920376,7.167721377832578 A 34.90630560002471 34.90630560002471 0 0 0 40.78954346205521,6.366594675996277 L 40.14688837693929,3.436237284554979 L 47.73415322293756,5.355459042632678 L 41.64641690887643,10.273737864584675 L 41.00376182376051,7.343380473143377 A 35.90630560002471 35.90630560002471 0 0 1 32.48785371808156,8.167457948144161"/><text text-anchor="middle" pointer-events="none" font-size="8px" fill="#000000" x="32.49932967100097" y="10.66758966298837" transform="rotate(180 32.49932967100097 7.6675896629883695)" font-family="sans-serif"/></g><g class="relationship" transform="translate(259.83719299061516 100.25392925097927) rotate(183.03457637796447)"><path class="outline" fill="#A5ABB6" stroke="none" d="M 24.018736134675446,-6.953439040707552 L 24.277555179777966,-5.987513214418485 A 182.33842676355505 182.33842676355505 0 0 1 50.398502138753464,-10.978889098197897 L 50.282938398759214,-11.972189164642344 A 183.33842676355505 183.33842676355505 0 0 0 24.018736134675446,-6.953439040707552 Z M 88.3234184834048,-12.424293887924819 L 88.23149446016157,-11.428527864227107 A 182.33842676355505 182.33842676355505 0 0 1 114.46368990755325,-7.059360294010826 L 113.75632155974326,-4.143947798236589 L 121.3842137889948,-5.894736231749897 L 115.40684770463322,-10.946576955043144 L 114.69947935682323,-8.031164459268906 A 183.33842676355505 183.33842676355505 0 0 0 88.3234184834048,-12.424293887924819"/><text text-anchor="middle" pointer-events="none" font-size="8px" fill="#000000" x="69.2973621065288" y="-9.687632915806489" transform="rotate(180 69.2973621065288 -12.687632915806489)" font-family="sans-serif">SIMILAR</text></g><g class="relationship" transform="translate(259.83719299061516 100.25392925097927) rotate(231.10012049673531)"><path class="outline" fill="#A5ABB6" stroke="none" d="M 24.018736134675446,-6.953439040707552 L 24.277555179777966,-5.987513214418485 A 180.91568287830012 180.91568287830012 0 0 1 50.038038985279925,-10.921648477857417 L 49.92160938588859,-11.914847424889473 A 181.91568287830012 181.91568287830012 0 0 0 24.018736134675446,-6.953439040707552 Z M 87.96179811243903,-12.36910256957998 L 87.86911880970233,-11.373406558317384 A 180.91568287830012 180.91568287830012 0 0 1 113.74008155169153,-7.055825812801814 L 113.03304331033635,-4.1403332428813595 L 120.66073725506511,-5.891985344626473 L 114.68279920683176,-10.94314923936242 L 113.97576096547658,-8.027656669441965 A 181.91568287830012 181.91568287830012 0 0 0 87.96179811243903,-12.36910256957998"/><text text-anchor="middle" pointer-events="none" font-size="8px" fill="#000000" x="68.9357669693314" y="-9.639132218000299" transform="rotate(180 68.9357669693314 -12.639132218000299)" font-family="sans-serif">SIMILAR</text></g><g class="relationship" transform="translate(259.83719299061516 100.25392925097927) rotate(279.3817410046401)"><path class="outline" fill="#A5ABB6" stroke="none" d="M 24.018736134675446,-6.953439040707552 L 24.277555179777966,-5.987513214418485 A 8.63632187064012 8.63632187064012 0 0 1 26.277490601961176,-6.278582480674835 L 26.250244146687916,-7.278211227097746 A 9.63632187064012 9.63632187064012 0 0 0 24.018736134675446,-6.953439040707552 Z M 26.250244146687916,-7.278211227097746 L 26.277490601961176,-6.278582480674835 A 8.63632187064012 8.63632187064012 0 0 1 28.290311965683184,-6.096887218198269 L 27.67285737120208,-3.1611164805972933 L 35.24335278583231,-5.145454954009191 L 29.113584758324652,-10.011248201666236 L 28.49613016384355,-7.07547746406526 A 9.63632187064012 9.63632187064012 0 0 0 26.250244146687916,-7.278211227097746"/><text text-anchor="middle" pointer-events="none" font-size="8px" fill="#000000" x="26.263867374324548" y="-3.7783968538862904" font-family="sans-serif"/></g><g class="relationship" transform="translate(259.83719299061516 100.25392925097927) rotate(490.728110516775)"><path class="outline" fill="#A5ABB6" stroke="none" d="M 24.018736134675446,6.953439040707552 L 24.277555179777966,5.987513214418485 A 8.825270517076591 8.825270517076591 0 0 0 26.32156352874832,6.284959252765228 L 26.294353060971027,7.28458897943573 A 9.825270517076591 9.825270517076591 0 0 1 24.018736134675446,6.953439040707552 Z M 26.294353060971027,7.28458897943573 L 26.32156352874832,6.284959252765228 A 8.825270517076591 8.825270517076591 0 0 0 28.378726369049186,6.099149336792051 L 27.76106039572152,3.1634230645736774 L 35.33169866644667,5.147216444397223 L 29.20228100015274,10.013451033083214 L 28.584615026825073,7.077724760864841 A 9.825270517076591 9.825270517076591 0 0 1 26.294353060971027,7.28458897943573"/><text text-anchor="middle" pointer-events="none" font-size="8px" fill="#000000" x="26.307958294859674" y="9.784774116100479" transform="rotate(180 26.307958294859674 6.784774116100479)" font-family="sans-serif"/></g><g class="relationship" transform="translate(259.83719299061516 100.25392925097927) rotate(207.05079862728502)"><path class="outline" fill="#A5ABB6" stroke="none" d="M 24.018736134675446,6.953439040707552 L 24.277555179777966,5.987513214418485 A 173.77541003931992 173.77541003931992 0 0 0 48.23035682321907,10.632348124653788 L 48.10937547125173,11.625002904764244 A 174.77541003931992 174.77541003931992 0 0 1 24.018736134675446,6.953439040707552 Z M 86.14789128374196,12.090358249308252 L 86.05123037239585,11.095040878708431 A 173.77541003931992 173.77541003931992 0 0 0 110.11049415792968,7.037575658713115 L 109.40516041801392,4.121670256383257 L 117.03182905335197,5.877781165964658 L 111.05093914448402,10.925449528486258 L 110.34560540456826,8.0095441261564 A 174.77541003931992 174.77541003931992 0 0 1 86.14789128374196,12.090358249308252"/><text text-anchor="middle" pointer-events="none" font-size="8px" fill="#000000" x="67.12205103285689" y="15.395726660756935" transform="rotate(180 67.12205103285689 12.395726660756935)" font-family="sans-serif">SIMILAR</text></g><g class="relationship" transform="translate(259.83719299061516 100.25392925097927) rotate(525.9250219656822)"><path class="outline" fill="#A5ABB6" stroke="none" d="M 24.018736134675446,6.953439040707552 L 24.277555179777966,5.987513214418485 A 86.94786126365123 86.94786126365123 0 0 0 26.56424945256075,6.567100894329826 L 26.331730010916548,7.539692642833515 A 87.94786126365123 87.94786126365123 0 0 1 24.018736134675446,6.953439040707552 Z M 64.25098666356831,8.197670371152881 L 64.05235000763582,7.217597170356143 A 86.94786126365123 86.94786126365123 0 0 0 66.35777571459535,6.717692293831965 L 65.68232063757542,3.794721127547906 L 73.29061761542815,5.628792308499461 L 67.25838248395526,10.614987182210712 L 66.58292740693533,7.692016015926652 A 87.94786126365123 87.94786126365123 0 0 1 64.25098666356831,8.197670371152881"/><text text-anchor="middle" pointer-events="none" font-size="8px" fill="#000000" x="45.264144279146834" y="12.437027682057433" transform="rotate(180 45.264144279146834 9.437027682057433)" font-family="sans-serif">SIMILAR</text></g><g class="relationship" transform="translate(259.83719299061516 100.25392925097927) rotate(252.45230246234615)"><path class="outline" fill="#A5ABB6" stroke="none" d="M 24.018736134675446,-6.953439040707552 L 24.277555179777966,-5.987513214418485 A 105.01241404747856 105.01241404747856 0 0 1 30.997265584532546,-7.553387437868835 L 30.802436215943093,-8.534224589048904 A 106.01241404747856 106.01241404747856 0 0 0 24.018736134675446,-6.953439040707552 Z M 68.7793805560348,-9.140876698517602 L 68.61597881856639,-8.154317084407893 A 105.01241404747856 105.01241404747856 0 0 1 75.38227516396836,-6.803871315917646 L 74.6987700524957,-3.8827720771736494 L 82.31209090628312,-5.6958759289387855 L 76.29361531259856,-10.69867030090964 L 75.6101102011259,-7.777571062165644 A 106.01241404747856 106.01241404747856 0 0 0 68.7793805560348,-9.140876698517602"/><text text-anchor="middle" pointer-events="none" font-size="8px" fill="#000000" x="49.77150427137933" y="-7.0522649240048025" transform="rotate(180 49.77150427137933 -10.052264924004803)" font-family="sans-serif">SIMILAR</text></g><g class="relationship" transform="translate(269.5703045869003 41.3444664207141) rotate(522.624982833057)"><path class="outline" fill="#A5ABB6" stroke="none" d="M 24.018736134675446,6.953439040707552 L 24.277555179777966,5.987513214418485 A 41.84128139216672 41.84128139216672 0 0 0 24.74077628377608,6.108796362898978 L 24.493028149711307,7.077620837232402 A 42.84128139216672 42.84128139216672 0 0 1 24.018736134675446,6.953439040707552 Z M 43.883038016317926,7.504675120718325 L 43.678185078787486,6.5258823571645905 A 41.84128139216672 41.84128139216672 0 0 0 44.14629680428978,6.425111301092785 L 43.498174603346556,3.495958247282775 L 51.08900763000368,5.401018341193583 L 45.010459738880755,10.330648706172797 L 44.36233753793753,7.4014956523627875 A 42.84128139216672 42.84128139216672 0 0 1 43.883038016317926,7.504675120718325"/><text text-anchor="middle" pointer-events="none" font-size="8px" fill="#000000" x="34.174558377919254" y="10.902954662228773" transform="rotate(180 34.174558377919254 7.9029546622287725)" font-family="sans-serif">S…</text></g><g class="relationship" transform="translate(269.5703045869003 41.3444664207141) rotate(521.7441963919753)"><path class="outline" fill="#A5ABB6" stroke="none" d="M 24.018736134675446,6.953439040707552 L 24.277555179777966,5.987513214418485 A 217.2130789723215 217.2130789723215 0 0 0 59.25801648147933,12.348062414991546 L 59.16023958663406,13.343270774499445 A 218.2130789723215 218.2130789723215 0 0 1 24.018736134675446,6.953439040707552 Z M 97.20482729300355,13.748255421882789 L 97.12825814092284,12.751191148653817 A 217.2130789723215 217.2130789723215 0 0 0 132.23619339992757,7.1367329501932835 L 131.5215989089115,4.223083226322988 L 139.15380850412762,5.954954091800778 L 133.1889860546157,11.02159924868701 L 132.47439156359962,8.107949524816716 A 218.2130789723215 218.2130789723215 0 0 1 97.20482729300355,13.748255421882789"/><text text-anchor="middle" pointer-events="none" font-size="8px" fill="#000000" x="78.17901237009255" y="16.8765352568048" transform="rotate(180 78.17901237009255 13.8765352568048)" font-family="sans-serif">SIMILAR</text></g><g class="relationship" transform="translate(269.5703045869003 41.3444664207141) rotate(225.60402358183023)"><path class="outline" fill="#A5ABB6" stroke="none" d="M 24.018736134675446,-6.953439040707552 L 24.277555179777966,-5.987513214418485 A 8.994998342915276 8.994998342915276 0 0 1 26.36116408064702,-6.290687635356438 L 26.333985867642056,-7.290318239498715 A 9.994998342915276 9.994998342915276 0 0 0 24.018736134675446,-6.953439040707552 Z M 26.333985867642056,-7.290318239498715 L 26.36116408064702,-6.290687635356438 A 8.994998342915276 8.994998342915276 0 0 1 28.458168234687232,-6.1011767933713745 L 27.840312810214712,-3.1654903873583136 L 35.411079086129796,-5.14879520393767 L 29.28197546731726,-10.01542533472212 L 28.66412004284474,-7.079738928709061 A 9.994998342915276 9.994998342915276 0 0 0 26.333985867642056,-7.290318239498715"/><text text-anchor="middle" pointer-events="none" font-size="8px" fill="#000000" x="26.347574974144536" y="-3.7905029374275774" transform="rotate(180 26.347574974144536 -6.790502937427577)" font-family="sans-serif"/></g><g class="relationship" transform="translate(269.5703045869003 41.3444664207141) rotate(208.1447597793254)"><path class="outline" fill="#A5ABB6" stroke="none" d="M 24.018736134675446,-6.953439040707552 L 24.277555179777966,-5.987513214418485 A 120.20963221922506 120.20963221922506 0 0 1 34.768151665772464,-8.301502046464236 L 34.59660180444769,-9.286677485195554 A 121.20963221922506 121.20963221922506 0 0 0 24.018736134675446,-6.953439040707552 Z M 72.60012802853286,-9.855547597072174 L 72.45814236031038,-8.865678883545257 A 120.20963221922506 120.20963221922506 0 0 1 83.01329881036801,-6.8667213398243385 L 82.32392306990052,-3.947001988849852 L 89.94087325271974,-5.744797837229235 L 83.93246646432469,-10.759680474456987 L 83.2430907238572,-7.8399611234825 A 121.20963221922506 121.20963221922506 0 0 0 72.60012802853286,-9.855547597072174"/><text text-anchor="middle" pointer-events="none" font-size="8px" fill="#000000" x="53.58341215648122" y="-7.570035837090231" transform="rotate(180 53.58341215648122 -10.57003583709023)" font-family="sans-serif">SIMILAR</text></g><g class="relationship" transform="translate(269.5703045869003 41.3444664207141) rotate(475.06676055835214)"><path class="outline" fill="#A5ABB6" stroke="none" d="M 24.018736134675446,6.953439040707552 L 24.277555179777966,5.987513214418485 A 121.78003251158488 121.78003251158488 0 0 0 35.15944868417073,8.375726960421375 L 34.98998659915408,9.361263667876656 A 122.78003251158488 122.78003251158488 0 0 1 24.018736134675446,6.953439040707552 Z M 72.99556748672975,9.926480166507346 L 72.85548753864758,8.936339970300125 A 121.78003251158488 121.78003251158488 0 0 0 83.8035875221623,6.872780451287343 L 83.11364582882638,3.9531947855126996 L 90.73094435785912,5.749514111132642 L 84.72350977994353,10.765561338986867 L 84.0335680866076,7.845975673212224 A 122.78003251158488 122.78003251158488 0 0 1 72.99556748672975,9.926480166507346"/><text text-anchor="middle" pointer-events="none" font-size="8px" fill="#000000" x="53.9782073820692" y="13.623546831395231" transform="rotate(180 53.9782073820692 10.623546831395231)" font-family="sans-serif">SIMILAR</text></g><g class="relationship" transform="translate(269.5703045869003 41.3444664207141) rotate(459.3817410046401)"><path class="outline" fill="#A5ABB6" stroke="none" d="M 24.018736134675446,-6.953439040707552 L 24.277555179777966,-5.987513214418485 A 8.63632187064012 8.63632187064012 0 0 1 26.277490601961176,-6.278582480674835 L 26.250244146687916,-7.278211227097746 A 9.63632187064012 9.63632187064012 0 0 0 24.018736134675446,-6.953439040707552 Z M 26.250244146687916,-7.278211227097746 L 26.277490601961176,-6.278582480674835 A 8.63632187064012 8.63632187064012 0 0 1 28.290311965683184,-6.096887218198269 L 27.67285737120208,-3.1611164805972933 L 35.24335278583231,-5.145454954009191 L 29.113584758324652,-10.011248201666236 L 28.49613016384355,-7.07547746406526 A 9.63632187064012 9.63632187064012 0 0 0 26.250244146687916,-7.278211227097746"/><text text-anchor="middle" pointer-events="none" font-size="8px" fill="#000000" x="26.263867374324548" y="-3.7783968538862904" transform="rotate(180 26.263867374324548 -6.77839685388629)" font-family="sans-serif"/></g><g class="relationship" transform="translate(269.5703045869003 41.3444664207141) rotate(501.64363857134424)"><path class="outline" fill="#A5ABB6" stroke="none" d="M 24.018736134675446,6.953439040707552 L 24.277555179777966,5.987513214418485 A 157.73272748106876 157.73272748106876 0 0 0 44.178116487245774,9.968175248274378 L 44.04546378457118,10.959337828516936 A 158.73272748106876 158.73272748106876 0 0 1 24.018736134675446,6.953439040707552 Z M 82.07859595160373,11.451661418443905 L 81.97164379918271,10.457397249778182 A 157.73272748106876 157.73272748106876 0 0 0 101.96857591479564,6.993192212019153 L 101.26738750420324,4.076287206220899 L 108.89155233009029,5.843236754936608 L 102.90349379558549,10.882398886416825 L 102.2023053849931,7.96549388061857 A 158.73272748106876 158.73272748106876 0 0 1 82.07859595160373,11.451661418443905"/><text text-anchor="middle" pointer-events="none" font-size="8px" fill="#000000" x="63.0537016936975" y="14.848870292211899" transform="rotate(180 63.0537016936975 11.848870292211899)" font-family="sans-serif">SIMILAR</text></g><g class="relationship" transform="translate(269.5703045869003 41.3444664207141) rotate(182.26571483178452)"><path class="outline" fill="#A5ABB6" stroke="none" d="M 24.018736134675446,6.953439040707552 L 24.277555179777966,5.987513214418485 A 162.68881207114026 162.68881207114026 0 0 0 45.42849937748254,10.175677533989926 L 45.29968892933539,11.167346767377808 A 163.68881207114026 163.68881207114026 0 0 1 24.018736134675446,6.953439040707552 Z M 83.33476828780732,11.651021340851287 L 83.23121661616622,10.656397265483946 A 162.68881207114026 162.68881207114026 0 0 0 104.48182195433237,7.00743390808451 L 103.77930338589917,4.090848976866739 L 111.4042732219127,5.854321403610006 L 105.41851337890998,10.896213816374871 L 104.71599481047677,7.9796288851571 A 163.68881207114026 163.68881207114026 0 0 1 83.33476828780732,11.651021340851287"/><text text-anchor="middle" pointer-events="none" font-size="8px" fill="#000000" x="64.3094890311328" y="15.017806996525621" transform="rotate(180 64.3094890311328 12.017806996525621)" font-family="sans-serif">SIMILAR</text></g><g class="relationship" transform="translate(-138.0298228651139 185.82574179917003) rotate(339.57612236579826)"><path class="outline" fill="#A5ABB6" stroke="none" d="M 24.018736134675446,-6.953439040707552 L 24.277555179777966,-5.987513214418485 A 160.37275522338032 160.37275522338032 0 0 1 44.84400044538448,-10.07898706623493 L 44.71342291634845,-11.070425167636557 A 161.37275522338032 161.37275522338032 0 0 0 24.018736134675446,-6.953439040707552 Z M 82.74762816390255,-11.558104645261153 L 82.6425140782363,-10.563644475624102 A 160.37275522338032 160.37275522338032 0 0 1 103.30710348292082,-7.000840259969509 L 102.60520075230733,-4.084107060522342 L 110.22979807006647,-5.849189421779194 L 104.2429737904055,-10.889817859232398 L 103.541071059792,-7.973084659785231 A 161.37275522338032 161.37275522338032 0 0 0 82.74762816390255,-11.558104645261153"/><text text-anchor="middle" pointer-events="none" font-size="8px" fill="#000000" x="63.72251690573155" y="-8.938859662364592" font-family="sans-serif">SIMILAR</text></g><g class="relationship" transform="translate(-138.0298228651139 185.82574179917003) rotate(289.6228719183327)"><path class="outline" fill="#A5ABB6" stroke="none" d="M 24.018736134675446,-6.953439040707552 L 24.277555179777966,-5.987513214418485 A 65.98483401247644 65.98483401247644 0 0 1 25.1441793447942,-6.21343232359731 L 24.898493986818213,-7.182781953440028 A 66.98483401247644 66.98483401247644 0 0 0 24.018736134675446,-6.953439040707552 Z M 55.29981679879229,-7.768454285339686 L 55.09164833656904,-6.790361298279862 A 65.98483401247644 65.98483401247644 0 0 1 55.966330780110695,-6.597987936708603 L 55.30205796248661,-3.672455229018301 L 62.90328590099208,-5.535606813534104 L 56.85202787027615,-10.498698213629005 L 56.187755052652065,-7.573165505938703 A 66.98483401247644 66.98483401247644 0 0 0 55.29981679879229,-7.768454285339686"/><text text-anchor="middle" pointer-events="none" font-size="8px" fill="#000000" x="40.07511420415889" y="-5.723558131257846" font-family="sans-serif">SIMI…</text></g><g class="relationship" transform="translate(-138.0298228651139 185.82574179917003) rotate(390.0619257662814)"><path class="outline" fill="#A5ABB6" stroke="none" d="M 24.018736134675446,-6.953439040707552 L 24.277555179777966,-5.987513214418485 A 66.36458842696825 66.36458842696825 0 0 1 25.23529240366769,-6.236500025050589 L 24.990904808327624,-7.2061776535663284 A 67.36458842696825 67.36458842696825 0 0 0 24.018736134675446,-6.953439040707552 Z M 55.393980365609096,-7.790722594572983 L 55.18704663223293,-6.812367633431066 A 66.36458842696825 66.36458842696825 0 0 1 56.15364680156997,-6.600379108905945 L 55.489150604203566,-3.6748971308917935 L 63.09052078316406,-5.537468311386695 L 57.039641731391846,-10.501021746258147 L 56.37514553402544,-7.575539768243995 A 67.36458842696825 67.36458842696825 0 0 0 55.393980365609096,-7.790722594572983"/><text text-anchor="middle" pointer-events="none" font-size="8px" fill="#000000" x="40.16863966204062" y="-5.736476620058369" font-family="sans-serif">SIMI…</text></g><g class="relationship" transform="translate(168.8100978292606 -12.557671892659169) rotate(485.6730972695618)"><path class="outline" fill="#A5ABB6" stroke="none" d="M 24.018736134675446,-6.953439040707552 L 24.277555179777966,-5.987513214418485 A 8.722790978891965 8.722790978891965 0 0 1 26.297658224884074,-6.281500659005259 L 26.270428249151035,-7.281129854468045 A 9.722790978891965 9.722790978891965 0 0 0 24.018736134675446,-6.953439040707552 Z M 26.270428249151035,-7.281129854468045 L 26.297658224884074,-6.281500659005259 A 8.722790978891965 8.722790978891965 0 0 1 28.330770177185553,-6.097923100925549 L 27.71321878682197,-3.162172723209486 L 35.28377962358363,-5.146261586363198 L 29.15417203100366,-10.012256937880299 L 28.536620640640077,-7.076506560164237 A 9.722790978891965 9.722790978891965 0 0 0 26.270428249151035,-7.281129854468045"/><text text-anchor="middle" pointer-events="none" font-size="8px" fill="#000000" x="26.284043237017556" y="-3.7813152567366526" transform="rotate(180 26.284043237017556 -6.781315256736653)" font-family="sans-serif"/></g><g class="relationship" transform="translate(168.8100978292606 -12.557671892659169) rotate(451.54784517901913)"><path class="outline" fill="#A5ABB6" stroke="none" d="M 24.018736134675446,-6.953439040707552 L 24.277555179777966,-5.987513214418485 A 164.4641667950402 164.4641667950402 0 0 1 45.876743919895546,-10.249476803961812 L 45.74925554189838,-11.241316868425656 A 165.4641667950402 165.4641667950402 0 0 0 24.018736134675446,-6.953439040707552 Z M 83.78496508708312,-11.72196441180563 L 83.68258067581168,-10.727219503636405 A 164.4641667950402 164.4641667950402 0 0 1 105.38256977652225,-7.01241656150635 L 104.67958583641634,-4.095943763767069 L 112.30483696126488,-5.85819950088247 L 106.31988169666344,-10.901046958492058 L 105.61689775655753,-7.984574160752778 A 165.4641667950402 165.4641667950402 0 0 0 83.78496508708312,-11.72196441180563"/><text text-anchor="middle" pointer-events="none" font-size="8px" fill="#000000" x="64.75957017884295" y="-9.078324038130177" transform="rotate(180 64.75957017884295 -12.078324038130177)" font-family="sans-serif">SIMILAR</text></g><g class="relationship" transform="translate(168.8100978292606 -12.557671892659169) rotate(431.7925556781306)"><path class="outline" fill="#A5ABB6" stroke="none" d="M 24.018736134675446,-6.953439040707552 L 24.277555179777966,-5.987513214418485 A 223.1448590960126 223.1448590960126 0 0 1 60.76878918342426,-12.575635822625912 L 60.673501730093456,-13.571085621077714 A 224.1448590960126 224.1448590960126 0 0 0 24.018736134675446,-6.953439040707552 Z M 98.7183819690145,-13.968998368282428 L 98.64393597232393,-12.971773321677233 A 223.1448590960126 223.1448590960126 0 0 1 135.2649829341708,-7.148334644413566 L 134.54930493980498,-4.234950871482079 L 142.18215807007192,-5.963983286381889 L 136.2192202599919,-11.03284634165555 L 135.5035422656261,-8.119462568724062 A 224.1448590960126 224.1448590960126 0 0 0 98.7183819690145,-13.968998368282428"/><text text-anchor="middle" pointer-events="none" font-size="8px" fill="#000000" x="79.69271297276423" y="-11.078758495056292" font-family="sans-serif">SIMILAR</text></g><g class="relationship" transform="translate(168.8100978292606 -12.557671892659169) rotate(388.1447597793254)"><path class="outline" fill="#A5ABB6" stroke="none" d="M 24.018736134675446,-6.953439040707552 L 24.277555179777966,-5.987513214418485 A 120.20963221922506 120.20963221922506 0 0 1 34.768151665772464,-8.301502046464236 L 34.59660180444769,-9.286677485195554 A 121.20963221922506 121.20963221922506 0 0 0 24.018736134675446,-6.953439040707552 Z M 72.60012802853286,-9.855547597072174 L 72.45814236031038,-8.865678883545257 A 120.20963221922506 120.20963221922506 0 0 1 83.01329881036801,-6.8667213398243385 L 82.32392306990052,-3.947001988849852 L 89.94087325271974,-5.744797837229235 L 83.93246646432469,-10.759680474456987 L 83.2430907238572,-7.8399611234825 A 121.20963221922506 121.20963221922506 0 0 0 72.60012802853286,-9.855547597072174"/><text text-anchor="middle" pointer-events="none" font-size="8px" fill="#000000" x="53.58341215648122" y="-7.570035837090231" font-family="sans-serif">SIMILAR</text></g><g class="relationship" transform="translate(168.8100978292606 -12.557671892659169) rotate(411.1001204967353)"><path class="outline" fill="#A5ABB6" stroke="none" d="M 24.018736134675446,-6.953439040707552 L 24.277555179777966,-5.987513214418485 A 180.91568287830012 180.91568287830012 0 0 1 50.038038985279925,-10.921648477857417 L 49.92160938588859,-11.914847424889473 A 181.91568287830012 181.91568287830012 0 0 0 24.018736134675446,-6.953439040707552 Z M 87.96179811243903,-12.36910256957998 L 87.86911880970233,-11.373406558317384 A 180.91568287830012 180.91568287830012 0 0 1 113.74008155169153,-7.055825812801814 L 113.03304331033635,-4.1403332428813595 L 120.66073725506511,-5.891985344626473 L 114.68279920683176,-10.94314923936242 L 113.97576096547658,-8.027656669441965 A 181.91568287830012 181.91568287830012 0 0 0 87.96179811243903,-12.36910256957998"/><text text-anchor="middle" pointer-events="none" font-size="8px" fill="#000000" x="68.9357669693314" y="-9.639132218000299" font-family="sans-serif">SIMILAR</text></g><g class="relationship" transform="translate(168.8100978292606 -12.557671892659169) rotate(477.3869003026908)"><path class="outline" fill="#A5ABB6" stroke="none" d="M 24.018736134675446,6.953439040707552 L 24.277555179777966,5.987513214418485 A 128.35205986831306 128.35205986831306 0 0 0 36.799825633590125,8.681186231853886 L 36.6385684855593,9.66809865563269 A 129.35205986831306 129.35205986831306 0 0 1 24.018736134675446,6.953439040707552 Z M 74.65170628418629,10.21849499855901 L 74.51908996907068,9.227327549050514 A 128.35205986831306 128.35205986831306 0 0 0 87.11409868867962,6.897330339556711 L 86.42186392515741,3.9782875114756715 L 94.04057108145575,5.768623029351735 L 88.0370783733759,10.789387443664765 L 87.3448436098537,7.870344615583725 A 129.35205986831306 129.35205986831306 0 0 1 74.65170628418629,10.21849499855901"/><text text-anchor="middle" pointer-events="none" font-size="8px" fill="#000000" x="55.63204534136552" y="13.847499153844325" transform="rotate(180 55.63204534136552 10.847499153844325)" font-family="sans-serif">SIMILAR</text></g><g class="relationship" transform="translate(168.8100978292606 -12.557671892659169) rotate(370.69652460767304)"><path class="outline" fill="#A5ABB6" stroke="none" d="M 24.018736134675446,6.953439040707552 L 24.277555179777966,5.987513214418485 A 9.073713230070231 9.073713230070231 0 0 0 26.37953318573213,6.293344386766018 L 26.352369908522757,7.292975396874871 A 10.073713230070231 10.073713230070231 0 0 1 24.018736134675446,6.953439040707552 Z M 26.352369908522757,7.292975396874871 L 26.37953318573213,6.293344386766018 A 9.073713230070231 9.073713230070231 0 0 0 28.49501795267862,6.1021156119651785 L 27.87707480246999,3.1664476704039677 L 35.44790034135622,5.149526251738578 L 29.318942152956794,10.016339534046793 L 28.700999002748166,7.080671592485581 A 10.073713230070231 10.073713230070231 0 0 1 26.352369908522757,7.292975396874871"/><text text-anchor="middle" pointer-events="none" font-size="8px" fill="#000000" x="26.365951547127445" y="9.793159891820444" font-family="sans-serif"/></g><g class="relationship" transform="translate(168.8100978292606 -12.557671892659169) rotate(429.4186048654425)"><path class="outline" fill="#A5ABB6" stroke="none" d="M 24.018736134675446,-6.953439040707552 L 24.277555179777966,-5.987513214418485 A 54.51436219692894 54.51436219692894 0 0 1 26.68063842598131,-6.573324454216063 L 26.4659010347652,-7.549996278737325 A 55.51436219692894 55.51436219692894 0 0 0 24.018736134675446,-6.953439040707552 Z M 48.07696564615938,-7.992801726419508 L 47.90241522506609,-7.008153489486055 A 54.51436219692894 54.51436219692894 0 0 1 50.327477729393316,-6.521269779589585 L 49.67037195578275,-3.594118946050654 L 57.26701396991925,-5.475881446754745 L 51.20361876087407,-10.424137557641492 L 50.546512987263505,-7.496986724102562 A 55.51436219692894 55.51436219692894 0 0 0 48.07696564615938,-7.992801726419508"/><text text-anchor="middle" pointer-events="none" font-size="8px" fill="#000000" x="37.25991602075192" y="-5.333500353665443" font-family="sans-serif">SI…</text></g><g class="relationship" transform="translate(114.36215103086927 92.54187138185083) rotate(297.3869003026908)"><path class="outline" fill="#A5ABB6" stroke="none" d="M 24.018736134675446,6.953439040707552 L 24.277555179777966,5.987513214418485 A 128.35205986831306 128.35205986831306 0 0 0 36.799825633590125,8.681186231853886 L 36.6385684855593,9.66809865563269 A 129.35205986831306 129.35205986831306 0 0 1 24.018736134675446,6.953439040707552 Z M 74.65170628418629,10.21849499855901 L 74.51908996907068,9.227327549050514 A 128.35205986831306 128.35205986831306 0 0 0 87.11409868867962,6.897330339556711 L 86.42186392515741,3.9782875114756715 L 94.04057108145575,5.768623029351735 L 88.0370783733759,10.789387443664765 L 87.3448436098537,7.870344615583725 A 129.35205986831306 129.35205986831306 0 0 1 74.65170628418629,10.21849499855901"/><text text-anchor="middle" pointer-events="none" font-size="8px" fill="#000000" x="55.63204534136552" y="13.847499153844325" font-family="sans-serif">SIMILAR</text></g><g class="relationship" transform="translate(114.36215103086927 92.54187138185083) rotate(341.74419639197527)"><path class="outline" fill="#A5ABB6" stroke="none" d="M 24.018736134675446,6.953439040707552 L 24.277555179777966,5.987513214418485 A 217.2130789723215 217.2130789723215 0 0 0 59.25801648147933,12.348062414991546 L 59.16023958663406,13.343270774499445 A 218.2130789723215 218.2130789723215 0 0 1 24.018736134675446,6.953439040707552 Z M 97.20482729300355,13.748255421882789 L 97.12825814092284,12.751191148653817 A 217.2130789723215 217.2130789723215 0 0 0 132.23619339992757,7.1367329501932835 L 131.5215989089115,4.223083226322988 L 139.15380850412762,5.954954091800778 L 133.1889860546157,11.02159924868701 L 132.47439156359962,8.107949524816716 A 218.2130789723215 218.2130789723215 0 0 1 97.20482729300355,13.748255421882789"/><text text-anchor="middle" pointer-events="none" font-size="8px" fill="#000000" x="78.17901237009255" y="16.8765352568048" font-family="sans-serif">SIMILAR</text></g><g class="relationship" transform="translate(114.36215103086927 92.54187138185083) rotate(386.4773448002399)"><path class="outline" fill="#A5ABB6" stroke="none" d="M 24.018736134675446,6.953439040707552 L 24.277555179777966,5.987513214418485 A 129.48231553668322 129.48231553668322 0 0 0 37.08237013380101,8.732936167950939 L 36.9224434733531,9.720065066969681 A 130.48231553668322 130.48231553668322 0 0 1 24.018736134675446,6.953439040707552 Z M 74.93672925343475,10.267986702174653 L 74.80531922489361,9.276658600888908 A 129.48231553668322 129.48231553668322 0 0 0 87.68394111932679,6.901425706880444 L 86.99132383292495,3.982473618445733 L 94.61026554007475,5.771810720015283 L 88.60743083452924,10.793361824793392 L 87.9148135481274,7.874409736358681 A 130.48231553668322 130.48231553668322 0 0 1 74.93672925343475,10.267986702174653"/><text text-anchor="middle" pointer-events="none" font-size="8px" fill="#000000" x="55.91672959629066" y="13.886016248647707" font-family="sans-serif">SIMILAR</text></g><g class="relationship" transform="translate(114.36215103086927 92.54187138185083) rotate(519.8553253654084)"><path class="outline" fill="#A5ABB6" stroke="none" d="M 24.018736134675446,-6.953439040707552 L 24.277555179777966,-5.987513214418485 A 160.38881247315942 160.38881247315942 0 0 1 44.84805173864358,-10.079659078708914 L 44.717486629970125,-11.071098815857425 A 161.38881247315942 161.38881247315942 0 0 0 24.018736134675446,-6.953439040707552 Z M 82.75169814858306,-11.558750306395495 L 82.64659505364459,-10.564288975103864 A 160.38881247315942 160.38881247315942 0 0 1 103.31524639174673,-7.0008863432223745 L 102.61333935701228,-4.084154179551824 L 110.23793927943376,-5.849225289453749 L 104.25112243805933,-10.889862561449775 L 103.54921540332488,-7.973130397779224 A 161.38881247315942 161.38881247315942 0 0 0 82.75169814858306,-11.558750306395495"/><text text-anchor="middle" pointer-events="none" font-size="8px" fill="#000000" x="63.72658565583962" y="-8.939407002016964" transform="rotate(180 63.72658565583962 -11.939407002016964)" font-family="sans-serif">SIMILAR</text></g><g class="relationship" transform="translate(114.36215103086927 92.54187138185083) rotate(340.9881325286466)"><path class="outline" fill="#A5ABB6" stroke="none" d="M 24.018736134675446,6.953439040707552 L 24.277555179777966,5.987513214418485 A 67.34534984352551 67.34534984352551 0 0 0 25.47085395130125,6.295582143759901 L 25.22975400297818,7.266082434805 A 68.34534984352551 68.34534984352551 0 0 1 24.018736134675446,6.953439040707552 Z M 55.63718886078668,7.847732005660276 L 55.43338019532074,6.868721266249835 A 67.34534984352551 67.34534984352551 0 0 0 56.63758752999773,6.606513107615171 L 55.97251830489257,3.681161346575481 L 63.57425317660787,5.542243542543061 L 57.52434649680462,10.506982122334756 L 56.859277271699455,7.581630361295066 A 68.34534984352551 68.34534984352551 0 0 1 55.63718886078668,7.847732005660276"/><text text-anchor="middle" pointer-events="none" font-size="8px" fill="#000000" x="40.41026978167728" y="11.769841437943015" font-family="sans-serif">SIMI…</text></g><g class="relationship" transform="translate(114.36215103086927 92.54187138185083) rotate(391.790336810871)"><path class="outline" fill="#A5ABB6" stroke="none" d="M 24.018736134675446,6.953439040707552 L 24.277555179777966,5.987513214418485 A 8.654312808220784 8.654312808220784 0 0 0 26.2816864962086,6.279189636901441 L 26.254443471160137,7.2788184768146404 A 9.654312808220784 9.654312808220784 0 0 1 24.018736134675446,6.953439040707552 Z M 26.254443471160137,7.2788184768146404 L 26.2816864962086,6.279189636901441 A 8.654312808220784 8.654312808220784 0 0 0 28.298729348184732,6.097102838306935 L 27.681254605531855,3.161336338364243 L 35.25176363849316,5.1456228554406644 L 29.12202900505524,10.011458171563856 L 28.504554262402362,7.075691671621165 A 9.654312808220784 9.654312808220784 0 0 1 26.254443471160137,7.2788184768146404"/><text text-anchor="middle" pointer-events="none" font-size="8px" fill="#000000" x="26.26806498368437" y="9.77900405685804" font-family="sans-serif"/></g><g class="relationship" transform="translate(114.36215103086927 92.54187138185083) rotate(320.32980134351646)"><path class="outline" fill="#A5ABB6" stroke="none" d="M 24.018736134675446,-6.953439040707552 L 24.277555179777966,-5.987513214418485 A 185.36715915578387 185.36715915578387 0 0 1 51.166140672240445,-11.100322138037342 L 51.05237744832502,-12.093830028737955 A 186.36715915578387 186.36715915578387 0 0 0 24.018736134675446,-6.953439040707552 Z M 89.09343599839228,-12.541422410916482 L 89.00308032752824,-11.545512850392669 A 185.36715915578387 185.36715915578387 0 0 1 116.00452027461233,-7.066775789690068 L 115.29645935106979,-4.151531421107551 L 122.92476728856197,-5.900507696187882 L 116.9486015060024,-10.953768281133424 L 116.24054058245986,-8.038523912550907 A 186.36715915578387 186.36715915578387 0 0 0 89.09343599839228,-12.541422410916482"/><text text-anchor="middle" pointer-events="none" font-size="8px" fill="#000000" x="70.06733838397233" y="-9.79088164832919" font-family="sans-serif">SIMILAR</text></g><g class="relationship" transform="translate(114.36215103086927 92.54187138185083) rotate(363.03457637796447)"><path class="outline" fill="#A5ABB6" stroke="none" d="M 24.018736134675446,-6.953439040707552 L 24.277555179777966,-5.987513214418485 A 182.33842676355505 182.33842676355505 0 0 1 50.398502138753464,-10.978889098197897 L 50.282938398759214,-11.972189164642344 A 183.33842676355505 183.33842676355505 0 0 0 24.018736134675446,-6.953439040707552 Z M 88.3234184834048,-12.424293887924819 L 88.23149446016157,-11.428527864227107 A 182.33842676355505 182.33842676355505 0 0 1 114.46368990755325,-7.059360294010826 L 113.75632155974326,-4.143947798236589 L 121.3842137889948,-5.894736231749897 L 115.40684770463322,-10.946576955043144 L 114.69947935682323,-8.031164459268906 A 183.33842676355505 183.33842676355505 0 0 0 88.3234184834048,-12.424293887924819"/><text text-anchor="middle" pointer-events="none" font-size="8px" fill="#000000" x="69.2973621065288" y="-9.687632915806489" font-family="sans-serif">SIMILAR</text></g><g class="relationship" transform="translate(114.36215103086927 92.54187138185083) rotate(289.1167972949803)"><path class="outline" fill="#A5ABB6" stroke="none" d="M 24.018736134675446,6.953439040707552 L 24.277555179777966,5.987513214418485 A 8.970728579284831 8.970728579284831 0 0 0 26.355500875099935,6.289868504380138 L 26.328318054074057,7.289498983227734 A 9.970728579284831 9.970728579284831 0 0 1 24.018736134675446,6.953439040707552 Z M 26.328318054074057,7.289498983227734 L 26.355500875099935,6.289868504380138 A 8.970728579284831 8.970728579284831 0 0 0 28.44680742371397,6.100887146042998 L 27.828979064675966,3.1651950438687244 L 35.39972705529361,5.148569658650034 L 29.270578569097975,10.015143282275364 L 28.65275021005997,7.07945118010109 A 9.970728579284831 9.970728579284831 0 0 1 26.328318054074057,7.289498983227734"/><text text-anchor="middle" pointer-events="none" font-size="8px" fill="#000000" x="26.341909464586998" y="9.789683743803936" font-family="sans-serif"/></g><g class="relationship" transform="translate(227.6808736477386 -1.4376216985209544) rotate(432.45230246234615)"><path class="outline" fill="#A5ABB6" stroke="none" d="M 24.018736134675446,-6.953439040707552 L 24.277555179777966,-5.987513214418485 A 105.01241404747856 105.01241404747856 0 0 1 30.997265584532546,-7.553387437868835 L 30.802436215943093,-8.534224589048904 A 106.01241404747856 106.01241404747856 0 0 0 24.018736134675446,-6.953439040707552 Z M 68.7793805560348,-9.140876698517602 L 68.61597881856639,-8.154317084407893 A 105.01241404747856 105.01241404747856 0 0 1 75.38227516396836,-6.803871315917646 L 74.6987700524957,-3.8827720771736494 L 82.31209090628312,-5.6958759289387855 L 76.29361531259856,-10.69867030090964 L 75.6101102011259,-7.777571062165644 A 106.01241404747856 106.01241404747856 0 0 0 68.7793805560348,-9.140876698517602"/><text text-anchor="middle" pointer-events="none" font-size="8px" fill="#000000" x="49.77150427137933" y="-7.0522649240048025" font-family="sans-serif">SIMILAR</text></g><g class="relationship" transform="translate(227.6808736477386 -1.4376216985209544) rotate(452.6713101126509)"><path class="outline" fill="#A5ABB6" stroke="none" d="M 24.018736134675446,6.953439040707552 L 24.277555179777966,5.987513214418485 A 185.26353188176404 185.26353188176404 0 0 0 51.139869813343836,11.096176582728617 L 51.02604592384867,12.089677524942658 A 186.26353188176404 186.26353188176404 0 0 1 24.018736134675446,6.953439040707552 Z M 89.06708558502972,12.53742284362309 L 88.97667712009208,11.54151807434664 A 185.26353188176404 185.26353188176404 0 0 0 115.95179197097252,7.066524480473486 L 115.24375451859672,4.151274411262754 L 122.87204837452687,5.9003121031317285 L 116.8958419074736,10.953524572754462 L 116.18780445509779,8.03827450354373 A 186.26353188176404 186.26353188176404 0 0 1 89.06708558502972,12.53742284362309"/><text text-anchor="middle" pointer-events="none" font-size="8px" fill="#000000" x="70.04098911387197" y="15.787349007281904" transform="rotate(180 70.04098911387197 12.787349007281904)" font-family="sans-serif">SIMILAR</text></g><g class="relationship" transform="translate(227.6808736477386 -1.4376216985209544) rotate(190.69652460767304)"><path class="outline" fill="#A5ABB6" stroke="none" d="M 24.018736134675446,6.953439040707552 L 24.277555179777966,5.987513214418485 A 9.073713230070231 9.073713230070231 0 0 0 26.37953318573213,6.293344386766018 L 26.352369908522757,7.292975396874871 A 10.073713230070231 10.073713230070231 0 0 1 24.018736134675446,6.953439040707552 Z M 26.352369908522757,7.292975396874871 L 26.37953318573213,6.293344386766018 A 9.073713230070231 9.073713230070231 0 0 0 28.49501795267862,6.1021156119651785 L 27.87707480246999,3.1664476704039677 L 35.44790034135622,5.149526251738578 L 29.318942152956794,10.016339534046793 L 28.700999002748166,7.080671592485581 A 10.073713230070231 10.073713230070231 0 0 1 26.352369908522757,7.292975396874871"/><text text-anchor="middle" pointer-events="none" font-size="8px" fill="#000000" x="26.365951547127445" y="9.793159891820444" transform="rotate(180 26.365951547127445 6.793159891820444)" font-family="sans-serif"/></g><g class="relationship" transform="translate(227.6808736477386 -1.4376216985209544) rotate(476.5070576184464)"><path class="outline" fill="#A5ABB6" stroke="none" d="M 24.018736134675446,6.953439040707552 L 24.277555179777966,5.987513214418485 A 171.49528512634933 171.49528512634933 0 0 0 47.65360518374326,10.539209128192823 L 47.53109338456148,11.53167618510767 A 172.49528512634933 172.49528512634933 0 0 1 24.018736134675446,6.953439040707552 Z M 85.56899319457375,12.000688164620328 L 85.47098940237487,11.00550212336239 A 171.49528512634933 171.49528512634933 0 0 0 108.9521615524274,7.0315615174963995 L 108.24738951615281,4.115520300900625 L 115.87371973052997,5.873100302288306 L 109.89185760079353,10.919616472957431 L 109.18708556451894,8.003575256361657 A 172.49528512634933 172.49528512634933 0 0 1 85.56899319457375,12.000688164620328"/><text text-anchor="middle" pointer-events="none" font-size="8px" fill="#000000" x="66.543239302375" y="15.318000453387043" transform="rotate(180 66.543239302375 12.318000453387043)" font-family="sans-serif">SIMILAR</text></g><g class="relationship" transform="translate(227.6808736477386 -1.4376216985209544) rotate(405.60402358183023)"><path class="outline" fill="#A5ABB6" stroke="none" d="M 24.018736134675446,-6.953439040707552 L 24.277555179777966,-5.987513214418485 A 8.994998342915276 8.994998342915276 0 0 1 26.36116408064702,-6.290687635356438 L 26.333985867642056,-7.290318239498715 A 9.994998342915276 9.994998342915276 0 0 0 24.018736134675446,-6.953439040707552 Z M 26.333985867642056,-7.290318239498715 L 26.36116408064702,-6.290687635356438 A 8.994998342915276 8.994998342915276 0 0 1 28.458168234687232,-6.1011767933713745 L 27.840312810214712,-3.1654903873583136 L 35.411079086129796,-5.14879520393767 L 29.28197546731726,-10.01542533472212 L 28.66412004284474,-7.079738928709061 A 9.994998342915276 9.994998342915276 0 0 0 26.333985867642056,-7.290318239498715"/><text text-anchor="middle" pointer-events="none" font-size="8px" fill="#000000" x="26.347574974144536" y="-3.7905029374275774" font-family="sans-serif"/></g><g class="relationship" transform="translate(227.6808736477386 -1.4376216985209544) rotate(474.78448216168067)"><path class="outline" fill="#A5ABB6" stroke="none" d="M 24.018736134675446,6.953439040707552 L 24.277555179777966,5.987513214418485 A 34.49397574386371 34.49397574386371 0 0 0 32.411558150005796,7.153734399362072 L 32.38854848305751,8.153469641927288 A 35.49397574386371 35.49397574386371 0 0 1 24.018736134675446,6.953439040707552 Z M 32.38854848305751,8.153469641927288 L 32.411558150005796,7.153734399362072 A 34.49397574386371 34.49397574386371 0 0 0 40.59060262243411,6.362970408069027 L 39.94828615242091,3.4325387756384425 L 47.53532917644101,5.352637250109995 L 41.44702458245171,10.27021258464314 L 40.80470811243851,7.339780952212556 A 35.49397574386371 35.49397574386371 0 0 1 32.38854848305751,8.153469641927288"/><text text-anchor="middle" pointer-events="none" font-size="8px" fill="#000000" x="32.400053316531654" y="10.653602020644676" transform="rotate(180 32.400053316531654 7.653602020644676)" font-family="sans-serif"/></g><g class="relationship" transform="translate(227.6808736477386 -1.4376216985209544) rotate(500.32980134351646)"><path class="outline" fill="#A5ABB6" stroke="none" d="M 24.018736134675446,-6.953439040707552 L 24.277555179777966,-5.987513214418485 A 185.36715915578387 185.36715915578387 0 0 1 51.166140672240445,-11.100322138037342 L 51.05237744832502,-12.093830028737955 A 186.36715915578387 186.36715915578387 0 0 0 24.018736134675446,-6.953439040707552 Z M 89.09343599839228,-12.541422410916482 L 89.00308032752824,-11.545512850392669 A 185.36715915578387 185.36715915578387 0 0 1 116.00452027461233,-7.066775789690068 L 115.29645935106979,-4.151531421107551 L 122.92476728856197,-5.900507696187882 L 116.9486015060024,-10.953768281133424 L 116.24054058245986,-8.038523912550907 A 186.36715915578387 186.36715915578387 0 0 0 89.09343599839228,-12.541422410916482"/><text text-anchor="middle" pointer-events="none" font-size="8px" fill="#000000" x="70.06733838397233" y="-9.79088164832919" transform="rotate(180 70.06733838397233 -12.79088164832919)" font-family="sans-serif">SIMILAR</text></g><g class="relationship" transform="translate(227.6808736477386 -1.4376216985209544) rotate(518.2346876619035)"><path class="outline" fill="#A5ABB6" stroke="none" d="M 24.018736134675446,6.953439040707552 L 24.277555179777966,5.987513214418485 A 93.49778674153868 93.49778674153868 0 0 0 28.16389378214247,6.940210290991729 L 27.946640839701907,7.916325632025206 A 94.49778674153868 94.49778674153868 0 0 1 24.018736134675446,6.953439040707552 Z M 65.89148602803851,8.55482056238489 L 65.70719681275511,7.57194850299453 A 93.49778674153868 93.49778674153868 0 0 0 69.62338808335838,6.750543983898936 L 68.9448642672259,3.82828365481444 L 76.55508282057761,5.654365134437254 L 70.52808650486834,10.646891089344932 L 69.84956268873586,7.724630760260435 A 94.49778674153868 94.49778674153868 0 0 1 65.89148602803851,8.55482056238489"/><text text-anchor="middle" pointer-events="none" font-size="8px" fill="#000000" x="46.895093564082856" y="12.66006835162058" transform="rotate(180 46.895093564082856 9.66006835162058)" font-family="sans-serif">SIMILAR</text></g><g class="relationship" transform="translate(-11.951293613981038 138.87773842448968) rotate(200.0237797384047)"><path class="outline" fill="#A5ABB6" stroke="none" d="M 24.018736134675446,-6.953439040707552 L 24.277555179777966,-5.987513214418485 A 97.68065793192056 97.68065793192056 0 0 1 29.19033304977468,-7.168595405040051 L 28.98180827964951,-8.146612490905241 A 98.68065793192056 98.68065793192056 0 0 0 24.018736134675446,-6.953439040707552 Z M 66.93991638474182,-8.77319591021309 L 66.76378514526398,-7.788829217115435 A 97.68065793192056 97.68065793192056 0 0 1 71.71286857145243,-6.770539090697793 L 71.03247700008764,-3.848713067537662 L 78.6438612207202,-5.669929761373293 L 72.62005733327216,-10.666307121577967 L 71.93966576190736,-7.744481098417837 A 98.68065793192056 98.68065793192056 0 0 0 66.93991638474182,-8.77319591021309"/><text text-anchor="middle" pointer-events="none" font-size="8px" fill="#000000" x="47.93869934036119" y="-6.802527088529658" transform="rotate(180 47.93869934036119 -9.802527088529658)" font-family="sans-serif">SIMILAR</text></g><g class="relationship" transform="translate(-11.951293613981038 138.87773842448968) rotate(339.85532536540836)"><path class="outline" fill="#A5ABB6" stroke="none" d="M 24.018736134675446,-6.953439040707552 L 24.277555179777966,-5.987513214418485 A 160.38881247315942 160.38881247315942 0 0 1 44.84805173864358,-10.079659078708914 L 44.717486629970125,-11.071098815857425 A 161.38881247315942 161.38881247315942 0 0 0 24.018736134675446,-6.953439040707552 Z M 82.75169814858306,-11.558750306395495 L 82.64659505364459,-10.564288975103864 A 160.38881247315942 160.38881247315942 0 0 1 103.31524639174673,-7.0008863432223745 L 102.61333935701228,-4.084154179551824 L 110.23793927943376,-5.849225289453749 L 104.25112243805933,-10.889862561449775 L 103.54921540332488,-7.973130397779224 A 161.38881247315942 161.38881247315942 0 0 0 82.75169814858306,-11.558750306395495"/><text text-anchor="middle" pointer-events="none" font-size="8px" fill="#000000" x="63.72658565583962" y="-8.939407002016964" font-family="sans-serif">SIMILAR</text></g><g class="relationship" transform="translate(-11.951293613981038 138.87773842448968) rotate(479.03058245777146)"><path class="outline" fill="#A5ABB6" stroke="none" d="M 24.018736134675446,-6.953439040707552 L 24.277555179777966,-5.987513214418485 A 99.31269884238199 99.31269884238199 0 0 1 29.591739906932897,-7.255864204267638 L 29.386430481336227,-8.234561317659299 A 100.31269884238199 100.31269884238199 0 0 0 24.018736134675446,-6.953439040707552 Z M 67.34917653254217,-8.856605508996978 L 67.17604188785363,-7.871707344307566 A 99.31269884238199 99.31269884238199 0 0 1 72.5289281244538,-6.778143223739159 L 71.84782625148424,-3.856482696121799 L 79.4596530010559,-5.675848941413062 L 73.43706395507988,-10.673690593895639 L 72.75596208211032,-7.752030066278278 A 100.31269884238199 100.31269884238199 0 0 0 67.34917653254217,-8.856605508996978"/><text text-anchor="middle" pointer-events="none" font-size="8px" fill="#000000" x="48.34629683079661" y="-6.858114735340706" transform="rotate(180 48.34629683079661 -9.858114735340706)" font-family="sans-serif">SIMILAR</text></g><g class="relationship" transform="translate(-11.951293613981038 138.87773842448968) rotate(519.5761223657983)"><path class="outline" fill="#A5ABB6" stroke="none" d="M 24.018736134675446,-6.953439040707552 L 24.277555179777966,-5.987513214418485 A 160.37275522338032 160.37275522338032 0 0 1 44.84400044538448,-10.07898706623493 L 44.71342291634845,-11.070425167636557 A 161.37275522338032 161.37275522338032 0 0 0 24.018736134675446,-6.953439040707552 Z M 82.74762816390255,-11.558104645261153 L 82.6425140782363,-10.563644475624102 A 160.37275522338032 160.37275522338032 0 0 1 103.30710348292082,-7.000840259969509 L 102.60520075230733,-4.084107060522342 L 110.22979807006647,-5.849189421779194 L 104.2429737904055,-10.889817859232398 L 103.541071059792,-7.973084659785231 A 161.37275522338032 161.37275522338032 0 0 0 82.74762816390255,-11.558104645261153"/><text text-anchor="middle" pointer-events="none" font-size="8px" fill="#000000" x="63.72251690573155" y="-8.938859662364592" transform="rotate(180 63.72251690573155 -11.938859662364592)" font-family="sans-serif">SIMILAR</text></g></g><g class="layer nodes"><g class="node" transform="translate(133.96725019052013,35.979357482725504)"><circle class="outline" cx="0" cy="0" r="25" fill="#FFC454" stroke="#d7a013" stroke-width="2px"/><text text-anchor="middle" pointer-events="none" font-family="sans-serif" dy="1.5625" font-size="25" fill="#604A0E"/><text text-anchor="middle" pointer-events="none" font-family="sans-serif" dy="1.5625" font-size="25" fill="#604A0E"/><text text-anchor="middle" pointer-events="none" y="0" font-size="10px" fill="#604A0E" font-family="sans-serif"> Zachary</text><text text-anchor="middle" pointer-events="none" y="10" font-size="10px" fill="#604A0E" font-family="sans-serif"> Lamb</text></g><g class="node" transform="translate(220.82202502480533,145.56825769593436)"><circle class="outline" cx="0" cy="0" r="25" fill="#FFC454" stroke="#d7a013" stroke-width="2px"/><text text-anchor="middle" pointer-events="none" font-family="sans-serif" dy="1.5625" font-size="25" fill="#604A0E"/><text text-anchor="middle" pointer-events="none" font-family="sans-serif" dy="1.5625" font-size="25" fill="#604A0E"/><text text-anchor="middle" pointer-events="none" y="0" font-size="10px" fill="#604A0E" font-family="sans-serif"> Hailey</text><text text-anchor="middle" pointer-events="none" y="10" font-size="10px" fill="#604A0E" font-family="sans-serif"> Lamb</text></g><g class="node" transform="translate(259.83719299061516,100.25392925097927)"><circle class="outline" cx="0" cy="0" r="25" fill="#FFC454" stroke="#d7a013" stroke-width="2px"/><text text-anchor="middle" pointer-events="none" font-family="sans-serif" dy="1.5625" font-size="25" fill="#604A0E"/><text text-anchor="middle" pointer-events="none" font-family="sans-serif" dy="1.5625" font-size="25" fill="#604A0E"/><text text-anchor="middle" pointer-events="none" y="0" font-size="10px" fill="#604A0E" font-family="sans-serif"> Jeremiah</text><text text-anchor="middle" pointer-events="none" y="10" font-size="10px" fill="#604A0E" font-family="sans-serif"> Lamb</text></g><g class="node" transform="translate(197.51664252605696,63.89021687863671)"><circle class="outline" cx="0" cy="0" r="25" fill="#FFC454" stroke="#d7a013" stroke-width="2px"/><text text-anchor="middle" pointer-events="none" font-family="sans-serif" dy="1.5625" font-size="25" fill="#604A0E"/><text text-anchor="middle" pointer-events="none" font-family="sans-serif" dy="1.5625" font-size="25" fill="#604A0E"/><text text-anchor="middle" pointer-events="none" y="0" font-size="10px" fill="#604A0E" font-family="sans-serif"> Avery</text><text text-anchor="middle" pointer-events="none" y="10" font-size="10px" fill="#604A0E" font-family="sans-serif"> Lamb</text></g><g class="node" transform="translate(269.5703045869003,41.3444664207141)"><circle class="outline" cx="0" cy="0" r="25" fill="#FFC454" stroke="#d7a013" stroke-width="2px"/><text text-anchor="middle" pointer-events="none" font-family="sans-serif" dy="1.5625" font-size="25" fill="#604A0E"/><text text-anchor="middle" pointer-events="none" font-family="sans-serif" dy="1.5625" font-size="25" fill="#604A0E"/><text text-anchor="middle" pointer-events="none" y="0" font-size="10px" fill="#604A0E" font-family="sans-serif"> Ryan</text><text text-anchor="middle" pointer-events="none" y="10" font-size="10px" fill="#604A0E" font-family="sans-serif"> Lamb</text></g><g class="node" transform="translate(114.36215103086927,92.54187138185083)"><circle class="outline" cx="0" cy="0" r="25" fill="#FFE081" stroke="#9AA1AC" stroke-width="2px"/><text text-anchor="middle" pointer-events="none" font-family="sans-serif" dy="1.5625" font-size="25" fill="#FFFFFF"/><text text-anchor="middle" pointer-events="none" font-family="sans-serif" dy="1.5625" font-size="25" fill="#FFFFFF"/><text text-anchor="middle" pointer-events="none" y="0" font-size="10px" fill="#FFFFFF" font-family="sans-serif"> Luke</text><text text-anchor="middle" pointer-events="none" y="10" font-size="10px" fill="#FFFFFF" font-family="sans-serif"> Mueller</text></g><g class="node" transform="translate(227.6808736477386,-1.4376216985209544)"><circle class="outline" cx="0" cy="0" r="25" fill="#FFE081" stroke="#9AA1AC" stroke-width="2px"/><text text-anchor="middle" pointer-events="none" font-family="sans-serif" dy="1.5625" font-size="25" fill="#FFFFFF"/><text text-anchor="middle" pointer-events="none" font-family="sans-serif" dy="1.5625" font-size="25" fill="#FFFFFF"/><text text-anchor="middle" pointer-events="none" y="0" font-size="10px" fill="#FFFFFF" font-family="sans-serif"> Brody</text><text text-anchor="middle" pointer-events="none" y="10" font-size="10px" fill="#FFFFFF" font-family="sans-serif"> Campbell</text></g><g class="node" transform="translate(168.8100978292606,-12.557671892659169)"><circle class="outline" cx="0" cy="0" r="25" fill="#FFE081" stroke="#9AA1AC" stroke-width="2px"/><text text-anchor="middle" pointer-events="none" font-family="sans-serif" dy="1.5625" font-size="25" fill="#FFFFFF"/><text text-anchor="middle" pointer-events="none" font-family="sans-serif" dy="1.5625" font-size="25" fill="#FFFFFF"/><text text-anchor="middle" pointer-events="none" y="0" font-size="10px" fill="#FFFFFF" font-family="sans-serif"> Brody</text><text text-anchor="middle" pointer-events="none" y="10" font-size="10px" fill="#FFFFFF" font-family="sans-serif"> Lamb</text></g><g class="node" transform="translate(165.12006132200736,124.00125885989362)"><circle class="outline" cx="0" cy="0" r="25" fill="#FFC454" stroke="#d7a013" stroke-width="2px"/><text text-anchor="middle" pointer-events="none" font-family="sans-serif" dy="1.5625" font-size="25" fill="#604A0E"/><text text-anchor="middle" pointer-events="none" font-family="sans-serif" dy="1.5625" font-size="25" fill="#604A0E"/><text text-anchor="middle" pointer-events="none" y="0" font-size="10px" fill="#604A0E" font-family="sans-serif"> Peyton</text><text text-anchor="middle" pointer-events="none" y="10" font-size="10px" fill="#604A0E" font-family="sans-serif"> Lamb</text></g><g class="node" transform="translate(-108.71787448404345,103.61209458333889)"><circle class="outline" cx="0" cy="0" r="25" fill="#FFC454" stroke="#d7a013" stroke-width="2px"/><text text-anchor="middle" pointer-events="none" font-family="sans-serif" dy="1.5625" font-size="25" fill="#604A0E"/><text text-anchor="middle" pointer-events="none" font-family="sans-serif" dy="1.5625" font-size="25" fill="#604A0E"/><text text-anchor="middle" pointer-events="none" y="0" font-size="10px" fill="#604A0E" font-family="sans-serif"> Chase</text><text text-anchor="middle" pointer-events="none" y="10" font-size="10px" fill="#604A0E" font-family="sans-serif"> Campbell</text></g><g class="node" transform="translate(-138.0298228651139,185.82574179917003)"><circle class="outline" cx="0" cy="0" r="25" fill="#FFC454" stroke="#d7a013" stroke-width="2px"/><text text-anchor="middle" pointer-events="none" font-family="sans-serif" dy="1.5625" font-size="25" fill="#604A0E"/><text text-anchor="middle" pointer-events="none" font-family="sans-serif" dy="1.5625" font-size="25" fill="#604A0E"/><text text-anchor="middle" pointer-events="none" y="0" font-size="10px" fill="#604A0E" font-family="sans-serif"> Easton</text><text text-anchor="middle" pointer-events="none" y="10" font-size="10px" fill="#604A0E" font-family="sans-serif"> Campbell</text></g><g class="node" transform="translate(-62.32629468008067,229.64235702642927)"><circle class="outline" cx="0" cy="0" r="25" fill="#FFC454" stroke="#d7a013" stroke-width="2px"/><text text-anchor="middle" pointer-events="none" font-family="sans-serif" dy="1.5625" font-size="25" fill="#604A0E"/><text text-anchor="middle" pointer-events="none" font-family="sans-serif" dy="1.5625" font-size="25" fill="#604A0E"/><text text-anchor="middle" pointer-events="none" y="0" font-size="10px" fill="#604A0E" font-family="sans-serif"> Josiah</text><text text-anchor="middle" pointer-events="none" y="10" font-size="10px" fill="#604A0E" font-family="sans-serif"> Campbell</text></g><g class="node" transform="translate(-11.951293613981038,138.87773842448968)"><circle class="outline" cx="0" cy="0" r="25" fill="#FFE081" stroke="#9AA1AC" stroke-width="2px"/><text text-anchor="middle" pointer-events="none" font-family="sans-serif" dy="1.5625" font-size="25" fill="#FFFFFF"/><text text-anchor="middle" pointer-events="none" font-family="sans-serif" dy="1.5625" font-size="25" fill="#FFFFFF"/><text text-anchor="middle" pointer-events="none" y="0" font-size="10px" fill="#FFFFFF" font-family="sans-serif"> Lauren</text><text text-anchor="middle" pointer-events="none" y="10" font-size="10px" fill="#FFFFFF" font-family="sans-serif"> Lamb</text></g></g></svg>