<svg xmlns="http://www.w3.org/2000/svg" width="663.269775390625" height="393.1630859375" viewBox="-146.837646484375 -162.72605895996094 663.269775390625 393.1630859375"><title>Neo4j Graph Visualization</title><desc>Created using Neo4j (http://www.neo4j.com/)</desc><g class="layer relationships"><g class="relationship" transform="translate(363.55499114363846 -68.40031525995528) rotate(397.4705166356317)"><path class="outline" fill="#A5ABB6" stroke="none" d="M 31.00436078674094,-9.860507705265526 L 31.7808179220485,-6.962730226398321 A 151.7057296294313 151.7057296294313 0 0 1 50.02028472407234,-10.667997979337883 L 49.60451535276506,-13.63904759687756 A 154.7057296294313 154.7057296294313 0 0 0 31.00436078674094,-9.860507705265526 Z M 87.88180349981127,-14.213080574820879 L 87.55531293856015,-11.230899508317037 A 151.7057296294313 151.7057296294313 0 0 1 105.89768602081678,-8.074238605652479 L 105.20847271085219,-5.154480907937194 L 115.00156576894493,-7.466477524616358 L 107.27611264074596,-13.913754001083046 L 106.58689933078138,-10.993996303367762 A 154.7057296294313 154.7057296294313 0 0 0 87.88180349981127,-14.213080574820879"/><text text-anchor="middle" pointer-events="none" font-size="8px" fill="#000000" x="68.74782807316745" y="-10.614752456166002" font-family="sans-serif">SIMILAR</text></g><g class="relationship" transform="translate(363.55499114363846 -68.40031525995528) rotate(497.0261505902261)"><path class="outline" fill="#A5ABB6" stroke="none" d="M 31.00436078674094,-9.860507705265526 L 31.7808179220485,-6.962730226398321 A 172.89011083037857 172.89011083037857 0 0 1 55.315078883526624,-11.547504013231901 L 54.946989714121415,-14.524836773164282 A 175.89011083037857 175.89011083037857 0 0 0 31.00436078674094,-9.860507705265526 Z M 93.20212863832789,-15.061699344810421 L 92.91773418468681,-12.0752098010922 A 172.89011083037857 172.89011083037857 0 0 1 116.57138470814664,-8.152658769758393 L 115.87655063346789,-5.234233576496565 L 125.67407732527148,-7.52736914235307 L 117.96105285750413,-13.989509156282047 L 117.26621878282538,-11.071083963020218 A 175.89011083037857 175.89011083037857 0 0 0 93.20212863832789,-15.061699344810421"/><text text-anchor="middle" pointer-events="none" font-size="8px" fill="#000000" x="74.08096726593962" y="-11.33664773335559" transform="rotate(180 74.08096726593962 -14.33664773335559)" font-family="sans-serif">SIMILAR</text></g><g class="relationship" transform="translate(363.55499114363846 -68.40031525995528) rotate(426.75869486400154)"><path class="outline" fill="#A5ABB6" stroke="none" d="M 31.00436078674094,-9.860507705265526 L 31.7808179220485,-6.962730226398321 A 317.70843466913726 317.70843466913726 0 0 1 92.02411932903088,-17.026755466415807 L 91.81651679278097,-20.019563710681155 A 320.70843466913726 320.70843466913726 0 0 0 31.00436078674094,-9.860507705265526 Z M 129.97857556373495,-20.39057631764871 L 129.829199099944,-17.39429751352094 A 317.70843466913726 317.70843466913726 0 0 1 190.25678042891263,-8.503437983918909 L 189.5368092807983,-5.591112187260345 L 199.3537433929455,-7.799687437905211 L 191.69672272514129,-14.328089577236037 L 190.97675157702696,-11.415763780577473 A 320.70843466913726 320.70843466913726 0 0 0 129.97857556373495,-20.39057631764871"/><text text-anchor="middle" pointer-events="none" font-size="8px" fill="#000000" x="110.90660488957413" y="-16.273298243761133" font-family="sans-serif">SIMILAR</text></g><g class="relationship" transform="translate(363.55499114363846 -68.40031525995528) rotate(197.52038082463298)"><path class="outline" fill="#A5ABB6" stroke="none" d="M 31.00436078674094,-9.860507705265526 L 31.7808179220485,-6.962730226398321 A 241.58670430721642 241.58670430721642 0 0 1 72.64782780107346,-14.221629605683034 L 72.37885318633197,-17.209547385111478 A 244.58670430721642 244.58670430721642 0 0 0 31.00436078674094,-9.860507705265526 Z M 110.57968475985172,-17.652745862768967 L 110.38010367347624,-14.65939199294985 A 241.58670430721642 241.58670430721642 0 0 1 151.40452344240384,-8.35058075201666 L 150.69550513488778,-5.435569081438472 L 160.50406760789645,-7.68103166475752 L 152.822560057436,-14.180604093173034 L 152.11354174991993,-11.265592422594848 A 244.58670430721642 244.58670430721642 0 0 0 110.57968475985172,-17.652745862768967"/><text text-anchor="middle" pointer-events="none" font-size="8px" fill="#000000" x="91.48800405521841" y="-13.678239251917233" transform="rotate(180 91.48800405521841 -16.678239251917233)" font-family="sans-serif">SIMILAR</text></g><g class="relationship" transform="translate(363.55499114363846 -68.40031525995528) rotate(517.1208737608611)"><path class="outline" fill="#A5ABB6" stroke="none" d="M 31.00436078674094,-9.860507705265526 L 31.7808179220485,-6.962730226398321 A 465.58939278182356 465.58939278182356 0 0 1 129.91179525239636,-22.289475404306415 L 129.76763974714117,-25.286009934443655 A 468.58939278182356 468.58939278182356 0 0 0 31.00436078674094,-9.860507705265526 Z M 167.88595155942704,-25.56750143048407 L 167.78606625368994,-22.56916473729939 A 465.58939278182356 465.58939278182356 0 0 1 266.1326951616414,-8.693343608463016 L 265.399118686608,-5.784415016132566 L 275.2262691761494,-7.9470784795281375 L 267.5998481117081,-14.511200793123916 L 266.86627163667475,-11.602272200793466 A 468.58939278182356 468.58939278182356 0 0 0 167.88595155942704,-25.56750143048407"/><text text-anchor="middle" pointer-events="none" font-size="8px" fill="#000000" x="148.83500879793633" y="-21.314568589010207" transform="rotate(180 148.83500879793633 -24.314568589010207)" font-family="sans-serif">SIMILAR</text></g><g class="relationship" transform="translate(363.55499114363846 -68.40031525995528) rotate(474.30030536471037)"><path class="outline" fill="#A5ABB6" stroke="none" d="M 31.00436078674094,-9.860507705265526 L 31.7808179220485,-6.962730226398321 A 428.8019164507722 428.8019164507722 0 0 1 120.46699748441083,-20.993761096946628 L 120.31100991437312,-23.989702998585187 A 431.8019164507722 431.8019164507722 0 0 0 31.00436078674094,-9.860507705265526 Z M 158.43774108724594,-24.28920197116156 L 158.3288382314635,-21.291179261440618 A 428.8019164507722 428.8019164507722 0 0 1 247.22449725525271,-8.655116607905908 L 246.4936592661603,-5.745498792161139 L 256.31876969703325,-7.917411548501066 L 248.68617323343756,-14.474352239395447 L 247.95533524434515,-11.564734423650679 A 431.8019164507722 431.8019164507722 0 0 0 158.43774108724594,-24.28920197116156"/><text text-anchor="middle" pointer-events="none" font-size="8px" fill="#000000" x="139.3828508535118" y="-20.060525598098707" transform="rotate(180 139.3828508535118 -23.060525598098707)" font-family="sans-serif">SIMILAR</text></g><g class="relationship" transform="translate(363.55499114363846 -68.40031525995528) rotate(536.9726647771909)"><path class="outline" fill="#A5ABB6" stroke="none" d="M 31.00436078674094,-9.860507705265526 L 31.7808179220485,-6.962730226398321 A 499.0107181009987 499.0107181009987 0 0 1 138.5003199041778,-23.461572045133096 L 138.36544920044983,-26.458538827277323 A 502.0107181009987 502.0107181009987 0 0 0 31.00436078674094,-9.860507705265526 Z M 176.4770752086436,-26.725440027043874 L 176.38419205393387,-23.726878251863752 A 499.0107181009987 499.0107181009987 0 0 1 283.3243028345362,-8.724325438897562 L 282.58850697133255,-5.815957434725393 L 292.4173047786545,-7.971121851372731 L 284.79589456094345,-14.541061447241903 L 284.0600986977398,-11.632693443069734 A 502.0107181009987 502.0107181009987 0 0 0 176.4770752086436,-26.725440027043874"/><text text-anchor="middle" pointer-events="none" font-size="8px" fill="#000000" x="157.42923286345624" y="-22.453835040202705" transform="rotate(180 157.42923286345624 -25.453835040202705)" font-family="sans-serif">SIMILAR</text></g><g class="relationship" transform="translate(-93.33573035455976 138.94049381931606) rotate(305.04346146587227)"><path class="outline" fill="#A5ABB6" stroke="none" d="M 31.00436078674094,-9.860507705265526 L 31.7808179220485,-6.962730226398321 A 320.5480237383186 320.5480237383186 0 0 1 92.74914694500889,-17.12959341383703 L 92.54329069794201,-20.122522281274996 A 323.5480237383186 323.5480237383186 0 0 0 31.00436078674094,-9.860507705265526 Z M 130.7041932005721,-20.491289077834153 L 130.5562141616584,-17.494940933168323 A 320.5480237383186 320.5480237383186 0 0 1 191.70963351493057,-8.508197789688188 L 190.98932133254513,-5.595956323067139 L 200.80651400598643,-7.803381975842365 L 193.15025787970146,-14.332680722930284 L 192.42994569731601,-11.420439256309235 A 323.5480237383186 323.5480237383186 0 0 0 130.7041932005721,-20.491289077834153"/><text text-anchor="middle" pointer-events="none" font-size="8px" fill="#000000" x="111.63279471079105" y="-16.370103468775653" font-family="sans-serif">SIMILAR</text></g><g class="relationship" transform="translate(-93.33573035455976 138.94049381931606) rotate(263.7831631020388)"><path class="outline" fill="#A5ABB6" stroke="none" d="M 31.00436078674094,-9.860507705265526 L 31.7808179220485,-6.962730226398321 A 172.31697322765478 172.31697322765478 0 0 1 55.171429915897875,-11.524178406211234 L 54.80219810881634,-14.50136967864222 A 175.31697322765478 175.31697322765478 0 0 0 31.00436078674094,-9.860507705265526 Z M 93.05789907596665,-15.039176164772641 L 92.77250457511835,-12.052782021514673 A 172.31697322765478 172.31697322765478 0 0 1 116.2820990815801,-8.150666558631485 L 115.5874077935476,-5.23220737366217 L 125.3848222805043,-7.525822287018665 L 117.67148165764509,-13.987584928570115 L 116.97679036961259,-11.0691257436008 A 175.31697322765478 175.31697322765478 0 0 0 93.05789907596665,-15.039176164772641"/><text text-anchor="middle" pointer-events="none" font-size="8px" fill="#000000" x="73.93641917576197" y="-11.317115254976699" transform="rotate(180 73.93641917576197 -14.317115254976699)" font-family="sans-serif">SIMILAR</text></g><g class="relationship" transform="translate(-93.33573035455976 138.94049381931606) rotate(333.1876246580332)"><path class="outline" fill="#A5ABB6" stroke="none" d="M 31.00436078674094,-9.860507705265526 L 31.7808179220485,-6.962730226398321 A 247.86741899673947 247.86741899673947 0 0 1 74.24127061012759,-14.457569488476878 L 73.97872271944694,-17.446058840155928 A 250.86741899673947 250.86741899673947 0 0 0 31.00436078674094,-9.860507705265526 Z M 112.17566947384506,-17.882271962242044 L 111.98143887682306,-14.888566152517171 A 247.86741899673947 247.86741899673947 0 0 1 154.6019790997066,-8.365360717260266 L 153.89190167946686,-5.450606858481505 L 163.70127938616275,-7.692505385930438 L 156.02213394018605,-14.19486843481779 L 155.3120565199463,-11.28011457603903 A 250.86741899673947 250.86741899673947 0 0 0 112.17566947384506,-17.882271962242044"/><text text-anchor="middle" pointer-events="none" font-size="8px" fill="#000000" x="93.08601032958468" y="-13.892348210946409" font-family="sans-serif">SIMILAR</text></g><g class="relationship" transform="translate(-93.33573035455976 138.94049381931606) rotate(370.4420299423077)"><path class="outline" fill="#A5ABB6" stroke="none" d="M 31.00436078674094,-9.860507705265526 L 31.7808179220485,-6.962730226398321 A 148.20533129642587 148.20533129642587 0 0 1 49.14865927018863,-10.518716436529417 L 48.72376522366231,-13.488474852499735 A 151.20533129642587 151.20533129642587 0 0 0 31.00436078674094,-9.860507705265526 Z M 87.0049825028083,-14.069134492555094 L 86.67035536808542,-11.087855458196344 A 148.20533129642587 148.20533129642587 0 0 1 104.13805816545806,-8.060264005660525 L 103.44984652784501,-5.140270043020539 L 113.24214587218455,-7.455626074141371 L 105.51448144068416,-13.900251930940495 L 104.82626980307111,-10.98025796830051 A 151.20533129642587 151.20533129642587 0 0 0 87.0049825028083,-14.069134492555094"/><text text-anchor="middle" pointer-events="none" font-size="8px" fill="#000000" x="67.86867132225078" y="-10.495485579946092" font-family="sans-serif">SIMILAR</text></g><g class="relationship" transform="translate(49.1403704841526 165.19780163534307) rotate(368.3433137338787)"><path class="outline" fill="#A5ABB6" stroke="none" d="M 31.00436078674094,-9.860507705265526 L 31.7808179220485,-6.962730226398321 A 253.33336802482248 253.33336802482248 0 0 1 75.62891759590315,-14.662087601064826 L 75.37171420141615,-17.651041667935743 A 256.33336802482245 256.33336802482245 0 0 0 31.00436078674094,-9.860507705265526 Z M 113.5653982515235,-18.081349562359406 L 113.37560150305904,-15.087359382971357 A 253.33336802482248 253.33336802482248 0 0 1 157.3860381211402,-8.377857339079705 L 156.67506522093677,-5.463321778278232 L 166.4851312536463,-7.702206418870222 L 158.807983921547,-14.20692846068265 L 158.09701102134358,-11.292392899881177 A 256.33336802482245 256.33336802482245 0 0 0 113.5653982515235,-18.081349562359406"/><text text-anchor="middle" pointer-events="none" font-size="8px" fill="#000000" x="94.47742870559559" y="-14.078683536327418" font-family="sans-serif">SIMILAR</text></g><g class="relationship" transform="translate(49.1403704841526 165.19780163534307) rotate(190.44202994230773)"><path class="outline" fill="#A5ABB6" stroke="none" d="M 31.00436078674094,-9.860507705265526 L 31.7808179220485,-6.962730226398321 A 148.20533129642587 148.20533129642587 0 0 1 49.14865927018863,-10.518716436529417 L 48.72376522366231,-13.488474852499735 A 151.20533129642587 151.20533129642587 0 0 0 31.00436078674094,-9.860507705265526 Z M 87.0049825028083,-14.069134492555094 L 86.67035536808542,-11.087855458196344 A 148.20533129642587 148.20533129642587 0 0 1 104.13805816545806,-8.060264005660525 L 103.44984652784501,-5.140270043020539 L 113.24214587218455,-7.455626074141371 L 105.51448144068416,-13.900251930940495 L 104.82626980307111,-10.98025796830051 A 151.20533129642587 151.20533129642587 0 0 0 87.0049825028083,-14.069134492555094"/><text text-anchor="middle" pointer-events="none" font-size="8px" fill="#000000" x="67.86867132225078" y="-10.495485579946092" transform="rotate(180 67.86867132225078 -13.495485579946092)" font-family="sans-serif">SIMILAR</text></g><g class="relationship" transform="translate(49.1403704841526 165.19780163534307) rotate(285.54531132505736)"><path class="outline" fill="#A5ABB6" stroke="none" d="M 31.00436078674094,-9.860507705265526 L 31.7808179220485,-6.962730226398321 A 95.64529999098005 95.64529999098005 0 0 1 36.231939475627236,-8.041875666644486 L 35.595095731275585,-10.973501503152306 A 98.64529999098005 98.64529999098005 0 0 0 31.00436078674094,-9.860507705265526 Z M 73.9376780214409,-11.674685136283458 L 73.40844748875134,-8.721734909261485 A 95.64529999098005 95.64529999098005 0 0 1 77.89604908303964,-7.806054890434855 L 77.22606093043426,-4.88182578255558 L 87.00373048298016,-7.258204986558337 L 79.23602538825041,-13.654513106193406 L 78.56603723564503,-10.730283998314132 A 98.64529999098005 98.64529999098005 0 0 0 73.9376780214409,-11.674685136283458"/><text text-anchor="middle" pointer-events="none" font-size="8px" fill="#000000" x="54.75941150978353" y="-8.705524879522926" font-family="sans-serif">SIMILAR</text></g><g class="relationship" transform="translate(49.1403704841526 165.19780163534307) rotate(228.8257371016204)"><path class="outline" fill="#A5ABB6" stroke="none" d="M 31.00436078674094,-9.860507705265526 L 31.7808179220485,-6.962730226398321 A 339.86574310945406 339.86574310945406 0 0 1 97.6848181879891,-17.82670164780751 L 97.49009664918191,-20.820375564974256 A 342.86574310945406 342.86574310945406 0 0 0 31.00436078674094,-9.860507705265526 Z M 135.64356062202114,-21.17454986748635 L 135.50444772499208,-18.177777002906794 A 339.86574310945406 339.86574310945406 0 0 1 201.5987714746265,-8.539131134486873 L 200.87624299285858,-5.627438741215534 L 210.69511289532446,-7.827391885818858 L 203.04382843816228,-14.362515921029551 L 202.32129995639437,-11.450823527758214 A 342.86574310945406 342.86574310945406 0 0 0 135.64356062202114,-21.17454986748635"/><text text-anchor="middle" pointer-events="none" font-size="8px" fill="#000000" x="116.57582185266615" y="-17.028667462477017" transform="rotate(180 116.57582185266615 -20.028667462477017)" font-family="sans-serif">SIMILAR</text></g><g class="relationship" transform="translate(49.1403704841526 165.19780163534307) rotate(356.974803194086)"><path class="outline" fill="#A5ABB6" stroke="none" d="M 31.00436078674094,-9.860507705265526 L 31.7808179220485,-6.962730226398321 A 658.5578382193029 658.5578382193029 0 0 1 179.57359605622145,-29.012768634596227 L 179.47039540450749,-32.01099304672516 A 661.5578382193029 661.5578382193029 0 0 0 31.00436078674094,-9.860507705265526 Z M 217.55871840275012,-32.22488908346463 L 217.48919799759886,-29.225694706091303 A 658.5578382193029 658.5578382193029 0 0 1 365.52030348981805,-8.83694120884799 L 364.7764409225911,-5.93062593326645 L 374.6111806001761,-8.058511144958064 L 367.00802862427184,-14.649571760011073 L 366.2641660570449,-11.743256484429532 A 661.5578382193029 661.5578382193029 0 0 0 217.55871840275012,-32.22488908346463"/><text text-anchor="middle" pointer-events="none" font-size="8px" fill="#000000" x="198.5214407651027" y="-27.892136495315413" font-family="sans-serif">SIMILAR</text></g><g class="relationship" transform="translate(-110.33765300725685 -17.13767298138999) rotate(347.2069516578972)"><path class="outline" fill="#A5ABB6" stroke="none" d="M 31.00436078674094,-9.860507705265526 L 31.7808179220485,-6.962730226398321 A 166.85362140046033 166.85362140046033 0 0 1 53.80315990926327,-11.30063284448417 L 53.42266077239243,-14.276405081541412 A 169.85362140046033 169.85362140046033 0 0 0 31.00436078674094,-9.860507705265526 Z M 91.6838226646728,-14.823374008199693 L 91.38854294719577,-11.83794105995807 A 166.85362140046033 166.85362140046033 0 0 1 113.5258866333427,-8.13133071528324 L 112.83258120625851,-5.2125419965206765 L 122.62890550317248,-7.510808793411977 L 114.91249748751105,-13.968908152808371 L 114.21919206042686,-11.050119434045808 A 169.85362140046033 169.85362140046033 0 0 0 91.6838226646728,-14.823374008199693"/><text text-anchor="middle" pointer-events="none" font-size="8px" fill="#000000" x="72.55923103645296" y="-11.130929250408315" font-family="sans-serif">SIMILAR</text></g><g class="relationship" transform="translate(-110.33765300725685 -17.13767298138999) rotate(408.8257371016204)"><path class="outline" fill="#A5ABB6" stroke="none" d="M 31.00436078674094,-9.860507705265526 L 31.7808179220485,-6.962730226398321 A 339.86574310945406 339.86574310945406 0 0 1 97.6848181879891,-17.82670164780751 L 97.49009664918191,-20.820375564974256 A 342.86574310945406 342.86574310945406 0 0 0 31.00436078674094,-9.860507705265526 Z M 135.64356062202114,-21.17454986748635 L 135.50444772499208,-18.177777002906794 A 339.86574310945406 339.86574310945406 0 0 1 201.5987714746265,-8.539131134486873 L 200.87624299285858,-5.627438741215534 L 210.69511289532446,-7.827391885818858 L 203.04382843816228,-14.362515921029551 L 202.32129995639437,-11.450823527758214 A 342.86574310945406 342.86574310945406 0 0 0 135.64356062202114,-21.17454986748635"/><text text-anchor="middle" pointer-events="none" font-size="8px" fill="#000000" x="116.57582185266615" y="-17.028667462477017" font-family="sans-serif">SIMILAR</text></g><g class="relationship" transform="translate(-110.33765300725685 -17.13767298138999) rotate(379.5682552176046)"><path class="outline" fill="#A5ABB6" stroke="none" d="M 31.00436078674094,-9.860507705265526 L 31.7808179220485,-6.962730226398321 A 263.0564794322154 263.0564794322154 0 0 1 78.09931066836715,-15.024165857600764 L 77.85108792036257,-18.013879132711423 A 266.0564794322154 266.0564794322154 0 0 0 31.00436078674094,-9.860507705265526 Z M 116.03922457795638,-18.434062517958324 L 115.85684548451259,-15.439611338480717 A 263.0564794322154 263.0564794322154 0 0 1 162.3415026247403,-8.399287107149364 L 161.62899413960966,-5.485126566167304 L 171.44023849025177,-7.718841922248501 L 163.76651959500154,-14.227608189113484 L 163.0540111098709,-11.313447648131424 A 266.0564794322154 266.0564794322154 0 0 0 116.03922457795638,-18.434062517958324"/><text text-anchor="middle" pointer-events="none" font-size="8px" fill="#000000" x="96.95411071055233" y="-14.410149509757247" font-family="sans-serif">SIMILAR</text></g><g class="relationship" transform="translate(-110.33765300725685 -17.13767298138999) rotate(443.7831631020388)"><path class="outline" fill="#A5ABB6" stroke="none" d="M 31.00436078674094,-9.860507705265526 L 31.7808179220485,-6.962730226398321 A 172.31697322765478 172.31697322765478 0 0 1 55.171429915897875,-11.524178406211234 L 54.80219810881634,-14.50136967864222 A 175.31697322765478 175.31697322765478 0 0 0 31.00436078674094,-9.860507705265526 Z M 93.05789907596665,-15.039176164772641 L 92.77250457511835,-12.052782021514673 A 172.31697322765478 172.31697322765478 0 0 1 116.2820990815801,-8.150666558631485 L 115.5874077935476,-5.23220737366217 L 125.3848222805043,-7.525822287018665 L 117.67148165764509,-13.987584928570115 L 116.97679036961259,-11.0691257436008 A 175.31697322765478 175.31697322765478 0 0 0 93.05789907596665,-15.039176164772641"/><text text-anchor="middle" pointer-events="none" font-size="8px" fill="#000000" x="73.93641917576197" y="-11.317115254976699" font-family="sans-serif">SIMILAR</text></g><g class="relationship" transform="translate(248.47116291818077 38.8189309762339) rotate(535.8900297871982)"><path class="outline" fill="#A5ABB6" stroke="none" d="M 31.00436078674094,-9.860507705265526 L 31.7808179220485,-6.962730226398321 A 194.01334428012152 194.01334428012152 0 0 1 60.62232967067064,-12.392747329177467 L 60.291844618195384,-15.374488369256312 A 197.01334428012152 197.01334428012152 0 0 0 31.00436078674094,-9.860507705265526 Z M 98.52765377747691,-15.878682572588076 L 98.27590706338336,-12.88926396825326 A 194.01334428012152 194.01334428012152 0 0 1 127.25057079767414,-8.221636394511183 L 126.5507930910455,-5.304392633474822 L 136.35219093409754,-7.580925155143479 L 128.6501262109314,-14.056123916583907 L 127.95034850430277,-11.138880155547547 A 197.01334428012152 197.01334428012152 0 0 0 98.52765377747691,-15.878682572588076"/><text text-anchor="middle" pointer-events="none" font-size="8px" fill="#000000" x="79.41726555801456" y="-12.05657869286884" transform="rotate(180 79.41726555801456 -15.05657869286884)" font-family="sans-serif">SIMILAR</text></g><g class="relationship" transform="translate(248.47116291818077 38.8189309762339) rotate(203.38474906074123)"><path class="outline" fill="#A5ABB6" stroke="none" d="M 31.00436078674094,-9.860507705265526 L 31.7808179220485,-6.962730226398321 A 310.1442298664736 310.1442298664736 0 0 1 90.09341540250298,-16.752311219937383 L 89.88101129670585,-19.744782522362982 A 313.1442298664736 313.1442298664736 0 0 0 31.00436078674094,-9.860507705265526 Z M 128.0462347080711,-20.121911660520993 L 127.89300643327825,-17.12582736667946 A 310.1442298664736 310.1442298664736 0 0 1 186.38766963586403,-8.490475737323163 L 185.668627224586,-5.577920499944223 L 195.48485655363984,-7.789626122178568 L 187.82575445842005,-14.31558621208104 L 187.10671204714203,-11.403030974702101 A 313.1442298664736 313.1442298664736 0 0 0 128.0462347080711,-20.121911660520993"/><text text-anchor="middle" pointer-events="none" font-size="8px" fill="#000000" x="108.9726934406089" y="-16.01542464500352" transform="rotate(180 108.9726934406089 -19.01542464500352)" font-family="sans-serif">SIMILAR</text></g><g class="relationship" transform="translate(248.47116291818077 38.8189309762339) rotate(451.2437315791158)"><path class="outline" fill="#A5ABB6" stroke="none" d="M 31.00436078674094,-9.860507705265526 L 31.7808179220485,-6.962730226398321 A 168.65167316829306 168.65167316829306 0 0 1 54.253261070337786,-11.374449240775107 L 53.87654695671726,-14.350703006266059 A 171.65167316829306 171.65167316829306 0 0 0 31.00436078674094,-9.860507705265526 Z M 92.13589087170904,-14.894623148361148 L 91.84393668966754,-11.908863152047218 A 168.65167316829306 168.65167316829306 0 0 1 114.43271219076274,-8.137764230508598 L 113.73894565056183,-5.219085079300358 L 123.53563291448792,-7.51580418550996 L 115.82024527116458,-13.975122532925075 L 115.12647873096367,-11.056443381716836 A 171.65167316829306 171.65167316829306 0 0 0 92.13589087170904,-14.894623148361148"/><text text-anchor="middle" pointer-events="none" font-size="8px" fill="#000000" x="73.01233860139193" y="-11.192204268556395" transform="rotate(180 73.01233860139193 -14.192204268556395)" font-family="sans-serif">SIMILAR</text></g><g class="relationship" transform="translate(248.47116291818077 38.8189309762339) rotate(317.0261505902261)"><path class="outline" fill="#A5ABB6" stroke="none" d="M 31.00436078674094,-9.860507705265526 L 31.7808179220485,-6.962730226398321 A 172.89011083037857 172.89011083037857 0 0 1 55.315078883526624,-11.547504013231901 L 54.946989714121415,-14.524836773164282 A 175.89011083037857 175.89011083037857 0 0 0 31.00436078674094,-9.860507705265526 Z M 93.20212863832789,-15.061699344810421 L 92.91773418468681,-12.0752098010922 A 172.89011083037857 172.89011083037857 0 0 1 116.57138470814664,-8.152658769758393 L 115.87655063346789,-5.234233576496565 L 125.67407732527148,-7.52736914235307 L 117.96105285750413,-13.989509156282047 L 117.26621878282538,-11.071083963020218 A 175.89011083037857 175.89011083037857 0 0 0 93.20212863832789,-15.061699344810421"/><text text-anchor="middle" pointer-events="none" font-size="8px" fill="#000000" x="74.08096726593962" y="-11.33664773335559" font-family="sans-serif">SIMILAR</text></g><g class="relationship" transform="translate(248.47116291818077 38.8189309762339) rotate(247.58156407412469)"><path class="outline" fill="#A5ABB6" stroke="none" d="M 31.00436078674094,-9.860507705265526 L 31.7808179220485,-6.962730226398321 A 214.91150984727773 214.91150984727773 0 0 1 65.89429637049145,-13.20653848791477 L 65.59403725462946,-16.191474745750384 A 217.91150984727773 217.91150984727773 0 0 0 31.00436078674094,-9.860507705265526 Z M 103.81316570964374,-16.666963521393257 L 103.5872599366231,-13.675481182866747 A 214.91150984727773 214.91150984727773 0 0 1 137.84551564689264,-8.282293892521103 L 137.14139087478793,-5.366096315999837 L 146.94617076250879,-7.628018364467623 L 139.25376519110205,-14.114689045563633 L 138.54964041899734,-11.198491469042366 A 217.91150984727773 217.91150984727773 0 0 0 103.81316570964374,-16.666963521393257"/><text text-anchor="middle" pointer-events="none" font-size="8px" fill="#000000" x="84.71181639233335" y="-12.768916043069737" transform="rotate(180 84.71181639233335 -15.768916043069737)" font-family="sans-serif">SIMILAR</text></g><g class="relationship" transform="translate(248.47116291818077 38.8189309762339) rotate(355.5495324349039)"><path class="outline" fill="#A5ABB6" stroke="none" d="M 31.00436078674094,-9.860507705265526 L 31.7808179220485,-6.962730226398321 A 320.16699152333825 320.16699152333825 0 0 1 92.65185103604477,-17.11579981681325 L 92.4457621903386,-20.108712676833647 A 323.16699152333825 323.16699152333825 0 0 0 31.00436078674094,-9.860507705265526 Z M 130.60681886624764,-20.47777926653771 L 130.4586538028894,-17.481440314750046 A 320.16699152333825 320.16699152333825 0 0 1 191.51466914499855,-8.507562389506665 L 190.7944024881724,-5.5953096629967405 L 200.6115606529414,-7.802888782283205 L 192.95520245865083,-14.332067842526516 L 192.2349358018247,-11.419815116016592 A 323.16699152333825 323.16699152333825 0 0 0 130.60681886624764,-20.47777926653771"/><text text-anchor="middle" pointer-events="none" font-size="8px" fill="#000000" x="111.5353441346026" y="-16.357113595751287" font-family="sans-serif">SIMILAR</text></g><g class="relationship" transform="translate(248.47116291818077 38.8189309762339) rotate(386.97422372859637)"><path class="outline" fill="#A5ABB6" stroke="none" d="M 31.00436078674094,-9.860507705265526 L 31.7808179220485,-6.962730226398321 A 318.62030313640753 318.62030313640753 0 0 1 92.25693093458581,-17.059790401316434 L 92.04989243723598,-20.052637717939035 A 321.62030313640753 321.62030313640753 0 0 0 31.00436078674094,-9.860507705265526 Z M 130.2115780507586,-20.42292619338673 L 130.0626531474023,-17.42662491127902 A 318.62030313640753 318.62030313640753 0 0 1 190.72330753707504,-8.504972693344287 L 190.0032264287386,-5.592674082724669 L 199.8202439231021,-7.800878673644771 L 192.16346975374793,-14.329569914583525 L 191.4433886454115,-11.417271303963906 A 321.62030313640753 321.62030313640753 0 0 0 130.2115780507586,-20.42292619338673"/><text text-anchor="middle" pointer-events="none" font-size="8px" fill="#000000" x="111.13979213249205" y="-16.304385011682996" font-family="sans-serif">SIMILAR</text></g><g class="relationship" transform="translate(80.94742506564484 50.85648328287512) rotate(355.69246182993663)"><path class="outline" fill="#A5ABB6" stroke="none" d="M 31.00436078674094,-9.860507705265526 L 31.7808179220485,-6.962730226398321 A 646.9553883174701 646.9553883174701 0 0 1 176.58358809942743,-28.61088309637796 L 176.47859659896355,-31.609045330952654 A 649.9553883174701 649.9553883174701 0 0 0 31.00436078674094,-9.860507705265526 Z M 214.56825708673574,-31.826078543440076 L 214.49743808771422,-28.826914548361287 A 646.9553883174701 646.9553883174701 0 0 1 359.53749847230966,-8.830273396464134 L 358.7941134988623,-5.923835924015662 L 368.6285033763788,-8.053337212346293 L 361.0242684192044,-14.64314834136108 L 360.28088344575707,-11.736710868912608 A 649.9553883174701 649.9553883174701 0 0 0 214.56825708673574,-31.826078543440076"/><text text-anchor="middle" pointer-events="none" font-size="8px" fill="#000000" x="195.53038340776288" y="-27.49667416306511" font-family="sans-serif">SIMILAR</text></g><g class="relationship" transform="translate(80.94742506564484 50.85648328287512) rotate(465.54531132505736)"><path class="outline" fill="#A5ABB6" stroke="none" d="M 31.00436078674094,-9.860507705265526 L 31.7808179220485,-6.962730226398321 A 95.64529999098005 95.64529999098005 0 0 1 36.231939475627236,-8.041875666644486 L 35.595095731275585,-10.973501503152306 A 98.64529999098005 98.64529999098005 0 0 0 31.00436078674094,-9.860507705265526 Z M 73.9376780214409,-11.674685136283458 L 73.40844748875134,-8.721734909261485 A 95.64529999098005 95.64529999098005 0 0 1 77.89604908303964,-7.806054890434855 L 77.22606093043426,-4.88182578255558 L 87.00373048298016,-7.258204986558337 L 79.23602538825041,-13.654513106193406 L 78.56603723564503,-10.730283998314132 A 98.64529999098005 98.64529999098005 0 0 0 73.9376780214409,-11.674685136283458"/><text text-anchor="middle" pointer-events="none" font-size="8px" fill="#000000" x="54.75941150978353" y="-8.705524879522926" transform="rotate(180 54.75941150978353 -11.705524879522926)" font-family="sans-serif">SIMILAR</text></g><g class="relationship" transform="translate(80.94742506564484 50.85648328287512) rotate(199.5682552176046)"><path class="outline" fill="#A5ABB6" stroke="none" d="M 31.00436078674094,-9.860507705265526 L 31.7808179220485,-6.962730226398321 A 263.0564794322154 263.0564794322154 0 0 1 78.09931066836715,-15.024165857600764 L 77.85108792036257,-18.013879132711423 A 266.0564794322154 266.0564794322154 0 0 0 31.00436078674094,-9.860507705265526 Z M 116.03922457795638,-18.434062517958324 L 115.85684548451259,-15.439611338480717 A 263.0564794322154 263.0564794322154 0 0 1 162.3415026247403,-8.399287107149364 L 161.62899413960966,-5.485126566167304 L 171.44023849025177,-7.718841922248501 L 163.76651959500154,-14.227608189113484 L 163.0540111098709,-11.313447648131424 A 266.0564794322154 266.0564794322154 0 0 0 116.03922457795638,-18.434062517958324"/><text text-anchor="middle" pointer-events="none" font-size="8px" fill="#000000" x="96.95411071055233" y="-14.410149509757247" transform="rotate(180 96.95411071055233 -17.410149509757247)" font-family="sans-serif">SIMILAR</text></g><g class="relationship" transform="translate(80.94742506564484 50.85648328287512) rotate(513.1876246580332)"><path class="outline" fill="#A5ABB6" stroke="none" d="M 31.00436078674094,-9.860507705265526 L 31.7808179220485,-6.962730226398321 A 247.86741899673947 247.86741899673947 0 0 1 74.24127061012759,-14.457569488476878 L 73.97872271944694,-17.446058840155928 A 250.86741899673947 250.86741899673947 0 0 0 31.00436078674094,-9.860507705265526 Z M 112.17566947384506,-17.882271962242044 L 111.98143887682306,-14.888566152517171 A 247.86741899673947 247.86741899673947 0 0 1 154.6019790997066,-8.365360717260266 L 153.89190167946686,-5.450606858481505 L 163.70127938616275,-7.692505385930438 L 156.02213394018605,-14.19486843481779 L 155.3120565199463,-11.28011457603903 A 250.86741899673947 250.86741899673947 0 0 0 112.17566947384506,-17.882271962242044"/><text text-anchor="middle" pointer-events="none" font-size="8px" fill="#000000" x="93.08601032958468" y="-13.892348210946409" transform="rotate(180 93.08601032958468 -16.89234821094641)" font-family="sans-serif">SIMILAR</text></g><g class="relationship" transform="translate(80.94742506564484 50.85648328287512) rotate(401.07583471056466)"><path class="outline" fill="#A5ABB6" stroke="none" d="M 31.00436078674094,-9.860507705265526 L 31.7808179220485,-6.962730226398321 A 291.97919075086065 291.97919075086065 0 0 1 85.4610838375784,-16.090001853241347 L 85.23617558947905,-19.08155935393171 A 294.97919075086065 294.97919075086065 0 0 0 31.00436078674094,-9.860507705265526 Z M 123.40953847075811,-19.474223458751 L 123.2462156427862,-16.478672482075183 A 291.97919075086065 291.97919075086065 0 0 1 177.10287560909265,-8.457561998743152 L 176.38619149710792,-5.54442556465211 L 186.20062696735812,-7.764077879834501 L 178.5362438330621,-14.283834866925234 L 177.81955972107735,-11.370698432834192 A 294.97919075086065 294.97919075086065 0 0 0 123.40953847075811,-19.474223458751"/><text text-anchor="middle" pointer-events="none" font-size="8px" fill="#000000" x="104.33192687077127" y="-15.396154791608808" font-family="sans-serif">SIMILAR</text></g><g class="relationship" transform="translate(80.94742506564484 50.85648328287512) rotate(299.3149782574418)"><path class="outline" fill="#A5ABB6" stroke="none" d="M 31.00436078674094,-9.860507705265526 L 31.7808179220485,-6.962730226398321 A 263.2128667526532 263.2128667526532 0 0 1 78.13906445393518,-15.029972458965489 L 77.8909809551883,-18.019697292064592 A 266.2128667526532 266.2128667526532 0 0 0 31.00436078674094,-9.860507705265526 Z M 116.07903096198426,-18.43972166658196 L 115.89676655374274,-15.44526350432821 A 263.2128667526532 263.2128667526532 0 0 1 162.42123730542647,-8.399623716074487 L 161.70870470028024,-5.485469072510848 L 171.5199675386905,-7.719103222417591 L 163.84630251571895,-14.227933003201763 L 163.1337699105727,-11.313778359638125 A 266.2128667526532 266.2128667526532 0 0 0 116.07903096198426,-18.43972166658196"/><text text-anchor="middle" pointer-events="none" font-size="8px" fill="#000000" x="96.99396153146908" y="-14.415480863469469" font-family="sans-serif">SIMILAR</text></g><g class="relationship" transform="translate(80.94742506564484 50.85648328287512) rotate(355.89002978719816)"><path class="outline" fill="#A5ABB6" stroke="none" d="M 31.00436078674094,-9.860507705265526 L 31.7808179220485,-6.962730226398321 A 194.01334428012152 194.01334428012152 0 0 1 60.62232967067064,-12.392747329177467 L 60.291844618195384,-15.374488369256312 A 197.01334428012152 197.01334428012152 0 0 0 31.00436078674094,-9.860507705265526 Z M 98.52765377747691,-15.878682572588076 L 98.27590706338336,-12.88926396825326 A 194.01334428012152 194.01334428012152 0 0 1 127.25057079767414,-8.221636394511183 L 126.5507930910455,-5.304392633474822 L 136.35219093409754,-7.580925155143479 L 128.6501262109314,-14.056123916583907 L 127.95034850430277,-11.138880155547547 A 197.01334428012152 197.01334428012152 0 0 0 98.52765377747691,-15.878682572588076"/><text text-anchor="middle" pointer-events="none" font-size="8px" fill="#000000" x="79.41726555801456" y="-12.05657869286884" font-family="sans-serif">SIMILAR</text></g><g class="relationship" transform="translate(80.94742506564484 50.85648328287512) rotate(337.12087376086106)"><path class="outline" fill="#A5ABB6" stroke="none" d="M 31.00436078674094,-9.860507705265526 L 31.7808179220485,-6.962730226398321 A 465.58939278182356 465.58939278182356 0 0 1 129.91179525239636,-22.289475404306415 L 129.76763974714117,-25.286009934443655 A 468.58939278182356 468.58939278182356 0 0 0 31.00436078674094,-9.860507705265526 Z M 167.88595155942704,-25.56750143048407 L 167.78606625368994,-22.56916473729939 A 465.58939278182356 465.58939278182356 0 0 1 266.1326951616414,-8.693343608463016 L 265.399118686608,-5.784415016132566 L 275.2262691761494,-7.9470784795281375 L 267.5998481117081,-14.511200793123916 L 266.86627163667475,-11.602272200793466 A 468.58939278182356 468.58939278182356 0 0 0 167.88595155942704,-25.56750143048407"/><text text-anchor="middle" pointer-events="none" font-size="8px" fill="#000000" x="148.83500879793633" y="-21.314568589010207" font-family="sans-serif">SIMILAR</text></g><g class="relationship" transform="translate(80.94742506564484 50.85648328287512) rotate(373.96100216222203)"><path class="outline" fill="#A5ABB6" stroke="none" d="M 31.00436078674094,-9.860507705265526 L 31.7808179220485,-6.962730226398321 A 617.8215811688215 617.8215811688215 0 0 1 169.0774666283903,-27.600727320556643 L 168.96769055226457,-30.598718183302935 A 620.8215811688215 620.8215811688215 0 0 0 31.00436078674094,-9.860507705265526 Z M 207.06091305566358,-30.82404825181561 L 206.98661101502177,-27.824968525173404 A 617.8215811688215 617.8215811688215 0 0 1 344.51780040541604,-8.812640553180522 L 343.7756784297849,-5.905880333746296 L 353.60914205153426,-8.039654736004163 L 346.0020443566783,-14.626160992048973 L 345.25992238104715,-11.719400772614748 A 620.8215811688215 620.8215811688215 0 0 0 207.06091305566358,-30.82404825181561"/><text text-anchor="middle" pointer-events="none" font-size="8px" fill="#000000" x="188.0214457885696" y="-26.503655385514776" font-family="sans-serif">SIMILAR</text></g><g class="relationship" transform="translate(40.08241862972474 -51.29308291498789) rotate(527.2069516578972)"><path class="outline" fill="#A5ABB6" stroke="none" d="M 31.00436078674094,-9.860507705265526 L 31.7808179220485,-6.962730226398321 A 166.85362140046033 166.85362140046033 0 0 1 53.80315990926327,-11.30063284448417 L 53.42266077239243,-14.276405081541412 A 169.85362140046033 169.85362140046033 0 0 0 31.00436078674094,-9.860507705265526 Z M 91.6838226646728,-14.823374008199693 L 91.38854294719577,-11.83794105995807 A 166.85362140046033 166.85362140046033 0 0 1 113.5258866333427,-8.13133071528324 L 112.83258120625851,-5.2125419965206765 L 122.62890550317248,-7.510808793411977 L 114.91249748751105,-13.968908152808371 L 114.21919206042686,-11.050119434045808 A 169.85362140046033 169.85362140046033 0 0 0 91.6838226646728,-14.823374008199693"/><text text-anchor="middle" pointer-events="none" font-size="8px" fill="#000000" x="72.55923103645296" y="-11.130929250408315" transform="rotate(180 72.55923103645296 -14.130929250408315)" font-family="sans-serif">SIMILAR</text></g><g class="relationship" transform="translate(40.08241862972474 -51.29308291498789) rotate(356.97266477719086)"><path class="outline" fill="#A5ABB6" stroke="none" d="M 31.00436078674094,-9.860507705265526 L 31.7808179220485,-6.962730226398321 A 499.0107181009987 499.0107181009987 0 0 1 138.5003199041778,-23.461572045133096 L 138.36544920044983,-26.458538827277323 A 502.0107181009987 502.0107181009987 0 0 0 31.00436078674094,-9.860507705265526 Z M 176.4770752086436,-26.725440027043874 L 176.38419205393387,-23.726878251863752 A 499.0107181009987 499.0107181009987 0 0 1 283.3243028345362,-8.724325438897562 L 282.58850697133255,-5.815957434725393 L 292.4173047786545,-7.971121851372731 L 284.79589456094345,-14.541061447241903 L 284.0600986977398,-11.632693443069734 A 502.0107181009987 502.0107181009987 0 0 0 176.4770752086436,-26.725440027043874"/><text text-anchor="middle" pointer-events="none" font-size="8px" fill="#000000" x="157.42923286345624" y="-22.453835040202705" font-family="sans-serif">SIMILAR</text></g><g class="relationship" transform="translate(40.08241862972474 -51.29308291498789) rotate(383.3847490607412)"><path class="outline" fill="#A5ABB6" stroke="none" d="M 31.00436078674094,-9.860507705265526 L 31.7808179220485,-6.962730226398321 A 310.1442298664736 310.1442298664736 0 0 1 90.09341540250298,-16.752311219937383 L 89.88101129670585,-19.744782522362982 A 313.1442298664736 313.1442298664736 0 0 0 31.00436078674094,-9.860507705265526 Z M 128.0462347080711,-20.121911660520993 L 127.89300643327825,-17.12582736667946 A 310.1442298664736 310.1442298664736 0 0 1 186.38766963586403,-8.490475737323163 L 185.668627224586,-5.577920499944223 L 195.48485655363984,-7.789626122178568 L 187.82575445842005,-14.31558621208104 L 187.10671204714203,-11.403030974702101 A 313.1442298664736 313.1442298664736 0 0 0 128.0462347080711,-20.121911660520993"/><text text-anchor="middle" pointer-events="none" font-size="8px" fill="#000000" x="108.9726934406089" y="-16.01542464500352" font-family="sans-serif">SIMILAR</text></g><g class="relationship" transform="translate(40.08241862972474 -51.29308291498789) rotate(369.30872989809814)"><path class="outline" fill="#A5ABB6" stroke="none" d="M 31.00436078674094,-9.860507705265526 L 31.7808179220485,-6.962730226398321 A 735.3853863226707 735.3853863226707 0 0 1 199.3813240503369,-31.6689770507096 L 199.28859211236994,-34.66754350614815 A 738.3853863226707 738.3853863226707 0 0 0 31.00436078674094,-9.860507705265526 Z M 237.369051205485,-34.862748302528075 L 237.3070653234687,-31.863388745817588 A 735.3853863226707 735.3853863226707 0 0 1 405.15205103746155,-8.876673946356744 L 404.4053426051918,-5.971088546273443 L 414.24216145384634,-8.089341349589114 L 406.6454679020011,-14.687844746523346 L 405.8987594697313,-11.782259346440044 A 738.3853863226707 738.3853863226707 0 0 0 237.369051205485,-34.862748302528075"/><text text-anchor="middle" pointer-events="none" font-size="8px" fill="#000000" x="218.33525210144506" y="-30.51069822793147" font-family="sans-serif">SIMILAR</text></g><g class="relationship" transform="translate(40.08241862972474 -51.29308291498789) rotate(485.04346146587227)"><path class="outline" fill="#A5ABB6" stroke="none" d="M 31.00436078674094,-9.860507705265526 L 31.7808179220485,-6.962730226398321 A 320.5480237383186 320.5480237383186 0 0 1 92.74914694500889,-17.12959341383703 L 92.54329069794201,-20.122522281274996 A 323.5480237383186 323.5480237383186 0 0 0 31.00436078674094,-9.860507705265526 Z M 130.7041932005721,-20.491289077834153 L 130.5562141616584,-17.494940933168323 A 320.5480237383186 320.5480237383186 0 0 1 191.70963351493057,-8.508197789688188 L 190.98932133254513,-5.595956323067139 L 200.80651400598643,-7.803381975842365 L 193.15025787970146,-14.332680722930284 L 192.42994569731601,-11.420439256309235 A 323.5480237383186 323.5480237383186 0 0 0 130.7041932005721,-20.491289077834153"/><text text-anchor="middle" pointer-events="none" font-size="8px" fill="#000000" x="111.63279471079105" y="-16.370103468775653" transform="rotate(180 111.63279471079105 -19.370103468775653)" font-family="sans-serif">SIMILAR</text></g><g class="relationship" transform="translate(40.08241862972474 -51.29308291498789) rotate(331.89371966064346)"><path class="outline" fill="#A5ABB6" stroke="none" d="M 31.00436078674094,-9.860507705265526 L 31.7808179220485,-6.962730226398321 A 176.3932699120027 176.3932699120027 0 0 1 56.193531039855316,-11.68958386935779 L 55.832271941241316,-14.667753082762005 A 179.3932699120027 179.3932699120027 0 0 0 31.00436078674094,-9.860507705265526 Z M 94.08401982153923,-15.1989155979023 L 93.8055935869343,-12.211863734963913 A 176.3932699120027 176.3932699120027 0 0 1 118.34014255852296,-8.164690166284812 L 117.64444616983853,-5.246470411918898 L 127.4426500159629,-7.536710877414515 L 119.73153533589179,-14.00112967501664 L 119.03583894720737,-11.082909920650726 A 179.3932699120027 179.3932699120027 0 0 0 94.08401982153923,-15.1989155979023"/><text text-anchor="middle" pointer-events="none" font-size="8px" fill="#000000" x="74.9647736175724" y="-11.456036929032052" font-family="sans-serif">SIMILAR</text></g><g class="relationship" transform="translate(40.08241862972474 -51.29308291498789) rotate(410.10318634961374)"><path class="outline" fill="#A5ABB6" stroke="none" d="M 31.00436078674094,-9.860507705265526 L 31.7808179220485,-6.962730226398321 A 490.68540344778427 490.68540344778427 0 0 1 136.3602669984829,-23.16999705503946 L 136.22319783971759,-26.166864093417246 A 493.68540344778427 493.68540344778427 0 0 0 31.00436078674094,-9.860507705265526 Z M 174.33641308587332,-26.437257330113766 L 174.24187797815645,-23.43874718115501 A 490.68540344778427 490.68540344778427 0 0 1 279.0407527999473,-8.716909548851435 L 278.30548816928916,-5.808407198344718 L 288.13389216679656,-7.965366832130256 L 280.51128206126367,-14.533914249864868 L 279.7760174306055,-11.62541189935815 A 493.68540344778427 493.68540344778427 0 0 0 174.33641308587332,-26.437257330113766"/><text text-anchor="middle" pointer-events="none" font-size="8px" fill="#000000" x="155.28783652561188" y="-22.1700441365071" font-family="sans-serif">SIMILAR</text></g><g class="relationship" transform="translate(245.10345252332866 193.93703479329085) rotate(346.53661863581647)"><path class="outline" fill="#A5ABB6" stroke="none" d="M 31.00436078674094,-9.860507705265526 L 31.7808179220485,-6.962730226398321 A 287.5307126877607 287.5307126877607 0 0 1 84.32762432750062,-15.927039941046814 L 84.09942312542111,-18.91834805145095 A 290.5307126877607 290.5307126877607 0 0 0 31.00436078674094,-9.860507705265526 Z M 122.27490474212327,-19.315010997843444 L 122.1089085673038,-16.319606973351085 A 287.5307126877607 287.5307126877607 0 0 1 174.83063748903632,-8.449091642347849 L 174.11456029752577,-5.535805961917875 L 183.92853312608153,-7.75750290803114 L 176.26279187205745,-14.275663003207798 L 175.5467146805469,-11.362377322777824 A 290.5307126877607 290.5307126877607 0 0 0 122.27490474212327,-19.315010997843444"/><text text-anchor="middle" pointer-events="none" font-size="8px" fill="#000000" x="103.19622632212459" y="-15.244500655668446" font-family="sans-serif">SIMILAR</text></g><g class="relationship" transform="translate(245.10345252332866 193.93703479329085) rotate(230.10318634961374)"><path class="outline" fill="#A5ABB6" stroke="none" d="M 31.00436078674094,-9.860507705265526 L 31.7808179220485,-6.962730226398321 A 490.68540344778427 490.68540344778427 0 0 1 136.3602669984829,-23.16999705503946 L 136.22319783971759,-26.166864093417246 A 493.68540344778427 493.68540344778427 0 0 0 31.00436078674094,-9.860507705265526 Z M 174.33641308587332,-26.437257330113766 L 174.24187797815645,-23.43874718115501 A 490.68540344778427 490.68540344778427 0 0 1 279.0407527999473,-8.716909548851435 L 278.30548816928916,-5.808407198344718 L 288.13389216679656,-7.965366832130256 L 280.51128206126367,-14.533914249864868 L 279.7760174306055,-11.62541189935815 A 493.68540344778427 493.68540344778427 0 0 0 174.33641308587332,-26.437257330113766"/><text text-anchor="middle" pointer-events="none" font-size="8px" fill="#000000" x="155.28783652561188" y="-22.1700441365071" transform="rotate(180 155.28783652561188 -25.1700441365071)" font-family="sans-serif">SIMILAR</text></g><g class="relationship" transform="translate(245.10345252332866 193.93703479329085) rotate(258.5716528524702)"><path class="outline" fill="#A5ABB6" stroke="none" d="M 31.00436078674094,-9.860507705265526 L 31.7808179220485,-6.962730226398321 A 504.2880434968048 504.2880434968048 0 0 1 139.85708052084698,-23.646271897079714 L 139.72356702058607,-26.64329944871281 A 507.2880434968048 507.2880434968048 0 0 0 31.00436078674094,-9.860507705265526 Z M 177.83421002800324,-26.908033143716636 L 177.74234481002324,-23.909440009974503 A 504.2880434968048 504.2880434968048 0 0 1 286.03994947546124,-8.728928696770215 L 285.30382386268093,-5.820644136723027 L 295.13286596199293,-7.974694138452969 L 287.5122007010218,-14.545497816864588 L 286.7760750882415,-11.6372132568174 A 507.2880434968048 507.2880434968048 0 0 0 177.83421002800324,-26.908033143716636"/><text text-anchor="middle" pointer-events="none" font-size="8px" fill="#000000" x="158.78682095517604" y="-22.633726123101383" transform="rotate(180 158.78682095517604 -25.633726123101383)" font-family="sans-serif">SIMILAR</text></g><g class="relationship" transform="translate(245.10345252332866 193.93703479329085) rotate(188.3433137338787)"><path class="outline" fill="#A5ABB6" stroke="none" d="M 31.00436078674094,-9.860507705265526 L 31.7808179220485,-6.962730226398321 A 253.33336802482248 253.33336802482248 0 0 1 75.62891759590315,-14.662087601064826 L 75.37171420141615,-17.651041667935743 A 256.33336802482245 256.33336802482245 0 0 0 31.00436078674094,-9.860507705265526 Z M 113.5653982515235,-18.081349562359406 L 113.37560150305904,-15.087359382971357 A 253.33336802482248 253.33336802482248 0 0 1 157.3860381211402,-8.377857339079705 L 156.67506522093677,-5.463321778278232 L 166.4851312536463,-7.702206418870222 L 158.807983921547,-14.20692846068265 L 158.09701102134358,-11.292392899881177 A 256.33336802482245 256.33336802482245 0 0 0 113.5653982515235,-18.081349562359406"/><text text-anchor="middle" pointer-events="none" font-size="8px" fill="#000000" x="94.47742870559559" y="-14.078683536327418" transform="rotate(180 94.47742870559559 -17.078683536327418)" font-family="sans-serif">SIMILAR</text></g><g class="relationship" transform="translate(245.10345252332866 193.93703479329085) rotate(221.07583471056466)"><path class="outline" fill="#A5ABB6" stroke="none" d="M 31.00436078674094,-9.860507705265526 L 31.7808179220485,-6.962730226398321 A 291.97919075086065 291.97919075086065 0 0 1 85.4610838375784,-16.090001853241347 L 85.23617558947905,-19.08155935393171 A 294.97919075086065 294.97919075086065 0 0 0 31.00436078674094,-9.860507705265526 Z M 123.40953847075811,-19.474223458751 L 123.2462156427862,-16.478672482075183 A 291.97919075086065 291.97919075086065 0 0 1 177.10287560909265,-8.457561998743152 L 176.38619149710792,-5.54442556465211 L 186.20062696735812,-7.764077879834501 L 178.5362438330621,-14.283834866925234 L 177.81955972107735,-11.370698432834192 A 294.97919075086065 294.97919075086065 0 0 0 123.40953847075811,-19.474223458751"/><text text-anchor="middle" pointer-events="none" font-size="8px" fill="#000000" x="104.33192687077127" y="-15.396154791608808" transform="rotate(180 104.33192687077127 -18.396154791608808)" font-family="sans-serif">SIMILAR</text></g><g class="relationship" transform="translate(245.10345252332866 193.93703479329085) rotate(294.30030536471037)"><path class="outline" fill="#A5ABB6" stroke="none" d="M 31.00436078674094,-9.860507705265526 L 31.7808179220485,-6.962730226398321 A 428.8019164507722 428.8019164507722 0 0 1 120.46699748441083,-20.993761096946628 L 120.31100991437312,-23.989702998585187 A 431.8019164507722 431.8019164507722 0 0 0 31.00436078674094,-9.860507705265526 Z M 158.43774108724594,-24.28920197116156 L 158.3288382314635,-21.291179261440618 A 428.8019164507722 428.8019164507722 0 0 1 247.22449725525271,-8.655116607905908 L 246.4936592661603,-5.745498792161139 L 256.31876969703325,-7.917411548501066 L 248.68617323343756,-14.474352239395447 L 247.95533524434515,-11.564734423650679 A 431.8019164507722 431.8019164507722 0 0 0 158.43774108724594,-24.28920197116156"/><text text-anchor="middle" pointer-events="none" font-size="8px" fill="#000000" x="139.3828508535118" y="-20.060525598098707" font-family="sans-serif">SIMILAR</text></g><g class="relationship" transform="translate(245.10345252332866 193.93703479329085) rotate(271.2437315791158)"><path class="outline" fill="#A5ABB6" stroke="none" d="M 31.00436078674094,-9.860507705265526 L 31.7808179220485,-6.962730226398321 A 168.65167316829306 168.65167316829306 0 0 1 54.253261070337786,-11.374449240775107 L 53.87654695671726,-14.350703006266059 A 171.65167316829306 171.65167316829306 0 0 0 31.00436078674094,-9.860507705265526 Z M 92.13589087170904,-14.894623148361148 L 91.84393668966754,-11.908863152047218 A 168.65167316829306 168.65167316829306 0 0 1 114.43271219076274,-8.137764230508598 L 113.73894565056183,-5.219085079300358 L 123.53563291448792,-7.51580418550996 L 115.82024527116458,-13.975122532925075 L 115.12647873096367,-11.056443381716836 A 171.65167316829306 171.65167316829306 0 0 0 92.13589087170904,-14.894623148361148"/><text text-anchor="middle" pointer-events="none" font-size="8px" fill="#000000" x="73.01233860139193" y="-11.192204268556395" font-family="sans-serif">SIMILAR</text></g><g class="relationship" transform="translate(245.10345252332866 193.93703479329085) rotate(323.5996000424774)"><path class="outline" fill="#A5ABB6" stroke="none" d="M 31.00436078674094,-9.860507705265526 L 31.7808179220485,-6.962730226398321 A 436.4211738918457 436.4211738918457 0 0 1 122.42232281425122,-21.262667217768126 L 122.26894386795928,-24.258743802042034 A 439.4211738918457 439.4211738918457 0 0 0 31.00436078674094,-9.860507705265526 Z M 160.39382866911305,-24.554327807591903 L 160.28692281075962,-21.55623322311834 A 436.4211738918457 436.4211738918457 0 0 1 251.13925431093153,-8.663426388948306 L 250.40782102172517,-5.753958165468156 L 260.23337562597516,-7.923860633069232 L 252.6021208893443,-14.482362835908603 L 251.87068760013793,-11.572894612428453 A 439.4211738918457 439.4211738918457 0 0 0 160.39382866911305,-24.554327807591903"/><text text-anchor="middle" pointer-events="none" font-size="8px" fill="#000000" x="141.3398082150141" y="-20.320260048198918" font-family="sans-serif">SIMILAR</text></g><g class="relationship" transform="translate(454.6707066429856 143.76602438060632) rotate(206.97422372859637)"><path class="outline" fill="#A5ABB6" stroke="none" d="M 31.00436078674094,-9.860507705265526 L 31.7808179220485,-6.962730226398321 A 318.62030313640753 318.62030313640753 0 0 1 92.25693093458581,-17.059790401316434 L 92.04989243723598,-20.052637717939035 A 321.62030313640753 321.62030313640753 0 0 0 31.00436078674094,-9.860507705265526 Z M 130.2115780507586,-20.42292619338673 L 130.0626531474023,-17.42662491127902 A 318.62030313640753 318.62030313640753 0 0 1 190.72330753707504,-8.504972693344287 L 190.0032264287386,-5.592674082724669 L 199.8202439231021,-7.800878673644771 L 192.16346975374793,-14.329569914583525 L 191.4433886454115,-11.417271303963906 A 321.62030313640753 321.62030313640753 0 0 0 130.2115780507586,-20.42292619338673"/><text text-anchor="middle" pointer-events="none" font-size="8px" fill="#000000" x="111.13979213249205" y="-16.304385011682996" transform="rotate(180 111.13979213249205 -19.304385011682996)" font-family="sans-serif">SIMILAR</text></g><g class="relationship" transform="translate(454.6707066429856 143.76602438060632) rotate(246.75869486400154)"><path class="outline" fill="#A5ABB6" stroke="none" d="M 31.00436078674094,-9.860507705265526 L 31.7808179220485,-6.962730226398321 A 317.70843466913726 317.70843466913726 0 0 1 92.02411932903088,-17.026755466415807 L 91.81651679278097,-20.019563710681155 A 320.70843466913726 320.70843466913726 0 0 0 31.00436078674094,-9.860507705265526 Z M 129.97857556373495,-20.39057631764871 L 129.829199099944,-17.39429751352094 A 317.70843466913726 317.70843466913726 0 0 1 190.25678042891263,-8.503437983918909 L 189.5368092807983,-5.591112187260345 L 199.3537433929455,-7.799687437905211 L 191.69672272514129,-14.328089577236037 L 190.97675157702696,-11.415763780577473 A 320.70843466913726 320.70843466913726 0 0 0 129.97857556373495,-20.39057631764871"/><text text-anchor="middle" pointer-events="none" font-size="8px" fill="#000000" x="110.90660488957413" y="-16.273298243761133" transform="rotate(180 110.90660488957413 -19.273298243761133)" font-family="sans-serif">SIMILAR</text></g><g class="relationship" transform="translate(454.6707066429856 143.76602438060632) rotate(536.974803194086)"><path class="outline" fill="#A5ABB6" stroke="none" d="M 31.00436078674094,-9.860507705265526 L 31.7808179220485,-6.962730226398321 A 658.5578382193029 658.5578382193029 0 0 1 179.57359605622145,-29.012768634596227 L 179.47039540450749,-32.01099304672516 A 661.5578382193029 661.5578382193029 0 0 0 31.00436078674094,-9.860507705265526 Z M 217.55871840275012,-32.22488908346463 L 217.48919799759886,-29.225694706091303 A 658.5578382193029 658.5578382193029 0 0 1 365.52030348981805,-8.83694120884799 L 364.7764409225911,-5.93062593326645 L 374.6111806001761,-8.058511144958064 L 367.00802862427184,-14.649571760011073 L 366.2641660570449,-11.743256484429532 A 661.5578382193029 661.5578382193029 0 0 0 217.55871840275012,-32.22488908346463"/><text text-anchor="middle" pointer-events="none" font-size="8px" fill="#000000" x="198.5214407651027" y="-27.892136495315413" transform="rotate(180 198.5214407651027 -30.892136495315413)" font-family="sans-serif">SIMILAR</text></g><g class="relationship" transform="translate(454.6707066429856 143.76602438060632) rotate(193.96100216222203)"><path class="outline" fill="#A5ABB6" stroke="none" d="M 31.00436078674094,-9.860507705265526 L 31.7808179220485,-6.962730226398321 A 617.8215811688215 617.8215811688215 0 0 1 169.0774666283903,-27.600727320556643 L 168.96769055226457,-30.598718183302935 A 620.8215811688215 620.8215811688215 0 0 0 31.00436078674094,-9.860507705265526 Z M 207.06091305566358,-30.82404825181561 L 206.98661101502177,-27.824968525173404 A 617.8215811688215 617.8215811688215 0 0 1 344.51780040541604,-8.812640553180522 L 343.7756784297849,-5.905880333746296 L 353.60914205153426,-8.039654736004163 L 346.0020443566783,-14.626160992048973 L 345.25992238104715,-11.719400772614748 A 620.8215811688215 620.8215811688215 0 0 0 207.06091305566358,-30.82404825181561"/><text text-anchor="middle" pointer-events="none" font-size="8px" fill="#000000" x="188.0214457885696" y="-26.503655385514776" transform="rotate(180 188.0214457885696 -29.503655385514776)" font-family="sans-serif">SIMILAR</text></g><g class="relationship" transform="translate(454.6707066429856 143.76602438060632) rotate(224.54774969631893)"><path class="outline" fill="#A5ABB6" stroke="none" d="M 31.00436078674094,-9.860507705265526 L 31.7808179220485,-6.962730226398321 A 617.3894315370418 617.3894315370418 0 0 1 168.96614680022694,-27.5857317395795 L 168.8562964541058,-30.583719881893785 A 620.3894315370418 620.3894315370418 0 0 0 31.00436078674094,-9.860507705265526 Z M 206.94957411908996,-30.80917777705804 L 206.87521785693312,-27.81009939424132 A 617.3894315370418 617.3894315370418 0 0 1 344.29504498228874,-8.812368907048246 L 343.5529424641752,-5.9056037200044775 L 353.3863918024768,-8.039443946229609 L 345.77925001851577,-14.62589928113578 L 345.0371475004022,-11.719134094092013 A 620.3894315370418 620.3894315370418 0 0 0 206.94957411908996,-30.80917777705804"/><text text-anchor="middle" pointer-events="none" font-size="8px" fill="#000000" x="187.91008210288817" y="-26.488925548165412" transform="rotate(180 187.91008210288817 -29.488925548165412)" font-family="sans-serif">SIMILAR</text></g><g class="relationship" transform="translate(454.6707066429856 143.76602438060632) rotate(281.6093466471066)"><path class="outline" fill="#A5ABB6" stroke="none" d="M 31.00436078674094,-9.860507705265526 L 31.7808179220485,-6.962730226398321 A 109.46460625028737 109.46460625028737 0 0 1 39.588023255935724,-8.751304115888658 L 39.02553131726998,-11.698099463200037 A 112.46460625028737 112.46460625028737 0 0 0 31.00436078674094,-9.860507705265526 Z M 77.35332297082087,-12.363256101083081 L 76.89341880822113,-9.398717661254139 A 109.46460625028737 109.46460625028737 0 0 1 84.7579835111933,-7.88211826905861 L 84.08254215427003,-4.959143932298596 L 93.86462719993499,-7.317281366668796 L 86.10886622503985,-13.72806694257864 L 85.43342486811657,-10.805092605818624 A 112.46460625028737 112.46460625028737 0 0 0 77.35332297082087,-12.363256101083081"/><text text-anchor="middle" pointer-events="none" font-size="8px" fill="#000000" x="58.18690620105489" y="-9.175940074072258" font-family="sans-serif">SIMILAR</text></g><g class="relationship" transform="translate(454.6707066429856 143.76602438060632) rotate(526.5366186358165)"><path class="outline" fill="#A5ABB6" stroke="none" d="M 31.00436078674094,-9.860507705265526 L 31.7808179220485,-6.962730226398321 A 287.5307126877607 287.5307126877607 0 0 1 84.32762432750062,-15.927039941046814 L 84.09942312542111,-18.91834805145095 A 290.5307126877607 290.5307126877607 0 0 0 31.00436078674094,-9.860507705265526 Z M 122.27490474212327,-19.315010997843444 L 122.1089085673038,-16.319606973351085 A 287.5307126877607 287.5307126877607 0 0 1 174.83063748903632,-8.449091642347849 L 174.11456029752577,-5.535805961917875 L 183.92853312608153,-7.75750290803114 L 176.26279187205745,-14.275663003207798 L 175.5467146805469,-11.362377322777824 A 290.5307126877607 290.5307126877607 0 0 0 122.27490474212327,-19.315010997843444"/><text text-anchor="middle" pointer-events="none" font-size="8px" fill="#000000" x="103.19622632212459" y="-15.244500655668446" transform="rotate(180 103.19622632212459 -18.244500655668446)" font-family="sans-serif">SIMILAR</text></g><g class="relationship" transform="translate(479.93211390540256 20.803883762731076) rotate(535.6924618299366)"><path class="outline" fill="#A5ABB6" stroke="none" d="M 31.00436078674094,-9.860507705265526 L 31.7808179220485,-6.962730226398321 A 646.9553883174701 646.9553883174701 0 0 1 176.58358809942743,-28.61088309637796 L 176.47859659896355,-31.609045330952654 A 649.9553883174701 649.9553883174701 0 0 0 31.00436078674094,-9.860507705265526 Z M 214.56825708673574,-31.826078543440076 L 214.49743808771422,-28.826914548361287 A 646.9553883174701 646.9553883174701 0 0 1 359.53749847230966,-8.830273396464134 L 358.7941134988623,-5.923835924015662 L 368.6285033763788,-8.053337212346293 L 361.0242684192044,-14.64314834136108 L 360.28088344575707,-11.736710868912608 A 649.9553883174701 649.9553883174701 0 0 0 214.56825708673574,-31.826078543440076"/><text text-anchor="middle" pointer-events="none" font-size="8px" fill="#000000" x="195.53038340776288" y="-27.49667416306511" transform="rotate(180 195.53038340776288 -30.49667416306511)" font-family="sans-serif">SIMILAR</text></g><g class="relationship" transform="translate(479.93211390540256 20.803883762731076) rotate(503.5996000424774)"><path class="outline" fill="#A5ABB6" stroke="none" d="M 31.00436078674094,-9.860507705265526 L 31.7808179220485,-6.962730226398321 A 436.4211738918457 436.4211738918457 0 0 1 122.42232281425122,-21.262667217768126 L 122.26894386795928,-24.258743802042034 A 439.4211738918457 439.4211738918457 0 0 0 31.00436078674094,-9.860507705265526 Z M 160.39382866911305,-24.554327807591903 L 160.28692281075962,-21.55623322311834 A 436.4211738918457 436.4211738918457 0 0 1 251.13925431093153,-8.663426388948306 L 250.40782102172517,-5.753958165468156 L 260.23337562597516,-7.923860633069232 L 252.6021208893443,-14.482362835908603 L 251.87068760013793,-11.572894612428453 A 439.4211738918457 439.4211738918457 0 0 0 160.39382866911305,-24.554327807591903"/><text text-anchor="middle" pointer-events="none" font-size="8px" fill="#000000" x="141.3398082150141" y="-20.320260048198918" transform="rotate(180 141.3398082150141 -23.320260048198918)" font-family="sans-serif">SIMILAR</text></g><g class="relationship" transform="translate(479.93211390540256 20.803883762731076) rotate(189.30872989809814)"><path class="outline" fill="#A5ABB6" stroke="none" d="M 31.00436078674094,-9.860507705265526 L 31.7808179220485,-6.962730226398321 A 735.3853863226707 735.3853863226707 0 0 1 199.3813240503369,-31.6689770507096 L 199.28859211236994,-34.66754350614815 A 738.3853863226707 738.3853863226707 0 0 0 31.00436078674094,-9.860507705265526 Z M 237.369051205485,-34.862748302528075 L 237.3070653234687,-31.863388745817588 A 735.3853863226707 735.3853863226707 0 0 1 405.15205103746155,-8.876673946356744 L 404.4053426051918,-5.971088546273443 L 414.24216145384634,-8.089341349589114 L 406.6454679020011,-14.687844746523346 L 405.8987594697313,-11.782259346440044 A 738.3853863226707 738.3853863226707 0 0 0 237.369051205485,-34.862748302528075"/><text text-anchor="middle" pointer-events="none" font-size="8px" fill="#000000" x="218.33525210144506" y="-30.51069822793147" transform="rotate(180 218.33525210144506 -33.51069822793147)" font-family="sans-serif">SIMILAR</text></g><g class="relationship" transform="translate(479.93211390540256 20.803883762731076) rotate(535.5495324349039)"><path class="outline" fill="#A5ABB6" stroke="none" d="M 31.00436078674094,-9.860507705265526 L 31.7808179220485,-6.962730226398321 A 320.16699152333825 320.16699152333825 0 0 1 92.65185103604477,-17.11579981681325 L 92.4457621903386,-20.108712676833647 A 323.16699152333825 323.16699152333825 0 0 0 31.00436078674094,-9.860507705265526 Z M 130.60681886624764,-20.47777926653771 L 130.4586538028894,-17.481440314750046 A 320.16699152333825 320.16699152333825 0 0 1 191.51466914499855,-8.507562389506665 L 190.7944024881724,-5.5953096629967405 L 200.6115606529414,-7.802888782283205 L 192.95520245865083,-14.332067842526516 L 192.2349358018247,-11.419815116016592 A 323.16699152333825 323.16699152333825 0 0 0 130.60681886624764,-20.47777926653771"/><text text-anchor="middle" pointer-events="none" font-size="8px" fill="#000000" x="111.5353441346026" y="-16.357113595751287" transform="rotate(180 111.5353441346026 -19.357113595751287)" font-family="sans-serif">SIMILAR</text></g><g class="relationship" transform="translate(479.93211390540256 20.803883762731076) rotate(461.6093466471066)"><path class="outline" fill="#A5ABB6" stroke="none" d="M 31.00436078674094,-9.860507705265526 L 31.7808179220485,-6.962730226398321 A 109.46460625028737 109.46460625028737 0 0 1 39.588023255935724,-8.751304115888658 L 39.02553131726998,-11.698099463200037 A 112.46460625028737 112.46460625028737 0 0 0 31.00436078674094,-9.860507705265526 Z M 77.35332297082087,-12.363256101083081 L 76.89341880822113,-9.398717661254139 A 109.46460625028737 109.46460625028737 0 0 1 84.7579835111933,-7.88211826905861 L 84.08254215427003,-4.959143932298596 L 93.86462719993499,-7.317281366668796 L 86.10886622503985,-13.72806694257864 L 85.43342486811657,-10.805092605818624 A 112.46460625028737 112.46460625028737 0 0 0 77.35332297082087,-12.363256101083081"/><text text-anchor="middle" pointer-events="none" font-size="8px" fill="#000000" x="58.18690620105489" y="-9.175940074072258" transform="rotate(180 58.18690620105489 -12.175940074072258)" font-family="sans-serif">SIMILAR</text></g><g class="relationship" transform="translate(479.93211390540256 20.803883762731076) rotate(206.14349010454112)"><path class="outline" fill="#A5ABB6" stroke="none" d="M 31.00436078674094,-9.860507705265526 L 31.7808179220485,-6.962730226398321 A 517.9887857411333 517.9887857411333 0 0 1 143.3801472708928,-24.125346175297295 L 143.25003229059445,-27.122523195745316 A 520.9887857411333 520.9887857411333 0 0 0 31.00436078674094,-9.860507705265526 Z M 181.35820750161997,-27.381789761741743 L 181.26888488793932,-24.383119811466145 A 517.9887857411333 517.9887857411333 0 0 1 293.0914023145671,-8.740540302550766 L 292.35444492284796,-5.832466403422597 L 302.1841027078112,-7.983705076957413 L 294.5653170980054,-14.556688100807104 L 293.8283597062862,-11.648614201678935 A 520.9887857411333 520.9887857411333 0 0 0 181.35820750161997,-27.381789761741743"/><text text-anchor="middle" pointer-events="none" font-size="8px" fill="#000000" x="162.31195343252105" y="-23.100747784631267" transform="rotate(180 162.31195343252105 -26.100747784631267)" font-family="sans-serif">SIMILAR</text></g><g class="relationship" transform="translate(479.93211390540256 20.803883762731076) rotate(217.47051663563172)"><path class="outline" fill="#A5ABB6" stroke="none" d="M 31.00436078674094,-9.860507705265526 L 31.7808179220485,-6.962730226398321 A 151.7057296294313 151.7057296294313 0 0 1 50.02028472407234,-10.667997979337883 L 49.60451535276506,-13.63904759687756 A 154.7057296294313 154.7057296294313 0 0 0 31.00436078674094,-9.860507705265526 Z M 87.88180349981127,-14.213080574820879 L 87.55531293856015,-11.230899508317037 A 151.7057296294313 151.7057296294313 0 0 1 105.89768602081678,-8.074238605652479 L 105.20847271085219,-5.154480907937194 L 115.00156576894493,-7.466477524616358 L 107.27611264074596,-13.913754001083046 L 106.58689933078138,-10.993996303367762 A 154.7057296294313 154.7057296294313 0 0 0 87.88180349981127,-14.213080574820879"/><text text-anchor="middle" pointer-events="none" font-size="8px" fill="#000000" x="68.74782807316745" y="-10.614752456166002" transform="rotate(180 68.74782807316745 -13.614752456166002)" font-family="sans-serif">SIMILAR</text></g><g class="relationship" transform="translate(180.3823918313834 -126.22605625163511) rotate(377.520380824633)"><path class="outline" fill="#A5ABB6" stroke="none" d="M 31.00436078674094,-9.860507705265526 L 31.7808179220485,-6.962730226398321 A 241.58670430721642 241.58670430721642 0 0 1 72.64782780107346,-14.221629605683034 L 72.37885318633197,-17.209547385111478 A 244.58670430721642 244.58670430721642 0 0 0 31.00436078674094,-9.860507705265526 Z M 110.57968475985172,-17.652745862768967 L 110.38010367347624,-14.65939199294985 A 241.58670430721642 241.58670430721642 0 0 1 151.40452344240384,-8.35058075201666 L 150.69550513488778,-5.435569081438472 L 160.50406760789645,-7.68103166475752 L 152.822560057436,-14.180604093173034 L 152.11354174991993,-11.265592422594848 A 244.58670430721642 244.58670430721642 0 0 0 110.57968475985172,-17.652745862768967"/><text text-anchor="middle" pointer-events="none" font-size="8px" fill="#000000" x="91.48800405521841" y="-13.678239251917233" font-family="sans-serif">SIMILAR</text></g><g class="relationship" transform="translate(180.3823918313834 -126.22605625163511) rotate(404.54774969631893)"><path class="outline" fill="#A5ABB6" stroke="none" d="M 31.00436078674094,-9.860507705265526 L 31.7808179220485,-6.962730226398321 A 617.3894315370418 617.3894315370418 0 0 1 168.96614680022694,-27.5857317395795 L 168.8562964541058,-30.583719881893785 A 620.3894315370418 620.3894315370418 0 0 0 31.00436078674094,-9.860507705265526 Z M 206.94957411908996,-30.80917777705804 L 206.87521785693312,-27.81009939424132 A 617.3894315370418 617.3894315370418 0 0 1 344.29504498228874,-8.812368907048246 L 343.5529424641752,-5.9056037200044775 L 353.3863918024768,-8.039443946229609 L 345.77925001851577,-14.62589928113578 L 345.0371475004022,-11.719134094092013 A 620.3894315370418 620.3894315370418 0 0 0 206.94957411908996,-30.80917777705804"/><text text-anchor="middle" pointer-events="none" font-size="8px" fill="#000000" x="187.91008210288817" y="-26.488925548165412" font-family="sans-serif">SIMILAR</text></g><g class="relationship" transform="translate(180.3823918313834 -126.22605625163511) rotate(511.89371966064346)"><path class="outline" fill="#A5ABB6" stroke="none" d="M 31.00436078674094,-9.860507705265526 L 31.7808179220485,-6.962730226398321 A 176.3932699120027 176.3932699120027 0 0 1 56.193531039855316,-11.68958386935779 L 55.832271941241316,-14.667753082762005 A 179.3932699120027 179.3932699120027 0 0 0 31.00436078674094,-9.860507705265526 Z M 94.08401982153923,-15.1989155979023 L 93.8055935869343,-12.211863734963913 A 176.3932699120027 176.3932699120027 0 0 1 118.34014255852296,-8.164690166284812 L 117.64444616983853,-5.246470411918898 L 127.4426500159629,-7.536710877414515 L 119.73153533589179,-14.00112967501664 L 119.03583894720737,-11.082909920650726 A 179.3932699120027 179.3932699120027 0 0 0 94.08401982153923,-15.1989155979023"/><text text-anchor="middle" pointer-events="none" font-size="8px" fill="#000000" x="74.9647736175724" y="-11.456036929032052" transform="rotate(180 74.9647736175724 -14.456036929032052)" font-family="sans-serif">SIMILAR</text></g><g class="relationship" transform="translate(180.3823918313834 -126.22605625163511) rotate(438.5716528524702)"><path class="outline" fill="#A5ABB6" stroke="none" d="M 31.00436078674094,-9.860507705265526 L 31.7808179220485,-6.962730226398321 A 504.2880434968048 504.2880434968048 0 0 1 139.85708052084698,-23.646271897079714 L 139.72356702058607,-26.64329944871281 A 507.2880434968048 507.2880434968048 0 0 0 31.00436078674094,-9.860507705265526 Z M 177.83421002800324,-26.908033143716636 L 177.74234481002324,-23.909440009974503 A 504.2880434968048 504.2880434968048 0 0 1 286.03994947546124,-8.728928696770215 L 285.30382386268093,-5.820644136723027 L 295.13286596199293,-7.974694138452969 L 287.5122007010218,-14.545497816864588 L 286.7760750882415,-11.6372132568174 A 507.2880434968048 507.2880434968048 0 0 0 177.83421002800324,-26.908033143716636"/><text text-anchor="middle" pointer-events="none" font-size="8px" fill="#000000" x="158.78682095517604" y="-22.633726123101383" font-family="sans-serif">SIMILAR</text></g><g class="relationship" transform="translate(180.3823918313834 -126.22605625163511) rotate(479.3149782574418)"><path class="outline" fill="#A5ABB6" stroke="none" d="M 31.00436078674094,-9.860507705265526 L 31.7808179220485,-6.962730226398321 A 263.2128667526532 263.2128667526532 0 0 1 78.13906445393518,-15.029972458965489 L 77.8909809551883,-18.019697292064592 A 266.2128667526532 266.2128667526532 0 0 0 31.00436078674094,-9.860507705265526 Z M 116.07903096198426,-18.43972166658196 L 115.89676655374274,-15.44526350432821 A 263.2128667526532 263.2128667526532 0 0 1 162.42123730542647,-8.399623716074487 L 161.70870470028024,-5.485469072510848 L 171.5199675386905,-7.719103222417591 L 163.84630251571895,-14.227933003201763 L 163.1337699105727,-11.313778359638125 A 266.2128667526532 266.2128667526532 0 0 0 116.07903096198426,-18.43972166658196"/><text text-anchor="middle" pointer-events="none" font-size="8px" fill="#000000" x="96.99396153146908" y="-14.415480863469469" transform="rotate(180 96.99396153146908 -17.41548086346947)" font-family="sans-serif">SIMILAR</text></g><g class="relationship" transform="translate(180.3823918313834 -126.22605625163511) rotate(386.1434901045411)"><path class="outline" fill="#A5ABB6" stroke="none" d="M 31.00436078674094,-9.860507705265526 L 31.7808179220485,-6.962730226398321 A 517.9887857411333 517.9887857411333 0 0 1 143.3801472708928,-24.125346175297295 L 143.25003229059445,-27.122523195745316 A 520.9887857411333 520.9887857411333 0 0 0 31.00436078674094,-9.860507705265526 Z M 181.35820750161997,-27.381789761741743 L 181.26888488793932,-24.383119811466145 A 517.9887857411333 517.9887857411333 0 0 1 293.0914023145671,-8.740540302550766 L 292.35444492284796,-5.832466403422597 L 302.1841027078112,-7.983705076957413 L 294.5653170980054,-14.556688100807104 L 293.8283597062862,-11.648614201678935 A 520.9887857411333 520.9887857411333 0 0 0 181.35820750161997,-27.381789761741743"/><text text-anchor="middle" pointer-events="none" font-size="8px" fill="#000000" x="162.31195343252105" y="-23.100747784631267" font-family="sans-serif">SIMILAR</text></g><g class="relationship" transform="translate(180.3823918313834 -126.22605625163511) rotate(427.5815640741247)"><path class="outline" fill="#A5ABB6" stroke="none" d="M 31.00436078674094,-9.860507705265526 L 31.7808179220485,-6.962730226398321 A 214.91150984727773 214.91150984727773 0 0 1 65.89429637049145,-13.20653848791477 L 65.59403725462946,-16.191474745750384 A 217.91150984727773 217.91150984727773 0 0 0 31.00436078674094,-9.860507705265526 Z M 103.81316570964374,-16.666963521393257 L 103.5872599366231,-13.675481182866747 A 214.91150984727773 214.91150984727773 0 0 1 137.84551564689264,-8.282293892521103 L 137.14139087478793,-5.366096315999837 L 146.94617076250879,-7.628018364467623 L 139.25376519110205,-14.114689045563633 L 138.54964041899734,-11.198491469042366 A 217.91150984727773 217.91150984727773 0 0 0 103.81316570964374,-16.666963521393257"/><text text-anchor="middle" pointer-events="none" font-size="8px" fill="#000000" x="84.71181639233335" y="-12.768916043069737" font-family="sans-serif">SIMILAR</text></g></g><g class="layer nodes"><g class="node" transform="translate(363.55499114363846,-68.40031525995528)"><circle class="outline" cx="0" cy="0" r="32.5" fill="#FFC454" stroke="#d7a013" stroke-width="2px"/><text text-anchor="middle" pointer-events="none" font-family="sans-serif" dy="2.03125" font-size="32.5" fill="#604A0E"/><text text-anchor="middle" pointer-events="none" font-family="sans-serif" dy="2.03125" font-size="32.5" fill="#604A0E"/><text text-anchor="middle" pointer-events="none" y="0" font-size="10px" fill="#604A0E" font-family="sans-serif"> Luke</text><text text-anchor="middle" pointer-events="none" y="10" font-size="10px" fill="#604A0E" font-family="sans-serif"> Bradford</text></g><g class="node" transform="translate(479.93211390540256,20.803883762731076)"><circle class="outline" cx="0" cy="0" r="32.5" fill="#FFC454" stroke="#d7a013" stroke-width="2px"/><text text-anchor="middle" pointer-events="none" font-family="sans-serif" dy="2.03125" font-size="32.5" fill="#604A0E"/><text text-anchor="middle" pointer-events="none" y="5" font-size="10px" fill="#604A0E" font-family="sans-serif"> Owen Burris</text></g><g class="node" transform="translate(248.47116291818077,38.8189309762339)"><circle class="outline" cx="0" cy="0" r="32.5" fill="#FFC454" stroke="#d7a013" stroke-width="2px"/><text text-anchor="middle" pointer-events="none" font-family="sans-serif" dy="2.03125" font-size="32.5" fill="#604A0E"/><text text-anchor="middle" pointer-events="none" font-family="sans-serif" dy="2.03125" font-size="32.5" fill="#604A0E"/><text text-anchor="middle" pointer-events="none" y="0" font-size="10px" fill="#604A0E" font-family="sans-serif"> Reagan</text><text text-anchor="middle" pointer-events="none" y="10" font-size="10px" fill="#604A0E" font-family="sans-serif"> Stanton</text></g><g class="node" transform="translate(454.6707066429856,143.76602438060632)"><circle class="outline" cx="0" cy="0" r="32.5" fill="#FFC454" stroke="#d7a013" stroke-width="2px"/><text text-anchor="middle" pointer-events="none" font-family="sans-serif" dy="2.03125" font-size="32.5" fill="#604A0E"/><text text-anchor="middle" pointer-events="none" y="5" font-size="10px" fill="#604A0E" font-family="sans-serif"> Noah Walter</text></g><g class="node" transform="translate(180.3823918313834,-126.22605625163511)"><circle class="outline" cx="0" cy="0" r="32.5" fill="#FFC454" stroke="#d7a013" stroke-width="2px"/><text text-anchor="middle" pointer-events="none" font-family="sans-serif" dy="2.03125" font-size="32.5" fill="#604A0E"/><text text-anchor="middle" pointer-events="none" font-family="sans-serif" dy="2.03125" font-size="32.5" fill="#604A0E"/><text text-anchor="middle" pointer-events="none" y="0" font-size="10px" fill="#604A0E" font-family="sans-serif"> Benjamin</text><text text-anchor="middle" pointer-events="none" y="10" font-size="10px" fill="#604A0E" font-family="sans-serif"> Rodgers</text></g><g class="node" transform="translate(80.94742506564484,50.85648328287512)"><circle class="outline" cx="0" cy="0" r="32.5" fill="#FFC454" stroke="#d7a013" stroke-width="2px"/><text text-anchor="middle" pointer-events="none" font-family="sans-serif" dy="2.03125" font-size="32.5" fill="#604A0E"/><text text-anchor="middle" pointer-events="none" font-family="sans-serif" dy="2.03125" font-size="32.5" fill="#604A0E"/><text text-anchor="middle" pointer-events="none" y="0" font-size="10px" fill="#604A0E" font-family="sans-serif"> Kimberly</text><text text-anchor="middle" pointer-events="none" y="10" font-size="10px" fill="#604A0E" font-family="sans-serif"> Alvarado</text></g><g class="node" transform="translate(245.10345252332866,193.93703479329085)"><circle class="outline" cx="0" cy="0" r="32.5" fill="#FFC454" stroke="#d7a013" stroke-width="2px"/><text text-anchor="middle" pointer-events="none" font-family="sans-serif" dy="2.03125" font-size="32.5" fill="#604A0E"/><text text-anchor="middle" pointer-events="none" font-family="sans-serif" dy="2.03125" font-size="32.5" fill="#604A0E"/><text text-anchor="middle" pointer-events="none" y="0" font-size="10px" fill="#604A0E" font-family="sans-serif"> Lucas</text><text text-anchor="middle" pointer-events="none" y="10" font-size="10px" fill="#604A0E" font-family="sans-serif"> Osborne</text></g><g class="node" transform="translate(40.08241862972474,-51.29308291498789)"><circle class="outline" cx="0" cy="0" r="32.5" fill="#FFC454" stroke="#d7a013" stroke-width="2px"/><text text-anchor="middle" pointer-events="none" font-family="sans-serif" dy="2.03125" font-size="32.5" fill="#604A0E"/><text text-anchor="middle" pointer-events="none" font-family="sans-serif" dy="2.03125" font-size="32.5" fill="#604A0E"/><text text-anchor="middle" pointer-events="none" y="0" font-size="10px" fill="#604A0E" font-family="sans-serif"> Adam</text><text text-anchor="middle" pointer-events="none" y="10" font-size="10px" fill="#604A0E" font-family="sans-serif"> Fitzgerald</text></g><g class="node" transform="translate(-93.33573035455976,138.94049381931606)"><circle class="outline" cx="0" cy="0" r="32.5" fill="#FFC454" stroke="#d7a013" stroke-width="2px"/><text text-anchor="middle" pointer-events="none" font-family="sans-serif" dy="2.03125" font-size="32.5" fill="#604A0E"/><text text-anchor="middle" pointer-events="none" font-family="sans-serif" dy="2.03125" font-size="32.5" fill="#604A0E"/><text text-anchor="middle" pointer-events="none" y="0" font-size="10px" fill="#604A0E" font-family="sans-serif"> Chase</text><text text-anchor="middle" pointer-events="none" y="10" font-size="10px" fill="#604A0E" font-family="sans-serif"> Dunlap</text></g><g class="node" transform="translate(-110.33765300725685,-17.13767298138999)"><circle class="outline" cx="0" cy="0" r="32.5" fill="#FFC454" stroke="#d7a013" stroke-width="2px"/><text text-anchor="middle" pointer-events="none" font-family="sans-serif" dy="2.03125" font-size="32.5" fill="#604A0E"/><text text-anchor="middle" pointer-events="none" y="5" font-size="10px" fill="#604A0E" font-family="sans-serif"> Lauren Ford</text></g><g class="node" transform="translate(49.1403704841526,165.19780163534307)"><circle class="outline" cx="0" cy="0" r="32.5" fill="#FFC454" stroke="#d7a013" stroke-width="2px"/><text text-anchor="middle" pointer-events="none" font-family="sans-serif" dy="2.03125" font-size="32.5" fill="#604A0E"/><text text-anchor="middle" pointer-events="none" font-family="sans-serif" dy="2.03125" font-size="32.5" fill="#604A0E"/><text text-anchor="middle" pointer-events="none" y="0" font-size="10px" fill="#604A0E" font-family="sans-serif"> Olivia</text><text text-anchor="middle" pointer-events="none" y="10" font-size="10px" fill="#604A0E" font-family="sans-serif"> Charles</text></g></g></svg>