<svg xmlns="http://www.w3.org/2000/svg" width="408.3426208496094" height="247.77276611328125" viewBox="-299.7796630859375 -31.30185890197754 408.3426208496094 247.77276611328125"><title>Neo4j Graph Visualization</title><desc>Created using Neo4j (http://www.neo4j.com/)</desc><g class="layer relationships"><g class="relationship" transform="translate(-263.27967834472656 93.92298893020035) rotate(359.58010396618363)"><path class="outline" fill="#4C8EDA" stroke="none" d="M 12.78589838486225,30.145825622994256 L 19.714101615137757,26.145825622994256 A 168.94735733168955 168.94735733168955 0 0 0 96.89634102903804,95.82852374752153 L 93.62287336292388,103.12814082233479 A 176.94735733168955 176.94735733168955 0 0 1 12.78589838486225,30.145825622994256 Z M 226.82776687686436,107.84558134862675 L 224.07888323928557,100.33268318965699 A 168.94735733168955 168.94735733168955 0 0 0 305.99719035570286,36.284518047798244 L 303.5117347510743,34.60448517983985 L 317.1512845456801,26.92576905014286 L 315.1105275726742,42.444638563645704 L 312.62507196804563,40.76460569568731 A 176.94735733168955 176.94735733168955 0 0 1 226.82776687686436,107.84558134862675"/><text text-anchor="middle" pointer-events="none" font-size="8px" fill="#000000" x="159.90572567621825" y="117.51114948937777" font-family="sans-serif">UNWEIGHTED_APPEARED_WITH</text></g><g class="relationship" transform="translate(-263.27967834472656 93.92298893020035) rotate(359.58010396618363)"><path class="outline" fill="#4C8EDA" stroke="none" d="M 26.14582562299426,19.71410161513775 L 30.14582562299426,12.785898384862241 A 271.76195868726546 271.76195868726546 0 0 0 95.55124154450179,39.897911539364145 L 93.47661524249678,47.62422538925591 A 279.76195868726546 279.76195868726546 0 0 1 26.14582562299426,19.71410161513775 Z M 227.6364000579544,50.32691134107438 L 225.8746281464216,42.523312188649015 A 271.76195868726546 271.76195868726546 0 0 0 292.31889322624954,18.067447306032076 L 290.9247456913664,15.411067692539449 L 306.57419480239264,15.1032649612342 L 297.43076752082106,27.80750588883837 L 296.03661998593793,25.151126275345742 A 279.76195868726546 279.76195868726546 0 0 1 227.6364000579544,50.32691134107438"/><text text-anchor="middle" pointer-events="none" font-size="8px" fill="#000000" x="160.4726309949934" y="56.13915755665755" font-family="sans-serif">UNWEIGHTED_APPEARED_WITH</text></g><g class="relationship" transform="translate(-263.27967834472656 93.92298893020035) rotate(359.58010396618363)"><path class="outline" fill="#4C8EDA" stroke="none" d="M 32.5 4 L 93.89066405761477 4 L 93.89066405761477 -4 L 32.5 -4 Z M 227.46097655761477 4 L 288.85164061522954 4 L 288.85164061522954 7 L 302.85164061522954 0 L 288.85164061522954 -7 L 288.85164061522954 -4 L 227.46097655761477 -4 Z"/><text text-anchor="middle" pointer-events="none" font-size="8px" fill="#000000" x="160.67582030761477" y="3" font-family="sans-serif">UNWEIGHTED_APPEARED_WITH</text></g><g class="relationship" transform="translate(-263.27967834472656 93.92298893020035) rotate(359.58010396618363)"><path class="outline" fill="#4C8EDA" stroke="none" d="M 26.14582562299426,-19.71410161513775 L 30.14582562299426,-12.785898384862241 A 271.76195868726546 271.76195868726546 0 0 1 95.55124154450176,-39.897911539364145 L 93.47661524249673,-47.62422538925591 A 279.76195868726546 279.76195868726546 0 0 0 26.14582562299426,-19.71410161513775 Z M 227.63640005795432,-50.32691134107438 L 225.87462814642154,-42.523312188649015 A 271.76195868726546 271.76195868726546 0 0 1 292.31889322624954,-18.067447306032076 L 290.9247456913664,-15.411067692539449 L 306.57419480239264,-15.1032649612342 L 297.43076752082106,-27.80750588883837 L 296.03661998593793,-25.151126275345742 A 279.76195868726546 279.76195868726546 0 0 0 227.63640005795432,-50.32691134107438"/><text text-anchor="middle" pointer-events="none" font-size="8px" fill="#000000" x="160.47263099499335" y="-50.13915755665755" font-family="sans-serif">UNWEIGHTED_APPEARED_WITH</text></g><g class="relationship" transform="translate(-263.27967834472656 93.92298893020035) rotate(359.58010396618363)"><path class="outline" fill="#A5ABB6" stroke="none" d="M 14.084936490538908,-29.395825622994256 L 18.4150635094611,-26.895825622994256 A 170.9121964849896 170.9121964849896 0 0 1 125.36770811078102,-107.34608360894774 L 124.16645798891261,-112.19963881567105 A 175.9121964849896 175.9121964849896 0 0 0 14.084936490538908,-29.395825622994256 Z M 199.08879978319936,-114.29360310777622 L 198.1605118943057,-109.38053058690565 A 170.9121964849896 170.9121964849896 0 0 1 309.43961416556436,-35.02951448809817 L 306.9293735339767,-33.38674488418953 L 317.5549699062191,-27.194273508867106 L 316.13358918313156,-39.41023343185454 L 313.62334855154387,-37.7674638279459 A 175.9121964849896 175.9121964849896 0 0 0 199.08879978319936,-114.29360310777622"/><text text-anchor="middle" pointer-events="none" font-size="8px" fill="#000000" x="161.58465491066787" y="-111.78423594609905" font-family="sans-serif">APPEARED_WITH</text></g></g><g class="layer nodes"><g class="node" transform="translate(-263.27967834472656,93.92298893020035)"><circle class="outline" cx="0" cy="0" r="32.5" fill="#D9C8AE" stroke="#c0a378" stroke-width="2px"/><text text-anchor="middle" pointer-events="none" font-family="sans-serif" dy="2.03125" font-size="32.5" fill="#604A0E"/><text text-anchor="middle" pointer-events="none" y="5" font-size="10px" fill="#604A0E" font-family="sans-serif"> Zephine</text></g><g class="node" transform="translate(72.06295679236915,91.46536352449489)"><circle class="outline" cx="0" cy="0" r="32.5" fill="#D9C8AE" stroke="#c0a378" stroke-width="2px"/><text text-anchor="middle" pointer-events="none" font-family="sans-serif" dy="2.03125" font-size="32.5" fill="#604A0E"/><text text-anchor="middle" pointer-events="none" y="5" font-size="10px" fill="#604A0E" font-family="sans-serif"> Dahlia</text></g></g></svg>